<svg xmlns="http://www.w3.org/2000/svg" xmlns:xlink="http://www.w3.org/1999/xlink" width="630" height="422" viewBox="0 0 630 422" fill="none"><g opacity="1"  transform="translate(0 0)  rotate(0)"><path id="路径 1" fill-rule="evenodd" style="fill:#FFF5DB" opacity="1" d="M393.7 159.504C393.7 159.504 407.477 158.424 417.857 170.593C428.249 182.758 426.977 212.687 426.977 212.687L394.588 185.902C394.588 185.902 421.381 253.185 426.306 255.446C431.223 257.703 496.823 206.844 496.823 206.844L459.232 215.577C459.232 215.577 459.387 181.538 451.108 160.121C442.828 138.704 413.213 116.999 413.213 116.999L393.7 159.504Z"></path><path  id="路径 1" style="fill:#000000; opacity:1;" d="M393.661,159.006M393.661,159.006c2.35267,-0.18467 5.137,0.14733 8.353,0.996c6.42333,1.69467 11.831,5.117 16.223,10.267c4.396,5.14533 7.25367,13.769 8.573,25.871c0.65667,6.02467 0.87867,11.54733 0.666,16.568v0l-0.042,1.005l-33.164,-27.426l0.318,-0.385l0.465,-0.185l-0.465,0.185l0.465,-0.185c4.464,11.21 9.133,22.514 14.007,33.912c9.70133,22.68667 15.51967,34.47433 17.455,35.363c1.87067,0.85867 14.07033,-6.94267 36.599,-23.404c11.33733,-8.28467 22.47167,-16.66433 33.403,-25.139l0.306,0.395l0.114,0.487l-38.208,8.876l0.003,-0.632l-0.003,0.632l0.003,-0.632c0.026,-5.65733 -0.29233,-12.20733 -0.955,-19.65c-1.324,-14.86867 -3.70267,-26.74333 -7.136,-35.624c-3.42267,-8.85467 -10.73333,-18.65867 -21.932,-29.412c-5.61,-5.38667 -10.874,-9.88233 -15.792,-13.487l0.296,-0.403l0.454,0.209l-19.512,42.505l-0.455,-0.209zM392.891,160.069l20.123,-43.836l0.494,0.363c4.954,3.63067 10.252,8.15467 15.894,13.572c11.30467,10.85533 18.69533,20.77967 22.172,29.773c3.46667,8.96733 5.86633,20.93233 7.199,35.895c0.66533,7.47333 0.985,14.05467 0.959,19.744l-0.5,-0.003l0.5,0.003l-0.5,-0.003l-0.113,-0.487l37.591,-8.733l0.42,0.882c-10.93933,8.48133 -22.08133,16.86667 -33.426,25.156c-22.84467,16.69267 -35.38,24.528 -37.606,23.506c-3.40533,-1.56333 -14.06333,-24.83467 -31.974,-69.814v0l0.783,-0.571l32.388,26.785l-0.318,0.386l-0.5,-0.021v0c0.21067,-4.97067 -0.00967,-10.44333 -0.661,-16.418c-1.29733,-11.89733 -4.07733,-20.34067 -8.34,-25.33c-4.25667,-4.99133 -9.49567,-8.30767 -15.717,-9.949c-3.10667,-0.82 -5.78,-1.142 -8.02,-0.966z"></path><g opacity="1" transform="translate(0 0)  rotate(0)"><a xlink:href="https://" xlink:title="跳转" target="_blank"><text><tspan x="0" y="27.84" font-size="24" line-height="0" fill="#000000" opacity="1" font-family="SourceHanSansCN-Regular" font-weight="Regular" letter-spacing="0"  >M-P模型的工作原理是神经元的输</tspan><tspan x="0" y="62.592" font-size="24" line-height="0" fill="#000000" opacity="1" font-family="SourceHanSansCN-Regular" font-weight="Regular" letter-spacing="0"  >入信号加权求和，与阈值比较再决</tspan><tspan x="0" y="97.34400000000001" font-size="24" line-height="0" fill="#000000" opacity="1" font-family="SourceHanSansCN-Regular" font-weight="Regular" letter-spacing="0" >定神经元是否输出。</tspan></text></a></g><g opacity="1" transform="translate(293 317)  rotate(0)"><a xlink:href="https://" xlink:title="跳转" target="_blank"><text><tspan x="0" y="27.84" font-size="24" line-height="0" fill="#000000" opacity="1" font-family="SourceHanSansCN-Regular" font-weight="Regular" letter-spacing="0"  >这个模型从原理上证明了人工神</tspan><tspan x="0" y="62.592" font-size="24" line-height="0" fill="#000000" opacity="1" font-family="SourceHanSansCN-Regular" font-weight="Regular" letter-spacing="0"  >经网络可以计算任何算术和逻辑</tspan><tspan x="0" y="97.34400000000001" font-size="24" line-height="0" fill="#000000" opacity="1" font-family="SourceHanSansCN-Regular" font-weight="Regular" letter-spacing="0" >函数。</tspan></text></a></g></g></svg>