<svg xmlns="http://www.w3.org/2000/svg" xmlns:xlink="http://www.w3.org/1999/xlink" width="832.57421875" height="600.3193359375" viewBox="0 0 832.57421875 600.3193359375" fill="none"><g opacity="1"  transform="translate(6 0.75)  rotate(0)"><path id="路径 1" fill-rule="evenodd" style="fill:#FFF5DB" opacity="1" d="M267.747 217.881C267.747 217.881 254.162 220.414 247.298 234.861C240.421 249.307 249.42 277.879 249.42 277.879L273.743 243.604C273.743 243.604 265.339 315.536 261.169 318.998C257.007 322.454 180.451 290.371 180.451 290.371L219.021 289.045C219.021 289.045 210.033 256.214 212.469 233.381C214.904 210.549 237.868 181.899 237.868 181.899L267.747 217.881Z"></path><path  id="路径 1" style="fill:#000000; opacity:1;" d="M267.656,217.389M267.747,217.881l-0.384,0.319l-29.879,-35.981l0.384,-0.32l0.39,0.313c-3.81333,4.75733 -7.72933,10.46533 -11.748,17.124c-8.02267,13.292 -12.53733,24.658 -13.544,34.098c-1.01,9.46733 -0.224,21.55233 2.358,36.255c1.292,7.35933 2.685,13.76733 4.179,19.224l0.167,0.61l-0.167,-0.61l0.167,0.61l-39.201,1.348l-0.018,-0.5l0.194,-0.461c12.75667,5.346 25.68467,10.54733 38.784,15.604c26.03,10.048 39.83667,14.41467 41.42,13.1c1.63867,-1.36067 4.19733,-14.25467 7.676,-38.682c1.74733,-12.27267 3.32133,-24.40133 4.722,-36.386l0.496,0.058l-0.496,-0.058l0.496,0.058l0.408,0.289l-24.906,35.096l-0.302,-0.96v0c-1.50933,-4.79267 -2.72867,-10.18367 -3.658,-16.173c-1.868,-12.02933 -1.34733,-21.099 1.562,-27.209c2.90467,-6.114 7.23833,-10.823 13.001,-14.127c2.88533,-1.65467 5.488,-2.69833 7.808,-3.131zM267.839,218.372c-2.20867,0.412 -4.70667,1.417 -7.494,3.015c-5.58133,3.20067 -9.77967,7.76367 -12.595,13.689c-2.82067,5.92533 -3.313,14.801 -1.477,26.627c0.922,5.93867 2.13,11.28067 3.624,16.026v0l-0.477,0.15l-0.408,-0.289l24.324,-34.276l0.904,0.348v0c-5.61867,48.08733 -9.86933,73.32767 -12.752,75.721c-1.88467,1.56467 -16.02433,-2.74733 -42.419,-12.936c-13.108,-5.06 -26.045,-10.265 -38.811,-15.615l0.176,-0.96l38.57,-1.327l0.017,0.5l-0.482,0.132l0.482,-0.132l-0.482,0.132c-1.502,-5.48667 -2.902,-11.925 -4.2,-19.315c-2.598,-14.79533 -3.38733,-26.97333 -2.368,-36.534c1.02267,-9.58667 5.58367,-21.08933 13.683,-34.508c4.04133,-6.69667 7.98267,-12.441 11.824,-17.233l0.383,-0.479l30.815,37.108z"></path><path id="路径 1" fill-rule="evenodd" style="fill:#FFF5DB" opacity="1" d="M342.184 479.607C342.184 479.607 337.442 492.588 346.377 505.854C355.303 519.132 384.474 525.946 384.474 525.946L367.373 487.553C367.373 487.553 424.987 531.433 425.842 536.785C426.695 542.128 360.085 591.656 360.085 591.656L378.594 557.792C378.594 557.792 345.764 548.799 327.358 535.071C308.952 521.342 295.999 486.986 295.999 486.986L342.184 479.607Z"></path><path  id="路径 1" style="fill:#000000; opacity:1;" d="M341.714,479.436M342.184,479.607l0.079,0.494l-46.185,7.378l-0.079,-0.493l0.468,-0.177c2.15133,5.70533 5.068,11.98333 8.75,18.834c7.35,13.67533 14.83,23.351 22.44,29.027c7.632,5.692 18.43133,11.17267 32.398,16.442c6.99067,2.63733 13.21433,4.70333 18.671,6.198l0.61,0.167l-0.61,-0.167l0.61,0.167l-18.813,34.419l-0.438,-0.24l-0.299,-0.401c11.1,-8.25333 22.16267,-16.72767 33.188,-25.423c21.90733,-17.27933 32.69867,-26.93533 32.374,-28.968c-0.336,-2.10267 -10.12733,-10.87333 -29.374,-26.312c-9.67067,-7.75667 -19.30533,-15.29033 -28.904,-22.601l0.303,-0.398l-0.303,0.398l0.303,-0.398l0.456,-0.204l17.511,39.313l-0.98,-0.229v0c-4.89333,-1.144 -10.15367,-2.84167 -15.781,-5.093c-11.302,-4.52133 -18.841,-9.59 -22.617,-15.206c-3.78067,-5.61467 -5.62467,-11.743 -5.532,-18.385c0.04667,-3.326 0.47467,-6.097 1.284,-8.313zM342.653,479.779c-0.77067,2.11 -1.17833,4.77133 -1.223,7.984c-0.09,6.43333 1.69733,12.37067 5.362,17.812c3.66133,5.446 11.04767,10.39167 22.159,14.837c5.58,2.23267 10.792,3.915 15.636,5.047v0l-0.113,0.487l-0.457,0.203l-17.101,-38.393l0.76,-0.601v0c38.51533,29.33467 58.06833,45.85167 58.659,49.551c0.38667,2.41933 -10.52733,12.38967 -32.742,29.911c-11.03267,8.70133 -22.10267,17.18133 -33.21,25.44l-0.737,-0.641l18.509,-33.864l0.439,0.24l-0.132,0.482l0.132,-0.482l-0.132,0.482c-5.48667,-1.50267 -11.74,-3.57833 -18.76,-6.227c-14.05467,-5.302 -24.93567,-10.82733 -32.643,-16.576c-7.72867,-5.764 -15.303,-15.54867 -22.723,-29.354c-3.70333,-6.89 -6.638,-13.20833 -8.804,-18.955l-0.217,-0.573l47.63,-7.61z"></path><path id="路径 1" fill-rule="evenodd" style="fill:#FFF5DB" opacity="1" d="M752.632 457.363C752.632 457.363 745.07 445.796 750.764 430.849C756.446 415.892 783.311 402.641 783.311 402.641L775.363 443.912C775.363 443.912 821.524 388.108 821.142 382.701C820.762 377.305 744.654 344.174 744.654 344.174L770.362 372.958C770.362 372.958 740.427 389.163 725.614 406.707C710.801 424.252 705.978 460.652 705.978 460.652L752.632 457.363Z"></path><path  id="路径 1" style="fill:#000000; opacity:1;" d="M752.214,457.637M752.214,457.637c-1.29133,-1.97533 -2.33667,-4.57733 -3.136,-7.806c-1.59733,-6.448 -1.19133,-12.83467 1.218,-19.16c2.404,-6.326 8.597,-12.97267 18.579,-19.94c4.97,-3.46867 9.708,-6.315 14.214,-8.539h0.001l0.902,-0.445l-8.138,42.259l-0.491,-0.094l-0.385,-0.319l0.385,0.319l-0.385,-0.319c7.69067,-9.29733 15.36533,-18.82 23.024,-28.568c15.244,-19.40133 22.79133,-30.164 22.642,-32.288c-0.14467,-2.05333 -12.845,-9.01 -38.101,-20.87c-12.71,-5.96867 -25.406,-11.71367 -38.088,-17.235l0.199,-0.458l0.373,-0.333l26.129,29.255l-0.556,0.301l0.556,-0.301l-0.556,0.301c-4.97533,2.694 -10.56833,6.118 -16.779,10.272c-12.408,8.29933 -21.683,16.08633 -27.825,23.361c-6.12467,7.254 -11.21533,18.374 -15.272,33.36c-2.03267,7.50667 -3.44933,14.28233 -4.25,20.327l-0.496,-0.065l-0.035,-0.499l46.654,-3.289l0.035,0.499zM753.517,457.802l-48.115,3.391l0.08,-0.607c0.80733,-6.08867 2.23267,-12.908 4.276,-20.458c4.096,-15.12867 9.254,-26.37633 15.474,-33.743c6.20267,-7.34667 15.547,-15.19567 28.033,-23.547c6.236,-4.172 11.85567,-7.612 16.859,-10.32l0.238,0.44l-0.238,-0.44l0.238,0.44l-0.373,0.333l-25.708,-28.784l0.573,-0.791c12.69133,5.524 25.396,11.27233 38.114,17.245c25.61,12.02667 38.501,19.26167 38.673,21.705c0.264,3.73733 -15.03367,24.25867 -45.893,61.564v0l-0.876,-0.413l7.948,-41.271l0.491,0.095l0.221,0.448v0c-4.46133,2.20133 -9.15633,5.022 -14.085,8.462c-9.81333,6.84933 -15.88533,13.34133 -18.216,19.476c-2.33533,6.13067 -2.72967,12.31867 -1.183,18.564c0.77267,3.11867 1.77367,5.61833 3.003,7.499z"></path><path id="路径 1" fill-rule="evenodd" style="fill:#FFF5DB" opacity="1" d="M412.071 111.855C412.071 111.855 416.241 98.6796 431.417 93.6271C446.593 88.5604 473.856 100.973 473.856 100.973L436.872 120.94C436.872 120.94 509.293 121.36 513.237 117.643C517.175 113.933 494.656 34.0396 494.656 34.0396L488.641 72.1605C488.641 72.1605 457.149 59.2405 434.19 58.8762C411.231 58.5119 379.998 77.8155 379.998 77.8155L412.071 111.855Z"></path><path  id="路径 1" style="fill:#000000; opacity:1;" d="M411.595,111.704M411.595,111.704c0.712,-2.25 2.06467,-4.706 4.058,-7.368c3.98133,-5.3174 9.18333,-9.04517 15.606,-11.1833c6.41867,-2.14307 15.48433,-1.5551 27.197,1.7639c5.83067,1.6524 11.033,3.51953 15.607,5.6014v0l0.916,0.417l-37.869,20.445l-0.238,-0.44l0.003,-0.5l-0.003,0.5l0.003,-0.5c12.066,0.07 24.29633,-0.01467 36.691,-0.254c24.66867,-0.47733 37.778,-1.44633 39.328,-2.907c1.49867,-1.41133 -1.15333,-15.647 -7.956,-42.707c-3.42333,-13.618 -7.011,-27.08357 -10.763,-40.3967l0.481,-0.1357l0.494,0.078l-6.113,38.7455l-0.585,-0.24l0.585,0.24l-0.585,-0.24c-5.23467,-2.14747 -11.42533,-4.31077 -18.572,-6.4899c-14.27933,-4.3536 -26.17867,-6.60597 -35.698,-6.7571c-9.492,-0.1506 -21.32333,2.9459 -35.494,9.2895c-7.098,3.17787 -13.24067,6.3696 -18.428,9.5752l-0.262,-0.4253l0.363,-0.3429l32.074,34.0394l-0.364,0.343zM412.291,112.818l-33.078,-35.1057l0.522,-0.3221c5.224,-3.229 11.40567,-6.44143 18.545,-9.6373c14.30533,-6.40407 26.278,-9.5296 35.918,-9.3766c9.61333,0.15253 21.60433,2.41933 35.973,6.8004c7.17733,2.1882 13.39733,4.36193 18.66,6.5212l-0.19,0.4626l0.19,-0.4626l-0.19,0.4626l-0.494,-0.0779l6.015,-38.1209l0.975,-0.0577c3.75533,13.32233 7.34567,26.79707 10.771,40.4242c6.89733,27.4392 9.45467,41.9988 7.672,43.6788c-2.72667,2.56933 -28.297,3.71367 -76.711,3.433v0l-0.234,-0.94l36.983,-19.967l0.238,0.44l-0.208,0.455v0c-4.52733,-2.06093 -9.68233,-3.9107 -15.465,-5.5493c-11.514,-3.26293 -20.38333,-3.85533 -26.608,-1.7772c-6.22467,2.0722 -11.26533,5.68337 -15.122,10.8335c-1.92533,2.572 -3.227,4.929 -3.905,7.071z"></path><g opacity="1" transform="translate(169 47)  rotate(0)"><a xlink:href="https://" xlink:title="跳转" target="_blank"><text><tspan x="0" y="27.84" font-size="24" line-height="0" fill="#000000" opacity="1" font-family="SourceHanSansCN-Regular" font-weight="Regular" letter-spacing="0"  >神经网络模型主</tspan><tspan x="0" y="62.592" font-size="24" line-height="0" fill="#000000" opacity="1" font-family="SourceHanSansCN-Regular" font-weight="Regular" letter-spacing="0"  >要可以分为两种</tspan><tspan x="0" y="97.34400000000001" font-size="24" line-height="0" fill="#000000" opacity="1" font-family="SourceHanSansCN-Regular" font-weight="Regular" letter-spacing="0" >基本类型：</tspan></text></a></g><g opacity="1" transform="translate(526 100)  rotate(0)"><a xlink:href="https://" xlink:title="跳转" target="_blank"><text><tspan x="0" y="27.84" font-size="24" line-height="0" fill="#000000" opacity="1" font-family="SourceHanSansCN-Regular" font-weight="Regular" letter-spacing="0"  >前馈神经网络</tspan><tspan x="0" y="62.592" font-size="24" line-height="0" fill="#000000" opacity="1" font-family="SourceHanSansCN-Regular" font-weight="Regular" letter-spacing="0"  >（Feedforward</tspan><tspan x="167.328" y="62.592" font-size="24" line-height="0" fill="#000000" opacity="1" font-family="SourceHanSansCN-Regular" font-weight="Regular" letter-spacing="0"  > </tspan><tspan x="0" y="97.34400000000001" font-size="24" line-height="0" fill="#000000" opacity="1" font-family="SourceHanSansCN-Regular" font-weight="Regular" letter-spacing="0"  >Neural</tspan><tspan x="74.856" y="97.34400000000001" font-size="24" line-height="0" fill="#000000" opacity="1" font-family="SourceHanSansCN-Regular" font-weight="Regular" letter-spacing="0" > Network）</tspan></text></a></g><g opacity="1" transform="translate(479 468)  rotate(0)"><a xlink:href="https://" xlink:title="跳转" target="_blank"><text><tspan x="0" y="27.84" font-size="24" line-height="0" fill="#000000" opacity="1" font-family="SourceHanSansCN-Regular" font-weight="Regular" letter-spacing="0"  >神经元不但可以接收其他</tspan><tspan x="0" y="62.592" font-size="24" line-height="0" fill="#000000" opacity="1" font-family="SourceHanSansCN-Regular" font-weight="Regular" letter-spacing="0"  >神经元的信号，而且可以</tspan><tspan x="0" y="97.34400000000001" font-size="24" line-height="0" fill="#000000" opacity="1" font-family="SourceHanSansCN-Regular" font-weight="Regular" letter-spacing="0" >接收自己的反馈信号。</tspan></text></a></g><g opacity="1"  transform="translate(0 26)  rotate(0)"><g opacity="1" transform="translate(62 4)  rotate(0)"><path id="文本 1"  style="fill:#2BA1CC" opacity="1" d="M2.952 41.76L18.972 41.76L18.972 37.44L13.968 37.44L13.968 15.084L10.044 15.084C8.352 16.164 6.552 16.848 3.852 17.316L3.852 20.628L8.712 20.628L8.712 37.44L2.952 37.44L2.952 41.76ZM9.18 94.392C14.472 94.392 19.404 90.036 19.404 79.956C19.404 70.704 14.904 66.744 9.828 66.744C5.256 66.744 1.44 70.164 1.44 75.636C1.44 81.288 4.608 84.024 9.072 84.024C10.872 84.024 13.14 82.944 14.544 81.144C14.292 87.804 11.844 90.072 8.892 90.072C7.308 90.072 5.652 89.244 4.68 88.164L1.872 91.368C3.456 92.988 5.868 94.392 9.18 94.392ZM14.472 77.364C13.176 79.452 11.52 80.244 10.08 80.244C7.776 80.244 6.3 78.768 6.3 75.636C6.3 72.36 7.92 70.74 9.9 70.74C12.168 70.74 14.004 72.54 14.472 77.364ZM12.132 146.016L17.064 146.016L17.064 139.104L20.232 139.104L20.232 135.072L17.064 135.072L17.064 119.34L10.692 119.34L0.756 135.504L0.756 139.104L12.132 139.104L12.132 146.016ZM12.132 135.072L5.904 135.072L10.044 128.448C10.8 127.008 11.52 125.532 12.168 124.092L12.348 124.092C12.24 125.676 12.132 128.088 12.132 129.636L12.132 135.072ZM9.828 198.648C14.94 198.648 19.224 195.84 19.224 190.944C19.224 187.416 16.92 185.184 13.932 184.356L13.932 184.176C16.74 183.06 18.36 180.972 18.36 178.092C18.36 173.52 14.868 171 9.72 171C6.588 171 4.032 172.26 1.728 174.24L4.464 177.516C6.012 176.04 7.56 175.176 9.468 175.176C11.736 175.176 13.032 176.4 13.032 178.488C13.032 180.9 11.448 182.556 6.588 182.556L6.588 186.372C12.348 186.372 13.896 187.992 13.896 190.62C13.896 192.996 12.06 194.328 9.36 194.328C6.912 194.328 5.004 193.14 3.42 191.592L0.936 194.94C2.808 197.064 5.652 198.648 9.828 198.648Z"></path><path  id="文本 1" style="fill:#FFFFFF; opacity:1;" d="M3.712,32.44v-6.812h-4.86v-12.5199l4.14607,-0.7186c1.80687,-0.3132 3.25879,-0.8199 4.35575,-1.5201l1.23044,-0.7854h10.38374v22.356h5.004v14.32h-26.02v-14.32zM8.712,36.76v0.68h-5.76v4.32h16.02v-4.32h-5.004v-22.356h-3.924c-0.30351,0.1937 -0.61049,0.3747 -0.92552,0.544c-0.04995,0.0268 -0.10011,0.0534 -0.15048,0.0796c-1.40303,0.7314 -2.97712,1.2377 -5.116,1.6084v3.312h4.86zM-4.93929,91.5538l5.16318,-5.8913c-0.0772,-0.07547 -0.15363,-0.15217 -0.22928,-0.2301c-2.36974,-2.44087 -3.55461,-5.70633 -3.55461,-9.7964c0,-4.03647 1.30948,-7.37577 3.92843,-10.0179c2.56006,-2.58273 5.71325,-3.8741 9.45957,-3.8741c4.07147,0 7.4292,1.46737 10.0732,4.4021l0.2248,-0.2882l-0.0197,0.5203c0.09427,0.10893 0.18763,0.2198 0.2801,0.3326c2.6784,3.26753 4.0176,7.6826 4.0176,13.2452c0,5.92347 -1.41187,10.63577 -4.2356,14.1369c-2.84913,3.53273 -6.51193,5.2991 -10.9884,5.2991c-4.30349,0 -7.93117,-1.50947 -10.88303,-4.5284zM3.06146,92.4104c0.88165,0.659 1.93439,1.2202 3.16477,1.5754c0.89067,0.2571 1.87443,0.4062 2.95377,0.4062c5.292,0 10.224,-4.356 10.224,-14.436c0,-0.3496 -0.0064,-0.6916 -0.0191,-1.0262c-0.147,-3.8916 -1.1347,-6.7706 -2.6299,-8.7501c-1.7781,-2.3538 -4.2739,-3.4357 -6.927,-3.4357c-4.572,0 -8.388,3.42 -8.388,8.892c0,2.7879 0.77076,4.8663 2.08763,6.2568c1.04507,1.1035 2.43406,1.7739 4.05472,2.0218c0.4774,0.073 0.97491,0.1094 1.48965,0.1094c0.03321,0 0.06659,-0.0004 0.10011,-0.0011c1.71119,-0.0374 3.81589,-1.0271 5.20089,-2.6682c0.0583,-0.0691 0.1153,-0.1393 0.171,-0.2107c-0.0454,1.2011 -0.1623,2.2593 -0.3407,3.1872c-0.376,1.956 -1.0253,3.3325 -1.8549,4.2464c-0.959,1.0563 -2.159,1.4944 -3.4564,1.4944c-1.15566,0 -2.34966,-0.4407 -3.28837,-1.0985c-0.22785,-0.1597 -0.44066,-0.3321 -0.63423,-0.5142c-0.02089,-0.0196 -0.04156,-0.0394 -0.062,-0.0592c-0.07936,-0.0772 -0.15527,-0.156 -0.2274,-0.2361l-0.13881,0.1584l-2.66919,3.0456c0.3547,0.3628 0.75091,0.7147 1.18946,1.0424zM10.08,80.244c-2.304,0 -3.78,-1.476 -3.78,-4.608c0,-3.276 1.62,-4.896 3.6,-4.896c1.6331,0 3.0421,0.9332 3.8778,3.2566c0.3249,0.9034 0.5632,2.0169 0.6942,3.3674c-0.0577,0.0929 -0.1161,0.1833 -0.1751,0.2711c-1.2679,1.8858 -2.841,2.6089 -4.2169,2.6089zM-4.244,144.104v-10.014l12.14039,-19.75h14.16761v15.732h3.168v14.032h-3.168v6.912h-14.932v-6.912zM12.132,140.072v5.944h4.932v-6.912h3.168v-4.032h-3.168v-15.732h-6.372l-2.73694,4.452l-0.66709,1.086l-0.82056,1.335l-0.16621,0.27l-4.68462,7.621l-0.86058,1.4v3.6h11.376zM5.904,135.072l0.605,-0.968l0.623,-0.997l1.897,-3.035l1.015,-1.624c0.7127,-1.357 1.3933,-2.747 2.0119,-4.108c0.0027,-0.006 0.0054,-0.012 0.0081,-0.018c0.0349,-0.077 0.0695,-0.153 0.104,-0.23h0.18c-0.0018,0.026 -0.0035,0.052 -0.0053,0.079c-0.0037,0.055 -0.0075,0.112 -0.0112,0.169c-0.0398,0.615 -0.0788,1.331 -0.1117,2.062c-0.0199,0.446 -0.0376,0.897 -0.0518,1.334c-0.0224,0.692 -0.036,1.35 -0.036,1.9v5.436h-0.068zM-5.4905,195.21l7.0785,-9.54v-3.797l-6.85786,-8.212l3.73903,-3.213c3.45049,-2.96533 7.20076,-4.448 11.25083,-4.448c3.78633,0 6.90483,0.97067 9.3555,2.912c2.85633,2.26333 4.2845,5.32333 4.2845,9.18c0,2.14333 -0.4387,4.01467 -1.3161,5.614c1.4534,1.89 2.1801,4.30267 2.1801,7.238c0,4.01 -1.57817,7.22767 -4.7345,9.653c-2.64727,2.034 -5.86777,3.051 -9.6615,3.051c-5.25464,0 -9.46899,-1.80067 -12.64304,-5.402zM17.8376,180.698c0.0283,-0.064 0.0554,-0.129 0.0815,-0.194c0.2898,-0.727 0.4409,-1.533 0.4409,-2.412c0,-2.327 -0.9046,-4.122 -2.4718,-5.325c-1.5118,-1.159 -3.6404,-1.767 -6.1682,-1.767c-1.31382,0 -2.52628,0.222 -3.6613,0.625c-1.41128,0.502 -2.70282,1.285 -3.92062,2.273c-0.13761,0.111 -0.27428,0.225 -0.41008,0.342l2.736,3.276c0.01456,-0.014 0.02911,-0.028 0.04367,-0.041c0.41318,-0.391 0.8266,-0.738 1.2471,-1.037c1.14017,-0.81 2.33243,-1.262 3.71323,-1.262c1.446,0 2.4969,0.498 3.0687,1.399c0.3251,0.513 0.4953,1.156 0.4953,1.913c0,0.157 -0.0067,0.311 -0.0206,0.462c-0.1105,1.194 -0.6741,2.171 -1.9247,2.805c-0.5688,0.288 -1.27969,0.506 -2.1547,0.641c-0.67906,0.105 -1.45696,0.16 -2.344,0.16v3.816c0.87553,0 1.65375,0.037 2.344,0.11c1.01919,0.107 1.8466,0.292 2.5124,0.546c1.5594,0.596 2.2319,1.575 2.4046,2.85c0.0322,0.237 0.047,0.485 0.047,0.742c0,1.006 -0.3289,1.824 -0.913,2.434c-0.796,0.831 -2.0658,1.274 -3.623,1.274c-1.24982,0 -2.35888,-0.31 -3.35593,-0.819c-0.69847,-0.356 -1.34198,-0.811 -1.9404,-1.326c-0.22051,-0.189 -0.43491,-0.387 -0.64367,-0.591l-2.484,3.348c0.93077,1.056 2.10182,1.979 3.55742,2.639c0.17613,0.08 0.35643,0.156 0.54097,0.229c1.35771,0.53 2.94518,0.84 4.79361,0.84c2.6598,0 5.0955,-0.76 6.8202,-2.179c1.59,-1.308 2.5758,-3.176 2.5758,-5.525c0,-1.079 -0.2156,-2.037 -0.6003,-2.87c-0.0856,-0.186 -0.1797,-0.365 -0.2816,-0.539c-0.6541,-1.111 -1.6328,-1.968 -2.8005,-2.56c-0.4808,-0.244 -0.9936,-0.443 -1.529,-0.596c-0.0268,-0.008 -0.0537,-0.016 -0.0806,-0.023v-0.18c0.0188,-0.007 0.0375,-0.015 0.0561,-0.022c0.526,-0.213 1.0097,-0.46 1.4482,-0.741c1.0992,-0.702 1.9148,-1.614 2.4013,-2.715z"></path></g><g opacity="1" transform="translate(0 0)  rotate(0)"><path id="文本 1"  style="fill:#2BA1CC" opacity="1" d="M18.9 27.432L22.14 27.432L22.14 30.96L18.9 30.96L18.9 27.432ZM18.9 23.652L18.9 20.196L22.14 20.196L22.14 23.652L18.9 23.652ZM29.628 27.432L29.628 30.96L26.352 30.96L26.352 27.432L29.628 27.432ZM29.628 23.652L26.352 23.652L26.352 20.196L29.628 20.196L29.628 23.652ZM22.14 11.16L22.14 16.344L14.976 16.344L14.976 36.432L18.9 36.432L18.9 34.776L22.14 34.776L22.14 44.928L26.352 44.928L26.352 34.776L29.628 34.776L29.628 36.072L33.696 36.072L33.696 16.344L26.352 16.344L26.352 11.16L22.14 11.16ZM4.824 12.96C5.76 14.22 6.804 15.912 7.452 17.208L1.512 17.208L1.512 21.096L9.288 21.096C7.2 24.912 3.96 28.44 0.612 30.42C1.116 31.284 1.908 33.624 2.124 34.884C3.42 34.02 4.68 32.94 5.94 31.716L5.94 44.964L9.864 44.964L9.864 30.852C10.836 32.112 11.772 33.444 12.384 34.38L14.868 30.78C14.22 30.096 11.772 27.576 10.368 26.316C11.952 23.94 13.32 21.348 14.256 18.684L12.168 17.064L11.448 17.208L8.748 17.208L11.268 15.696C10.584 14.436 9.324 12.528 8.208 11.124L4.824 12.96ZM1.08 91.152L1.908 95.436C5.328 94.5 9.756 93.276 13.896 92.088L13.392 88.344C8.856 89.424 4.176 90.54 1.08 91.152ZM2.052 79.02C2.664 78.732 3.564 78.48 6.84 78.084C5.616 79.704 4.536 80.928 3.96 81.504C2.736 82.764 1.908 83.52 0.9 83.772C1.404 84.924 2.088 86.94 2.304 87.804C3.276 87.228 4.824 86.796 13.752 85.068C13.68 84.132 13.716 82.44 13.896 81.288L8.496 82.188C10.98 79.416 13.428 76.212 15.408 73.008L11.7 70.56C11.052 71.82 10.296 73.044 9.54 74.232L6.12 74.52C8.136 71.712 10.08 68.292 11.484 65.052L7.416 63.144C6.12 67.32 3.636 71.748 2.808 72.864C2.052 74.052 1.404 74.808 0.648 75.024C1.152 76.104 1.836 78.192 2.052 79.02ZM15.228 65.088L15.228 68.976L26.568 68.976C23.436 72.9 18.216 75.996 12.852 77.58C13.68 78.48 14.868 80.172 15.408 81.288C18.54 80.172 21.6 78.696 24.336 76.824C27.432 78.3 30.96 80.136 32.76 81.432L35.316 77.94C33.552 76.824 30.492 75.348 27.684 74.124C30.024 71.964 31.932 69.444 33.264 66.492L30.168 64.908L29.412 65.088L15.228 65.088ZM15.552 81.756L15.552 85.68L22.068 85.68L22.068 92.304L13.392 92.304L13.392 96.3L34.884 96.3L34.884 92.304L26.388 92.304L26.388 85.68L33.048 85.68L33.048 81.756L15.552 81.756ZM11.484 133.74C10.44 136.944 9 139.752 7.092 141.876L7.092 128.448C8.532 130.068 10.044 131.904 11.484 133.74ZM2.772 117.432L2.772 149.184L7.092 149.184L7.092 143.172C7.992 143.748 9.108 144.54 9.612 144.972C11.484 142.884 12.996 140.292 14.22 137.304C15.012 138.42 15.732 139.428 16.272 140.328L18.864 137.304C18.036 136.08 16.92 134.568 15.624 132.984C16.452 130.068 17.028 126.9 17.46 123.48L13.644 123.048C13.392 125.244 13.068 127.368 12.636 129.348C11.484 128.016 10.296 126.684 9.18 125.496L7.092 127.728L7.092 121.5L28.98 121.5L28.98 143.964C28.98 144.648 28.692 144.9 27.972 144.936C27.216 144.936 24.552 144.972 22.284 144.792C22.932 145.944 23.688 147.96 23.904 149.148C27.36 149.184 29.628 149.076 31.212 148.356C32.76 147.672 33.3 146.448 33.3 144.036L33.3 117.432L2.772 117.432ZM16.92 128.052C18.432 129.708 20.016 131.616 21.42 133.56C20.196 137.448 18.396 140.688 15.912 142.992C16.848 143.496 18.54 144.72 19.26 145.296C21.24 143.208 22.824 140.544 24.048 137.448C24.912 138.816 25.596 140.112 26.1 141.228L28.944 138.492C28.188 136.872 27 134.928 25.56 132.948C26.352 130.068 26.928 126.9 27.36 123.516L23.508 123.12C23.292 125.208 22.968 127.188 22.572 129.096C21.6 127.872 20.556 126.72 19.512 125.676L16.92 128.052ZM1.116 195.732L2.088 200.016C5.616 198.648 10.044 196.992 14.184 195.372L13.392 191.7C8.892 193.248 4.176 194.868 1.116 195.732ZM19.98 167.076C18.576 170.784 16.092 174.348 13.392 176.688L11.052 175.212C10.476 176.328 9.864 177.444 9.18 178.524L6.192 178.776C8.244 176.004 10.26 172.656 11.664 169.488L7.524 167.508C6.192 171.612 3.672 176.004 2.844 177.084C2.052 178.236 1.404 178.956 0.612 179.172C1.152 180.324 1.836 182.412 2.052 183.276C2.628 182.988 3.528 182.736 6.624 182.376C5.436 184.032 4.392 185.328 3.852 185.868C2.7 187.128 1.908 187.884 0.972 188.1C1.44 189.216 2.124 191.232 2.34 192.06C3.276 191.448 4.788 190.98 13.5 188.928C13.392 188.136 13.392 186.732 13.464 185.616C13.86 186.588 14.256 187.704 14.436 188.46L16.02 187.956L16.02 201.096L19.98 201.096L19.98 199.188L28.044 199.188L28.044 200.988L32.22 200.988L32.22 187.848L33.48 188.244C33.732 187.092 34.344 185.22 34.956 184.14C32.148 183.564 29.556 182.592 27.324 181.332C29.988 178.848 32.184 175.824 33.588 172.296L31.104 170.748L30.384 170.856L22.644 170.856C23.076 169.992 23.472 169.092 23.832 168.192L19.98 167.076ZM8.568 186.156C10.548 183.78 12.492 181.152 14.148 178.488C14.688 179.28 15.228 180.072 15.48 180.576C16.38 179.82 17.244 178.92 18.072 177.948C18.864 179.1 19.8 180.18 20.844 181.224C18.432 182.592 15.696 183.672 12.852 184.392L13.284 185.184L8.568 186.156ZM19.98 195.408L19.98 191.16L28.044 191.16L28.044 195.408L19.98 195.408ZM17.46 187.416C19.8 186.48 22.032 185.328 24.12 183.888C26.136 185.292 28.44 186.48 30.924 187.416L17.46 187.416ZM27.9 174.744C26.856 176.328 25.524 177.768 24.012 179.028C22.572 177.768 21.348 176.328 20.448 174.744L27.9 174.744ZM18.432 235.728L28.332 235.728L28.332 237.312L18.432 237.312L18.432 235.728ZM18.432 231.372L28.332 231.372L28.332 232.92L18.432 232.92L18.432 231.372ZM25.92 219.672L25.92 222.156L21.744 222.156L21.744 219.672L17.64 219.672L17.64 222.156L13.428 222.156L13.428 225.684L17.64 225.684L17.64 227.736L21.744 227.736L21.744 225.684L25.92 225.684L25.92 227.736L30.096 227.736L30.096 225.684L34.164 225.684L34.164 222.156L30.096 222.156L30.096 219.672L25.92 219.672ZM14.436 228.384L14.436 240.3L21.348 240.3C21.276 241.02 21.168 241.74 21.06 242.388L12.78 242.388L12.78 245.952L19.656 245.952C18.324 247.824 15.912 249.156 11.412 250.056C12.24 250.884 13.248 252.468 13.608 253.512C19.548 252.072 22.5 249.84 24.012 246.708C25.812 250.02 28.548 252.324 32.616 253.44C33.192 252.36 34.38 250.704 35.28 249.876C32.04 249.228 29.628 247.896 28.008 245.952L34.308 245.952L34.308 242.388L25.308 242.388L25.56 240.3L32.508 240.3L32.508 228.384L14.436 228.384ZM5.436 219.672L5.436 226.404L1.512 226.404L1.512 230.4L5.436 230.4L5.436 231.3C4.428 235.404 2.664 240.048 0.648 242.64C1.368 243.792 2.304 245.772 2.736 246.996C3.708 245.484 4.644 243.432 5.436 241.128L5.436 253.476L9.504 253.476L9.504 237.132C10.26 238.644 10.944 240.192 11.34 241.272L13.896 238.248C13.284 237.204 10.548 233.028 9.504 231.66L9.504 230.4L12.78 230.4L12.78 226.404L9.504 226.404L9.504 219.672L5.436 219.672ZM21.996 273.888L21.996 286.128L25.956 286.128L25.956 273.888L21.996 273.888ZM28.584 272.232L28.584 287.604C28.584 288.072 28.44 288.18 27.9 288.18C27.396 288.252 25.632 288.252 23.976 288.18C24.516 289.224 25.092 290.88 25.272 291.96C27.792 291.96 29.664 291.888 30.996 291.312C32.328 290.664 32.688 289.656 32.688 287.676L32.688 272.232L28.584 272.232ZM13.104 276.876L13.104 280.656L10.044 280.656L10.044 276.876L13.104 276.876ZM5.328 293.652L5.328 297.576L15.768 297.576L15.768 300.456L1.656 300.456L1.656 304.452L34.236 304.452L34.236 300.456L20.196 300.456L20.196 297.576L30.636 297.576L30.636 293.652L20.196 293.652L20.196 290.808L17.136 290.808L17.136 284.472L20.484 284.472L20.484 280.656L17.136 280.656L17.136 276.876L19.692 276.876L19.692 273.096L3.24 273.096L3.24 276.876L6.084 276.876L6.084 280.656L2.016 280.656L2.016 284.472L5.652 284.472C5.112 286.272 3.888 288 1.26 289.368C2.016 289.98 3.492 291.564 4.068 292.392C7.668 290.412 9.18 287.46 9.756 284.472L13.104 284.472L13.104 291.42L15.768 291.42L15.768 293.652L5.328 293.652Z"></path><path  id="文本 1" style="fill:#FFFFFF; opacity:1;" d="M11.3393,8.63502c0.9802,1.23319 1.85017,2.46951 2.6099,3.70898h4.1908v-5.184h12.212v5.184h7.344v27.728h-7.344v8.856h-12.212v-8.496h-4.276v8.532h-11.924v-9.1499l-2.71851,1.8123l-1.03998,-6.0665c-0.22139,-1.29147 -0.56293,-2.33293 -1.02463,-3.1244l-2.00343,-3.4345l3.42239,-2.024c0.91096,-0.53873 1.77319,-1.16573 2.58668,-1.881h-3.65052v-3.888h-3.20528l3.20528,-1.9232v-6.0768h2.51332l-1.16231,-1.5647l10.38771,-5.63583zM6.8161,16.0278c0.05926,0.1035 0.11725,0.2063 0.17377,0.3079c0.14605,0.2626 0.28231,0.5178 0.40565,0.7603c0.01914,0.0376 0.03797,0.075 0.05648,0.112h-5.94v3.888h7.776c-0.02044,0.0374 -0.041,0.0747 -0.06166,0.112c-0.23932,0.4321 -0.49333,0.8603 -0.7605,1.2828c-0.56921,0.9002 -1.19816,1.7745 -1.87212,2.6052c-0.23785,0.2932 -0.4813,0.5809 -0.72972,0.8624c-0.08431,0.0955 -0.16919,0.1903 -0.25462,0.2844c-1.53805,1.6938 -3.25306,3.1456 -4.99738,4.1772c0.07251,0.1243 0.15098,0.2792 0.23284,0.4569c0.37694,0.8187 0.82574,2.1239 1.09516,3.1722c0.07875,0.3064 0.14217,0.5909 0.184,0.8349c1.17427,-0.7829 2.31899,-1.743 3.46094,-2.827c0.09303,-0.0883 0.18605,-0.1774 0.27906,-0.2674c0.02533,-0.0244 0.05067,-0.049 0.076,-0.0736v13.248h3.924v-14.112c0.01663,0.0216 0.03325,0.0431 0.04986,0.0647c0.00872,0.0114 0.01743,0.0227 0.02614,0.0341c0.3559,0.4636 0.706,0.9353 1.036,1.3919c0.1477,0.2044 0.2914,0.4058 0.4298,0.6021c0.3729,0.5289 0.7073,1.0209 0.9782,1.4352l1.48,-2.1449l0.9586,-1.3893l0.0454,-0.0658c-0.0863,-0.0911 -0.2045,-0.2147 -0.3478,-0.3635c-0.7905,-0.8207 -2.3469,-2.4086 -3.5442,-3.539c-0.1328,-0.1254 -0.2611,-0.2451 -0.3835,-0.3576c-0.0774,-0.071 -0.1523,-0.1391 -0.2245,-0.2039c0.1623,-0.2435 0.3224,-0.4893 0.48,-0.7372c0.0429,-0.0674 0.0855,-0.135 0.128,-0.2027c0.8389,-1.3376 1.6039,-2.735 2.2588,-4.1681c0.1111,-0.2429 0.2189,-0.4869 0.3234,-0.7318c0.253,-0.5926 0.4864,-1.1906 0.6978,-1.7922l-0.0843,-0.0654l-1.9625,-1.5226l-0.0412,-0.032l-0.16,0.032l-0.1271,0.0254l-0.4329,0.0866h-2.7l0.18666,-0.112l2.04134,-1.2248l0.1827,-0.1096l0.0325,-0.0195l0.0768,-0.0461c-0.0594,-0.1095 -0.1232,-0.2239 -0.1909,-0.3424c-0.0328,-0.0575 -0.0665,-0.1159 -0.1011,-0.1752c-0.1643,-0.282 -0.348,-0.5839 -0.5453,-0.8966c-0.0623,-0.0988 -0.126,-0.1987 -0.1908,-0.2994c-0.1641,-0.2547 -0.33577,-0.5144 -0.51197,-0.7744c-0.20081,-0.2964 -0.40756,-0.5931 -0.61586,-0.8832c-0.30254,-0.4214 -0.60836,-0.8288 -0.90407,-1.2008l-3.384,1.836c0.06014,0.081 0.12073,0.1637 0.18162,0.248c0.06958,0.0963 0.13956,0.1947 0.20976,0.2948c0.18589,0.265 0.37323,0.542 0.55834,0.825c0.36574,0.5591 0.72272,1.1414 1.04238,1.7zM14.976,32.6852v3.7468h3.924v-1.656h3.24v10.152h4.212v-10.152h3.276v1.296h4.068v-19.728h-7.344v-5.184h-4.212v5.184h-7.164zM18.9,30.96v-3.528h3.24v3.528h-3.164zM18.9,23.652v-3.456h3.24v3.456h-3.164zM26.352,27.432h3.276v3.528h-3.276v-0.184zM29.628,23.652h-3.276v-3.456h3.276v0.148zM1.89149,83.3382c-0.32479,0.2033 -0.64767,0.3479 -0.99149,0.4338c0.02471,0.0565 0.04985,0.115 0.07535,0.1754c0.0095,0.0225 0.01904,0.0453 0.02863,0.0683c0.04918,0.1179 0.09955,0.2421 0.15059,0.3711c0.30681,0.7755 0.6376,1.7218 0.87687,2.4797c0.04818,0.1527 0.09265,0.2976 0.13246,0.432c0.026,0.0878 0.05001,0.171 0.07178,0.2489c0.02617,0.0937 0.04909,0.1797 0.06831,0.2566c0.55153,-0.3268 1.2885,-0.6073 3.45392,-1.1045c0.11925,-0.0274 0.24283,-0.0554 0.37095,-0.0841c1.283,-0.2878 3.02122,-0.6459 5.42313,-1.1184c0.4205,-0.0827 0.8614,-0.169 1.3237,-0.2589c0.2839,-0.0553 0.5759,-0.112 0.8763,-0.1701c-0.0197,-0.2566 -0.0314,-0.5699 -0.0341,-0.9134c-0.0051,-0.625 0.0192,-1.3497 0.0773,-2.0133c0.0265,-0.3022 0.0599,-0.5917 0.1008,-0.8533l-0.8482,0.1414l-1.4958,0.2493l-0.4777,0.0796l-1.29064,0.2151l-1.0476,0.1746l-0.24006,0.04c0.05039,-0.0562 0.10076,-0.1126 0.15112,-0.1692c0.46239,-0.5196 0.92323,-1.0539 1.37968,-1.6c0.2635,-0.3152 0.5255,-0.6343 0.7855,-0.9569c0.2485,-0.3083 0.4952,-0.6198 0.7397,-0.9339c0.1989,-0.2557 0.3964,-0.5131 0.592,-0.772c0.0665,-0.0879 0.1327,-0.176 0.1987,-0.2643c0.2862,-0.3825 0.5683,-0.7681 0.8457,-1.156c0.0745,-0.1042 0.1487,-0.2086 0.2225,-0.3131c0.0373,-0.0528 0.0745,-0.1057 0.1116,-0.1586c0.6597,-0.9404 1.2895,-1.8921 1.878,-2.8439c0.0025,-0.004 0.005,-0.0081 0.0075,-0.0121l-0.0485,-0.032l-0.3046,-0.2011l-0.1982,-0.1309l-1.9983,-1.3192l-1.1584,-0.7648c-0.1519,0.2953 -0.3097,0.5886 -0.472,0.8799c-0.4249,0.7625 -0.8809,1.5115 -1.34304,2.2469c-0.06939,0.1104 -0.13892,0.2205 -0.20851,0.3304c-0.04547,0.0717 -0.09096,0.1433 -0.13645,0.2148l-2.97448,0.2505l-0.44552,0.0375c0.09795,-0.1364 0.19573,-0.2743 0.29329,-0.4135c0.29628,-0.4229 0.5905,-0.8582 0.88115,-1.3035c0.53143,-0.8141 1.05092,-1.6615 1.54931,-2.5265c0.19672,-0.3415 0.39014,-0.6857 0.57971,-1.0316c0.10773,-0.1967 0.21421,-0.3939 0.31934,-0.5914c0.1885,-0.3543 0.3727,-0.7099 0.5519,-1.0658c0.3289,-0.6532 0.6413,-1.3073 0.9333,-1.9562c0.0204,-0.0453 0.0407,-0.0907 0.0609,-0.136c0.0662,-0.1481 0.1312,-0.296 0.1951,-0.4435l-0.256,-0.1201l-0.1585,-0.0743l-3.6535,-1.7136c-0.39116,1.2604 -0.89055,2.5438 -1.41996,3.7521c-0.25318,0.5779 -0.51323,1.1386 -0.77159,1.6714c-0.99134,2.0444 -1.95787,3.6784 -2.41645,4.2965c-0.57577,0.9048 -1.08889,1.559 -1.63479,1.9149c-0.08947,0.0583 -0.17981,0.1087 -0.27146,0.1508c-0.0834,0.0383 -0.16788,0.0698 -0.25375,0.0943c0.02367,0.0507 0.04774,0.1037 0.07214,0.1586c0.0076,0.0171 0.01523,0.0344 0.02289,0.0519c0.33651,0.7682 0.73086,1.8949 1.01114,2.7785c0.09354,0.2948 0.17438,0.5626 0.23612,0.7809c0.00836,0.0296 0.01638,0.0583 0.02403,0.086c0.01378,0.0499 0.02637,0.0968 0.03768,0.1401c0.13067,-0.0615 0.27448,-0.1213 0.45174,-0.1813c0.37691,-0.1275 0.90508,-0.2555 1.77992,-0.4009c0.62456,-0.1037 1.4258,-0.2163 2.47482,-0.3439c0.02701,-0.0033 0.05418,-0.0066 0.08152,-0.0099c-0.10719,0.1419 -0.21327,0.2807 -0.318,0.4163c-1.09129,1.4131 -2.03644,2.4781 -2.562,3.0037c-0.56264,0.5792 -1.04161,1.0519 -1.49285,1.4181c-0.19557,0.1587 -0.38594,0.2974 -0.57566,0.4161zM-2.18841,79.2338l0.10476,-0.1459c-0.26577,-0.87527 -0.56347,-1.66607 -0.89308,-2.3724l-1.98304,-4.2493l3.97585,-1.136c0.11298,-0.14953 0.25207,-0.3541 0.41727,-0.6137l0.07691,-0.1209l0.08535,-0.115c1.55325,-2.09347 2.88662,-4.9342 4.00013,-8.5222l1.36115,-4.3859l7.49531,3.5155h16.4902l1.7342,-0.4129l7.7998,3.9906l-1.5664,3.4715c-0.736,1.6311 -1.6402,3.1767 -2.6849,4.6223c1.27987,0.64773 2.35637,1.2478 3.2295,1.8002l3.6175,2.2886l-4.0241,5.4977v5.958h1.836v11.996h-29.492v-2.7909l-6.4281,1.785l-4.16398,1.1399l-1.64724,-8.5229l-0.75585,-3.9108l1.70934,-0.3378c-0.23368,-0.732 -0.52395,-1.4944 -0.8708,-2.2872l-1.89699,-4.336l2.91633,-0.7291l-0.07318,-0.2805c-0.07221,-0.2768 -0.14721,-0.54617 -0.22502,-0.8081zM29.412,65.088h-14.184v3.888h11.34c-0.0299,0.0374 -0.0599,0.0747 -0.0901,0.112c-1.1496,1.4165 -2.571,2.7233 -4.1717,3.888c-1.1022,0.802 -2.2895,1.5366 -3.5316,2.1931c-0.6296,0.3328 -1.2733,0.6455 -1.9271,0.9368c-0.9292,0.414 -1.8788,0.7846 -2.8376,1.108c-0.3847,0.1297 -0.7709,0.2518 -1.1579,0.3661c0.0513,0.0557 0.1039,0.1145 0.1577,0.176c0.6462,0.7384 1.4569,1.8682 2.0175,2.8263c0.0873,0.1491 0.1685,0.2941 0.2421,0.4328c0.0499,0.0941 0.0963,0.1853 0.1387,0.2729c0.909,-0.3239 1.812,-0.6781 2.7027,-1.0636c1.6498,-0.7139 3.2576,-1.5348 4.7844,-2.4684c0.4259,-0.2604 0.8454,-0.5296 1.2579,-0.8077c0.0611,-0.0412 0.1221,-0.0827 0.183,-0.1243c0.626,0.2984 1.2696,0.6116 1.913,0.932c0.5711,0.2844 1.1421,0.5745 1.7004,0.8652c1.9238,1.0015 3.6976,2.0094 4.8106,2.8108l0.1868,-0.2552l2.3692,-3.2368c-0.0953,-0.0603 -0.1945,-0.1217 -0.2971,-0.184c-0.8759,-0.5317 -2.0095,-1.1329 -3.249,-1.7436c-0.0653,-0.0321 -0.1308,-0.0643 -0.1966,-0.0964c-0.5454,-0.2668 -1.1096,-0.5348 -1.6798,-0.7991c-0.7354,-0.3408 -1.4809,-0.6753 -2.2095,-0.9929c0.029,-0.0268 0.058,-0.0536 0.0869,-0.0805c1.0094,-0.94 1.9373,-1.9477 2.7721,-3.029c0.2608,-0.3379 0.5125,-0.6829 0.7548,-1.0353c0.342,-0.4976 0.6653,-1.0099 0.9686,-1.5374c0.1196,-0.2079 0.2361,-0.4182 0.3495,-0.6309c0.2291,-0.4298 0.4453,-0.8693 0.6481,-1.3189l-2.9631,-1.516l-0.1329,-0.068l-0.2713,0.0646l-0.0143,0.0034l-0.3635,0.0865zM17.8714,81.756h-2.3194v3.924h6.516v6.624h-8.676v3.996h21.492v-3.996h-8.496v-6.624h6.66v-3.924zM9.392,93.3647c1.4985,-0.4203 3.0198,-0.8508 4.504,-1.2767l-0.3242,-2.408l-0.0658,-0.4893l-0.114,-0.8467c-0.1753,0.0417 -0.3508,0.0835 -0.5264,0.1253c-0.4376,0.1042 -0.876,0.2086 -1.3136,0.3126c-0.6945,0.165 -1.3869,0.3293 -2.07108,0.4907c-0.02966,0.007 -0.0593,0.014 -0.08892,0.0209c-0.68052,0.1605 -1.35259,0.3182 -2.01011,0.471c-2.39047,0.5559 -4.58869,1.0488 -6.30189,1.3875l0.06651,0.3441l0.28499,1.4745l0.4765,2.4654c1.1862,-0.3246 2.49366,-0.6839 3.86831,-1.0644c0.94556,-0.2616 1.92292,-0.5333 2.91446,-0.8106c0.23303,-0.0651 0.46685,-0.1306 0.70123,-0.1963zM37.3,144.036c0,4.002 -1.4776,6.65567 -4.4328,7.961c-1.7838,0.81133 -4.78543,1.195 -9.0049,1.151l-3.3029,-0.035l-0.5148,-2.831l-0.4122,0.434l-2.8712,-2.297c-1.08887,-0.87067 -2.00407,-1.50567 -2.7456,-1.905l-0.3338,-0.18c-0.3534,0.45467 -0.71723,0.89067 -1.0915,1.308l-1.4983,1.671v3.871h-12.32v-39.752h38.528zM23.8505,148.885c0.0203,0.091 0.0383,0.179 0.0535,0.263c3.456,0.036 5.724,-0.072 7.308,-0.792c1.548,-0.684 2.088,-1.908 2.088,-4.32v-26.604h-30.528v31.752h4.32v-6.012c0.9,0.576 2.016,1.368 2.52,1.8c0.16568,-0.185 0.32854,-0.374 0.4886,-0.566c0.0293,-0.035 0.0585,-0.071 0.0876,-0.106c0.2973,-0.363 0.5849,-0.739 0.8632,-1.128c0.3267,-0.457 0.6406,-0.931 0.9421,-1.423c0.0704,-0.115 0.1401,-0.23 0.2091,-0.347c0.1736,-0.293 0.3429,-0.592 0.5082,-0.897c0.3943,-0.726 0.7653,-1.485 1.1145,-2.274c0.1002,-0.227 0.1987,-0.455 0.2953,-0.687c0.0333,-0.08 0.0665,-0.16 0.0994,-0.24c0.0471,0.066 0.0939,0.132 0.1405,0.198c0.1629,0.229 0.3223,0.454 0.4775,0.674c0.3098,0.44 0.6022,0.861 0.8695,1.263c0.1975,0.298 0.3813,0.585 0.5483,0.862c0.0054,0.009 0.0108,0.018 0.0162,0.027l0.0206,-0.024l1.3646,-1.592l1.2068,-1.408c-0.5579,-0.825 -1.2466,-1.78 -2.0331,-2.801c-0.3059,-0.396 -0.6267,-0.803 -0.9603,-1.216c-0.0076,-0.009 -0.0152,-0.019 -0.0229,-0.028c-0.0739,-0.091 -0.1485,-0.183 -0.2237,-0.275c0.0245,-0.086 0.0488,-0.173 0.0728,-0.259c0.0065,-0.024 0.013,-0.047 0.0194,-0.07c0.0102,-0.037 0.0203,-0.074 0.0304,-0.111c0.4436,-1.625 0.8119,-3.327 1.1232,-5.105c0.1114,-0.637 0.2155,-1.283 0.3131,-1.939c0.0984,-0.661 0.1903,-1.333 0.2764,-2.014l0.0007,-0.006l-1.3101,-0.148l-2.5059,-0.284c-0.0473,0.412 -0.0972,0.822 -0.1498,1.229c-0.0532,0.411 -0.1092,0.819 -0.1683,1.223c-0.0238,0.163 -0.0481,0.325 -0.0729,0.487c-0.1531,0.997 -0.3257,1.971 -0.5217,2.914c-0.028,0.134 -0.0565,0.269 -0.0855,0.402c-0.0033,0.015 -0.0065,0.03 -0.0098,0.045c-0.0588,-0.068 -0.1176,-0.136 -0.1766,-0.204c-0.1947,-0.224 -0.3903,-0.448 -0.5862,-0.672c-0.1274,-0.145 -0.2549,-0.29 -0.3825,-0.434c-0.0709,-0.08 -0.1419,-0.16 -0.2129,-0.24c-0.062,-0.07 -0.1239,-0.14 -0.1858,-0.209c-0.6172,-0.692 -1.23102,-1.366 -1.82535,-2.001c-0.02768,-0.029 -0.0553,-0.059 -0.08289,-0.088c-0.00125,-0.001 -0.00251,-0.003 -0.00376,-0.004l-0.00375,0.004l-2.08425,2.228v-6.228h21.888v22.464c0,0.015 -0.0001,0.03 -0.0004,0.044c-0.0121,0.637 -0.2907,0.882 -0.9616,0.925c-0.0152,0.001 -0.0305,0.002 -0.046,0.003c-0.0871,0 -0.1994,0 -0.3336,0.001c-0.2241,0.001 -0.509,0.002 -0.8384,0.002c-0.5981,-0.001 -1.3426,-0.006 -2.1353,-0.028c-0.4288,-0.011 -0.8717,-0.028 -1.3131,-0.05c-0.3597,-0.019 -0.7183,-0.041 -1.0676,-0.069c0.3102,0.551 0.6451,1.301 0.9337,2.063c0.2718,0.717 0.5025,1.445 0.6328,2.03zM8.84161,139.543c-0.53329,0.846 -1.11561,1.627 -1.74961,2.333v-13.428c0.7518,0.846 1.52322,1.75 2.29377,2.683c0.57202,0.693 1.14353,1.401 1.70623,2.111c0.0738,0.094 0.1475,0.187 0.221,0.28c0.0293,0.038 0.0585,0.075 0.0878,0.112c0.0277,0.035 0.0555,0.071 0.0832,0.106c-0.0308,0.095 -0.062,0.189 -0.0935,0.283c-0.0082,0.024 -0.0165,0.049 -0.0248,0.073c-0.0885,0.262 -0.1797,0.521 -0.2737,0.777c-0.6247,1.702 -1.37084,3.274 -2.25039,4.67zM27.2803,140.093l1.6637,-1.601c-0.7151,-1.532 -1.8169,-3.355 -3.1528,-5.223c-0.0198,-0.028 -0.0397,-0.056 -0.0597,-0.084c-0.0568,-0.079 -0.1139,-0.158 -0.1715,-0.237c0.0324,-0.118 0.0644,-0.236 0.096,-0.355c0.0057,-0.021 0.0113,-0.042 0.0169,-0.063c0.4251,-1.602 0.7856,-3.291 1.0937,-5.054c0.1133,-0.649 0.2196,-1.308 0.3193,-1.976c0.0973,-0.652 0.1883,-1.312 0.2738,-1.982l0.0003,-0.002l-2.38,-0.245l-1.472,-0.151c-0.0291,0.281 -0.0601,0.561 -0.0931,0.838c-0.0617,0.52 -0.1301,1.034 -0.2044,1.542c-0.1554,1.061 -0.3371,2.096 -0.5396,3.11c-0.0324,0.163 -0.0654,0.325 -0.0989,0.486c-0.0506,-0.064 -0.1014,-0.127 -0.1523,-0.191c-0.0724,-0.089 -0.1452,-0.179 -0.2183,-0.268c-0.0775,-0.094 -0.1553,-0.188 -0.2335,-0.282c-0.3291,-0.393 -0.6645,-0.778 -1.0034,-1.153c-0.4777,-0.528 -0.9626,-1.036 -1.4476,-1.521c-0.0016,-0.002 -0.0033,-0.003 -0.0049,-0.005l-0.4425,0.406l-2.0946,1.92l-0.0549,0.05l0.0386,0.042c0.0214,0.024 0.0429,0.047 0.0644,0.071c1.0104,1.112 2.0504,2.334 3.0451,3.602c0.4177,0.532 0.8275,1.072 1.2237,1.616c0.0134,0.019 0.0268,0.037 0.0401,0.055c0.0295,0.041 0.0588,0.081 0.0881,0.122c-0.0301,0.095 -0.0605,0.191 -0.0912,0.285c-0.0064,0.02 -0.0128,0.04 -0.0193,0.059c-0.0026,0.008 -0.0052,0.016 -0.0078,0.024c-0.4861,1.484 -1.0584,2.869 -1.723,4.14c-0.0715,0.137 -0.144,0.272 -0.2177,0.407c-0.2663,0.484 -0.5466,0.952 -0.8414,1.401c-0.128,0.194 -0.2587,0.386 -0.3921,0.574c-0.5287,0.744 -1.1006,1.431 -1.7175,2.058c-0.0144,0.015 -0.0289,0.03 -0.0434,0.044c-0.1489,0.15 -0.3004,0.297 -0.4546,0.44c0.3264,0.176 0.7448,0.439 1.1819,0.732c0.3203,0.215 0.6507,0.445 0.9622,0.669c0.4821,0.346 0.9191,0.675 1.2039,0.903c0.7313,-0.771 1.4086,-1.621 2.0338,-2.542c0.1391,-0.205 0.2756,-0.414 0.4096,-0.626c0.0739,-0.117 0.1471,-0.235 0.2194,-0.354c0.1938,-0.319 0.382,-0.645 0.5647,-0.978c0.3846,-0.702 0.7447,-1.436 1.081,-2.199c0.1184,-0.269 0.2338,-0.541 0.3463,-0.817c0.0114,-0.028 0.0229,-0.056 0.0343,-0.085c0.0332,-0.082 0.0662,-0.164 0.0989,-0.247c0.0268,0.042 0.0533,0.085 0.0797,0.127c0.0181,0.029 0.036,0.057 0.0538,0.086c0.2869,0.462 0.5531,0.915 0.7985,1.354c0.2032,0.364 0.3921,0.719 0.5669,1.062c0.1495,0.294 0.2886,0.58 0.4173,0.855c0.0466,0.1 0.0919,0.199 0.1358,0.296l0.3034,-0.292zM28.6745,166.856h1.4111l1.8829,-0.282l6.572,4.095l-1.236,3.106c-0.851,2.13867 -1.95157,4.145 -3.3017,6.019c0.5718,0.162 1.15747,0.30467 1.757,0.428l5.3879,1.105l-2.7116,4.785c-0.42907,0.75733 -0.77857,1.753 -1.0485,2.987l-0.9346,4.272l-0.233,-0.073v11.69h-12.176v-1.8h-0.064v1.908h-11.96v-4.599l-8.48588,3.248l-0.00926,0.004l-4.31216,1.672l-0.0045,-0.02l-1.99304,-8.784l-0.84014,-3.703l1.9003,-0.536c-0.00153,-0.00533 -0.00305,-0.01067 -0.00458,-0.016l-0.09852,0.021l0.07679,-0.092c-0.25187,-0.828 -0.5738,-1.70933 -0.96578,-2.644l-1.83559,-4.377l2.81716,-0.65l-0.09336,-0.374c-0.0646,-0.258 -0.13313,-0.512 -0.20559,-0.762l-0.25137,0.021l0.18396,-0.248c-0.25663,-0.84733 -0.55939,-1.643 -0.90827,-2.387l-2.01823,-4.306l4.1194,-1.123c0.1194,-0.14667 0.27158,-0.35433 0.45651,-0.623l0.0587,-0.086l0.06304,-0.082c1.53865,-2.00667 2.88858,-4.799 4.0498,-8.377l1.41001,-4.344l10.56242,5.051c0.194,-0.42867 0.37647,-0.86867 0.5474,-1.32l1.3074,-3.454l11.6389,3.373zM18.2762,170.647c-0.0186,0.033 -0.0374,0.065 -0.0561,0.097c-0.68,1.165 -1.4478,2.273 -2.2714,3.284c-0.0998,0.123 -0.2003,0.244 -0.3016,0.363c-0.6606,0.78 -1.3535,1.496 -2.0628,2.128c-0.064,0.057 -0.1281,0.113 -0.1923,0.169l-0.7163,-0.452l-1.3201,-0.833l-0.3036,-0.191c-0.486,0.942 -0.9976,1.883 -1.55644,2.803c-0.10352,0.171 -0.20866,0.34 -0.31556,0.509l-0.2293,0.019l-2.36292,0.2l-0.39578,0.033c0.10061,-0.136 0.20113,-0.273 0.3015,-0.412c0.25174,-0.347 0.50251,-0.703 0.75123,-1.066c0.55422,-0.807 1.09829,-1.649 1.62037,-2.508c0.0779,-0.128 0.15531,-0.257 0.23219,-0.386c0.2644,-0.443 0.52254,-0.89 0.77282,-1.34c0.27539,-0.495 0.54139,-0.992 0.79559,-1.489c0.1739,-0.339 0.3424,-0.679 0.5047,-1.018c0.1717,-0.358 0.3365,-0.714 0.4936,-1.069l-0.5019,-0.24l-3.6381,-1.74c-0.40609,1.251 -0.9226,2.529 -1.46792,3.732c-0.37753,0.833 -0.76887,1.629 -1.14694,2.356c-0.86707,1.666 -1.66434,2.965 -2.06514,3.488c-0.5693,0.828 -1.06419,1.433 -1.59165,1.788c-0.06499,0.044 -0.13049,0.084 -0.19667,0.12c-0.14392,0.078 -0.29113,0.138 -0.44368,0.18c0.03853,0.082 0.0778,0.169 0.11758,0.26c0.00764,0.018 0.0153,0.035 0.02298,0.053c0.34293,0.793 0.72033,1.869 0.99171,2.73c0.08418,0.267 0.15816,0.514 0.21774,0.725c0.02018,0.072 0.03871,0.139 0.05543,0.202c0.01257,0.048 0.02411,0.092 0.03456,0.134c0.11583,-0.058 0.24475,-0.114 0.402,-0.171c0.41658,-0.148 1.03191,-0.295 2.12899,-0.462c0.51502,-0.078 1.1362,-0.16 1.89283,-0.25c0.04883,-0.005 0.09822,-0.011 0.14818,-0.017c-0.09802,0.137 -0.19505,0.271 -0.2909,0.402c-1.06594,1.463 -1.98565,2.595 -2.4811,3.09c-0.55762,0.61 -1.03089,1.102 -1.47697,1.471c-0.19262,0.16 -0.38017,0.297 -0.56726,0.411c-0.27474,0.167 -0.54847,0.284 -0.83577,0.35c0.02106,0.05 0.04257,0.102 0.06444,0.156c0.00123,0.003 0.00246,0.006 0.00369,0.009c0.0581,0.143 0.11881,0.297 0.18098,0.459c0.30475,0.794 0.64435,1.778 0.88195,2.532c0.03278,0.104 0.06362,0.203 0.09216,0.298c0.03595,0.118 0.06825,0.228 0.09618,0.327c0.0181,0.065 0.03437,0.124 0.0486,0.179c0.54479,-0.356 1.28472,-0.664 3.52592,-1.263c0.084,-0.022 0.17012,-0.045 0.25841,-0.069c1.10538,-0.291 2.55213,-0.65 4.47527,-1.111c0.4471,-0.108 0.92,-0.22 1.4204,-0.339c0.4688,-0.111 0.9616,-0.228 1.48,-0.35c-0.0363,-0.266 -0.0604,-0.602 -0.0737,-0.972c-0.0057,-0.159 -0.0094,-0.325 -0.0112,-0.494c-0.0028,-0.269 -0.0009,-0.548 0.0053,-0.825c0.001,-0.046 0.0022,-0.091 0.0035,-0.137c0.0084,-0.303 0.022,-0.603 0.0401,-0.884c0.0731,0.179 0.1461,0.364 0.2178,0.55c0.052,0.134 0.1033,0.27 0.1534,0.406c0.0828,0.224 0.1622,0.447 0.236,0.664c0.0853,0.251 0.1629,0.494 0.2293,0.72c0.0179,0.061 0.035,0.121 0.0512,0.179c0.0317,0.114 0.06,0.223 0.0843,0.325l1.544,-0.491l0.04,-0.013v13.14h3.96v-1.908h8.064v1.8h4.176v-13.14l1.26,0.396c0.0218,-0.1 0.0463,-0.205 0.0732,-0.314c0.0067,-0.027 0.0135,-0.054 0.0205,-0.082c0.1886,-0.748 0.4851,-1.682 0.8195,-2.509c0.1803,-0.447 0.3715,-0.861 0.5628,-1.199c-1.2929,-0.265 -2.5401,-0.614 -3.7274,-1.037c-0.0679,-0.024 -0.1355,-0.049 -0.203,-0.073c-0.6301,-0.23 -1.2429,-0.481 -1.8363,-0.751c-0.6164,-0.28 -1.2118,-0.581 -1.7838,-0.901c-0.0273,-0.015 -0.0544,-0.031 -0.0815,-0.046c0.0253,-0.024 0.0506,-0.047 0.0758,-0.071c0.9763,-0.917 1.8888,-1.907 2.7216,-2.968c1.4106,-1.798 2.5922,-3.8 3.4666,-5.997l-2.484,-1.548l-0.72,0.108h-7.74c0.0186,-0.037 0.0372,-0.075 0.0557,-0.112c0.3632,-0.734 0.7006,-1.493 1.0122,-2.255c0.0404,-0.099 0.0805,-0.198 0.1201,-0.297l-1.188,-0.344l-2.664,-0.772c-0.4615,1.219 -1.0396,2.422 -1.7038,3.571zM12.649,185.315l-3.21119,0.662l-0.2497,0.051l-0.33462,0.069l-0.28549,0.059c0.05045,-0.061 0.10087,-0.121 0.15126,-0.182c0.08817,-0.107 0.17625,-0.214 0.26422,-0.321c0.93791,-1.145 1.86372,-2.344 2.75032,-3.573c0.1851,-0.257 0.3686,-0.515 0.55,-0.774c0.0952,-0.136 0.1899,-0.272 0.284,-0.409c0.1615,-0.234 0.3214,-0.469 0.4793,-0.705c0.3148,-0.47 0.6222,-0.942 0.9208,-1.416c0.0604,-0.096 0.1204,-0.192 0.1801,-0.288c0.0306,0.045 0.0611,0.09 0.0916,0.134c0.2253,0.331 0.4477,0.659 0.6462,0.963c0.0873,0.133 0.1699,0.262 0.2461,0.384c0.0727,0.117 0.1396,0.228 0.1991,0.332c0.0568,0.099 0.1069,0.191 0.149,0.275c0.2798,-0.235 0.5561,-0.484 0.829,-0.745c0.4783,-0.457 0.946,-0.95 1.403,-1.468c0.0571,-0.064 0.114,-0.129 0.1708,-0.195c0.0633,-0.073 0.1263,-0.146 0.1892,-0.22c0.0389,0.057 0.0782,0.113 0.1178,0.169c0.1915,0.272 0.391,0.54 0.5981,0.805c0.574,0.733 1.206,1.44 1.8857,2.13c0.0565,0.058 0.1133,0.115 0.1704,0.172c-0.0735,0.042 -0.1473,0.083 -0.2214,0.124c-0.1419,0.079 -0.2849,0.157 -0.4289,0.234c-1.0046,0.536 -2.0598,1.023 -3.1509,1.456c-0.1021,0.041 -0.2046,0.081 -0.3074,0.12c-0.3823,0.148 -0.7689,0.289 -1.159,0.423c-0.8095,0.278 -1.6344,0.527 -2.4692,0.745c-0.0661,0.018 -0.1323,0.035 -0.1985,0.052c-0.0189,0.004 -0.0378,0.009 -0.0567,0.014l0.2088,0.383l0.2232,0.409l-0.22,0.045zM19.98,191.16h8.064v4.248h-8.064v-0.22zM17.46,187.416c0.209,-0.084 0.4171,-0.169 0.6243,-0.256c0.0444,-0.019 0.0887,-0.037 0.133,-0.056c0.1814,-0.077 0.362,-0.156 0.542,-0.235c0.4242,-0.188 0.8445,-0.384 1.2607,-0.589c1.1458,-0.562 2.2603,-1.187 3.3387,-1.884c0.1365,-0.088 0.2724,-0.177 0.4077,-0.268c0.057,-0.038 0.1138,-0.076 0.1705,-0.115c0.0612,-0.041 0.1222,-0.083 0.1831,-0.125c0.0202,0.014 0.0404,0.028 0.0607,0.042c0.0358,0.025 0.0718,0.05 0.1078,0.074c1.0115,0.693 2.0935,1.332 3.2329,1.913c0.2306,0.118 0.4635,0.233 0.6986,0.346c0.4777,0.229 0.9646,0.448 1.4598,0.657c0.1937,0.081 0.3888,0.161 0.585,0.24c0.2183,0.087 0.438,0.173 0.6592,0.256h-11.8662zM24.012,179.028c-0.0142,-0.012 -0.0283,-0.025 -0.0425,-0.037c-0.0926,-0.082 -0.1843,-0.164 -0.2751,-0.247c-1.2694,-1.161 -2.3565,-2.465 -3.1821,-3.888c-0.0188,-0.032 -0.0374,-0.065 -0.056,-0.097c-0.0027,-0.005 -0.0055,-0.01 -0.0083,-0.015h7.452c-0.0247,0.037 -0.0495,0.075 -0.0745,0.112c-0.9539,1.423 -2.1401,2.727 -3.4793,3.888c-0.0581,0.05 -0.1165,0.1 -0.1751,0.15c-0.0528,0.045 -0.1059,0.09 -0.1591,0.134zM6.51397,194.039c-2.04594,0.679 -3.91613,1.275 -5.39797,1.693l0.07788,0.343l0.29899,1.318l0.59513,2.623c1.17281,-0.455 2.44508,-0.941 3.77316,-1.448c0.71523,-0.273 1.44664,-0.551 2.18743,-0.834c1.30711,-0.498 2.64341,-1.009 3.97141,-1.521c0.7258,-0.281 1.4492,-0.561 2.164,-0.841l-0.5122,-2.375l-0.0195,-0.09l-0.2603,-1.207c-0.1854,0.064 -0.3712,0.128 -0.5573,0.192c-0.2712,0.093 -0.5429,0.186 -0.8147,0.28c-0.2503,0.086 -0.5006,0.172 -0.7507,0.257c-0.565,0.194 -1.1287,0.387 -1.68758,0.577c-1.04766,0.357 -2.07826,0.705 -3.06775,1.033zM13.504,218.156h0.136v-2.484h20.456v2.484h4.068v11.528h-1.656v8.704h1.8v8.014l5.467,1.094l-5.7868,5.324c-0.665,0.61133 -1.27927,1.44533 -1.8428,2.502l-1.5045,2.821l-3.0831,-0.846c-3.0258,-0.83 -5.576,-2.227 -7.6506,-4.191c-2.33287,1.91533 -5.4518,3.34633 -9.3568,4.293l-3.5374,0.858l-0.2692,-0.781h-9.3078v-2.145l-2.47196,-7.004c-0.45105,-1.278 -1.02039,-2.467 -1.70804,-3.567l-1.48113,-2.37l1.71572,-2.206c1.07372,-1.38 2.03578,-3.308 2.88618,-5.784h-2.86477v-11.996h3.924v-6.732h12.068zM13.64,222.156h-0.212v3.528h4.212v2.052h4.104v-2.052h4.176v2.052h4.176v-2.052h4.068v-3.528h-4.068v-2.484h-4.176v2.484h-4.176v-2.484h-4.104v2.484zM32.508,229.684v-1.3h-18.072v11.916h6.912c-0.034,0.34 -0.076,0.68 -0.1222,1.012c-0.0303,0.217 -0.0623,0.431 -0.0951,0.64c-0.0233,0.148 -0.047,0.294 -0.0707,0.436h-8.28v3.564h6.876c-0.1058,0.149 -0.2185,0.294 -0.3384,0.436c-0.1836,0.217 -0.3843,0.427 -0.604,0.628c-0.7675,0.705 -1.7663,1.316 -3.0738,1.842c-0.636,0.256 -1.3449,0.492 -2.1358,0.708c-0.2586,0.071 -0.526,0.14 -0.8025,0.207c-0.2548,0.061 -0.5173,0.121 -0.7877,0.179c-0.1643,0.035 -0.3316,0.07 -0.5018,0.104c0.7584,0.758 1.6678,2.151 2.092,3.182c0.0389,0.095 0.0737,0.186 0.104,0.274c2.5605,-0.621 4.5657,-1.389 6.1398,-2.312c0.6015,-0.353 1.14,-0.729 1.6225,-1.128c1.0475,-0.866 1.8309,-1.842 2.4208,-2.932c0.0649,-0.12 0.1274,-0.241 0.1877,-0.364c0.0111,-0.022 0.0222,-0.045 0.0332,-0.068c0.0022,0.004 0.0044,0.008 0.0066,0.012c0.713,1.309 1.5725,2.461 2.6031,3.443c0.1777,0.17 0.3605,0.334 0.5485,0.493c1.4745,1.25 3.2695,2.187 5.4458,2.784c0.0153,-0.029 0.0311,-0.058 0.0473,-0.088c0.5737,-1.047 1.671,-2.573 2.5357,-3.4c0.0272,-0.026 0.0543,-0.051 0.081,-0.076c-1.5753,-0.315 -2.9549,-0.792 -4.1429,-1.422c-0.4344,-0.23 -0.8432,-0.481 -1.2266,-0.753c-0.5593,-0.395 -1.0645,-0.833 -1.5162,-1.313c-0.1334,-0.142 -0.2622,-0.287 -0.3863,-0.436h6.3v-3.564h-9l0.0526,-0.436l0.0773,-0.64l0.0352,-0.292l0.0869,-0.72h6.948zM28.332,232.92h-9.9v-1.548h9.9v0.356zM28.332,237.312h-9.9v-1.584h9.9v0.572zM9.504,249.952v-12.82c0.01213,0.024 0.02423,0.049 0.03632,0.073c0.197,0.395 0.38884,0.793 0.57168,1.183c0.1116,0.238 0.2199,0.474 0.324,0.705c0.1464,0.325 0.2845,0.641 0.4117,0.942c0.1915,0.453 0.3584,0.872 0.4923,1.237l2.164,-2.56l0.2737,-0.324l0.1183,-0.14c-0.0894,-0.152 -0.224,-0.372 -0.392,-0.639c-0.0915,-0.146 -0.1929,-0.306 -0.3023,-0.477c-0.2952,-0.462 -0.6486,-1.007 -1.0225,-1.576c-0.2502,-0.38 -0.5096,-0.772 -0.7669,-1.156c-0.3376,-0.504 -0.6716,-0.997 -0.9763,-1.438c-0.3684,-0.533 -0.69413,-0.99 -0.932,-1.302v-1.26h3.276v-3.996h-3.276v-6.732h-4.068v6.732h-3.924v3.996h3.924v0.9c-0.24891,1.013 -0.54392,2.06 -0.87743,3.1c-0.62656,1.954 -1.38902,3.887 -2.23707,5.539c-0.21314,0.416 -0.43169,0.813 -0.65485,1.189c-0.07636,0.129 -0.15325,0.255 -0.23065,0.378c-0.25745,0.41 -0.5205,0.79 -0.788,1.134c0.24694,0.395 0.51929,0.888 0.788,1.414c0.51476,1.007 1.01616,2.138 1.3,2.942c0.36252,-0.564 0.72003,-1.203 1.06693,-1.902c0.42886,-0.865 0.84151,-1.821 1.22735,-2.841c0.13887,-0.367 0.27428,-0.743 0.40572,-1.125v12.348h4.068zM36.688,287.676c0,2.55667 -0.684,4.52367 -2.052,5.901v2.879h3.6v11.996h-40.58v-11.996h3.672v-0.998l-0.54363,-0.782c-0.5806,-0.83467 -1.26099,-1.56767 -2.04116,-2.199l-4.74291,-3.84l4.0157,-2.09v-9.891h1.224v-7.56h24.452v0.792h0.892v-1.656h12.104zM30.636,295.552v-1.9h-10.44v-2.844h-3.06v-6.336h3.348v-3.816h-3.348v-3.78h2.556v-3.78h-16.452v3.78h2.844v3.78h-4.068v3.816h3.636c-0.01507,0.05 -0.03068,0.1 -0.04683,0.151c-0.0036,0.011 -0.00722,0.022 -0.01087,0.033c-0.24375,0.745 -0.60946,1.475 -1.14854,2.171c-0.4462,0.576 -1.01117,1.128 -1.72406,1.645c-0.43102,0.312 -0.9161,0.612 -1.4617,0.896c0.09824,0.08 0.20863,0.175 0.32763,0.284c0.79257,0.723 1.96675,2.006 2.47238,2.729c0.00268,0.003 0.00534,0.007 0.00799,0.011c0.82352,-0.453 1.53779,-0.957 2.15657,-1.5c0.35965,-0.316 0.68705,-0.645 0.9849,-0.986c0.07353,-0.084 0.14527,-0.169 0.21524,-0.254c0.74102,-0.904 1.28465,-1.881 1.67929,-2.892c0.15567,-0.399 0.28816,-0.802 0.40043,-1.209c0.08204,-0.297 0.15328,-0.596 0.21489,-0.895c0.01263,-0.061 0.02485,-0.123 0.03668,-0.184h3.348v6.948h2.664v2.232h-10.44v3.924h10.44v2.88h-14.112v3.996h32.58v-3.996h-14.04v-2.88h10.44zM10.044,280.656v-3.78h3.06v3.78h-3.02zM21.996,286.128h3.96v-12.24h-3.96zM24.7834,290.128c0.2227,0.656 0.4018,1.311 0.4886,1.832c0.9699,0 1.8439,-0.011 2.628,-0.057c0.1802,-0.01 0.3557,-0.023 0.5265,-0.037c1.0168,-0.087 1.868,-0.251 2.5695,-0.554c0.0992,-0.048 0.193,-0.099 0.2817,-0.151c0.6173,-0.366 0.9855,-0.84 1.1901,-1.509c0.1605,-0.525 0.2202,-1.17 0.2202,-1.976v-15.444h-4.104v15.372c0,0.085 -0.0047,0.158 -0.0157,0.221c-0.028,0.16 -0.0967,0.252 -0.2309,0.303c-0.1032,0.038 -0.2452,0.052 -0.4374,0.052c-0.3723,0.053 -1.4321,0.067 -2.628,0.042c-0.2582,-0.006 -0.5227,-0.013 -0.788,-0.022c-0.096,-0.004 -0.1921,-0.007 -0.288,-0.011c-0.0735,-0.003 -0.1468,-0.006 -0.22,-0.009c0.048,0.093 0.0963,0.19 0.1445,0.292c0.0252,0.053 0.0504,0.107 0.0755,0.162c0.1437,0.315 0.2857,0.662 0.4182,1.018c0.0585,0.157 0.1152,0.317 0.1692,0.476z"></path></g></g></g></svg>