<?xml version="1.0" standalone="no"?><!DOCTYPE svg PUBLIC "-//W3C//DTD SVG 1.1//EN" "http://www.w3.org/Graphics/SVG/1.1/DTD/svg11.dtd"><svg t="1695354099772" class="icon" viewBox="0 0 1024 1024" version="1.1" xmlns="http://www.w3.org/2000/svg" p-id="7558" xmlns:xlink="http://www.w3.org/1999/xlink" width="128" height="128"><path d="M512 0.006C229.233 0.006 0.006 229.233 0.006 512c0 282.766 229.228 511.993 511.994 511.993S1023.993 794.765 1023.993 512C1023.993 229.233 794.766 0.006 512 0.006z m237.773 693.199c15.621 15.621 15.621 40.947 0 56.568-7.811 7.811-18.047 11.716-28.284 11.716s-20.474-3.905-28.284-11.716L512 568.568 330.795 749.772c-7.811 7.811-18.047 11.716-28.284 11.716s-20.474-3.905-28.284-11.716c-15.621-15.621-15.621-40.947 0-56.568L455.432 512 274.227 330.795c-15.621-15.621-15.621-40.948 0-56.568 15.621-15.621 40.947-15.621 56.568 0L512 455.432l181.205-181.206c15.621-15.621 40.947-15.621 56.568 0s15.621 40.947 0 56.568L568.568 512l181.205 181.205z" p-id="7559" fill="#DE5937"></path></svg>