<svg xmlns="http://www.w3.org/2000/svg" xmlns:xlink="http://www.w3.org/1999/xlink" width="120.4052734375" height="154.15054321289062" viewBox="0 0 120.4052734375 154.15054321289062" fill="none"><g opacity="1"  transform="translate(0 4.7188720703125)  rotate(0)"><mask id="bg-mask-0" fill="white"><use transform="translate(0 0)  rotate(-2.3655140233350247)" xlink:href="#path_0"></use></mask><g mask="url(#bg-mask-0)" ><g id="路径 1" filter="url(#filter_1)"><path id="路径 1" fill-rule="evenodd" style="fill:#FA764D" opacity="1" d="M19.178 11.5987C18.1799 12.3906 17.6283 13.5743 17.709 14.8021L21.2744 70.3422C21.341 71.4704 22.0039 72.494 23.0486 73.0713C24.0829 73.6391 25.3564 73.6966 26.4577 73.2208L114.802 34.4314C115.461 34.1439 115.854 33.4971 115.786 32.8194C115.709 32.152 115.195 31.5927 114.488 31.4417L22.7981 10.7986C21.5251 10.5109 20.1862 10.8064 19.178 11.5987Z"></path></g><path id="路径 3" fill-rule="evenodd" style="fill:#C2C2C2" opacity="1" d="M20.9326 144.147C21.8716 147.011 25.8308 146.427 27.9166 143.858C30.002 141.28 22.2451 6.56541 22.2451 6.56541L15.2611 6.85392C15.2611 6.85392 20.0036 141.283 20.9326 144.147Z"></path><path id="路径 4" fill-rule="evenodd" style="fill:#C2C2C2" opacity="1" d="M18.4493 -0.762133C14.8624 -0.613958 12.0771 2.22342 12.2158 5.58056C12.3541 8.9277 15.3639 11.5257 18.9508 11.3775C22.5277 11.2298 25.313 8.39238 25.1747 5.04523C25.0361 1.68809 22.0263 -0.909895 18.4493 -0.762133Z"></path></g></g><defs><rect id="path_0" x="0" y="0" width="114.3298472011747" height="149.5590830283865" /><filter id="filter_1" x="8.54638671875" y="-0.13458251953125" width="115.25025177001953" height="84.93066024780273" filterUnits="userSpaceOnUse" color-interpolation-filters="sRGB"><feFlood flood-opacity="0" result="feFloodId"/>
          <feColorMatrix in="SourceAlpha" type="matrix" values="0 0 0 0 0 0 0 0 0 0 0 0 0 0 0 0 0 0 127 0" result="hardAlpha"/>
          <feMorphology radius="-3" operator="dilate" in="SourceAlpha"/>
          <feOffset dx="0" dy="2"/>
          <feComposite in2="hardAlpha" operator="out"/>
          <feGaussianBlur stdDeviation="6"/>
          <feColorMatrix type="matrix" values="0 0 0 0 0.9803921568627451 0 0 0 0 0.4627450980392157 0 0 0 0 0.30196078431372547 0 0 0 1 0"/>
          <feBlend mode="normal" in2="filter_feFlood" result="filter_feFlood_1"/>
          <feBlend mode="normal" in="SourceGraphic" in2="filter_1" result="shape"/></filter></defs></svg>