<svg xmlns="http://www.w3.org/2000/svg" xmlns:xlink="http://www.w3.org/1999/xlink" width="152" height="188.072998046875" viewBox="0 0 152 188.072998046875" fill="none"><g opacity="1"  transform="translate(0 0)  rotate(0)"><path id="路径 1" fill-rule="evenodd" style="fill:#FFFFFF" opacity="1" d="M79 4C38.68 4 6 36.87 6 77.42C6 117.96 78.7 185 78.7 185C78.7 185 152 117.96 152 77.42C152 36.87 119.32 4 79 4Z"></path><path id="路径 1 (轮廓)" fill-rule="evenodd" style="fill:#E0E0E0" opacity="1" d="M91.32,1.55c4.9,1.01 9.66,2.5 14.27,4.46c4.53,1.92 8.83,4.27 12.91,7.05c4.04,2.74 7.79,5.85 11.25,9.33c3.45,3.47 6.54,7.24 9.27,11.31c2.76,4.1 5.1,8.43 7.01,12.98c1.95,4.63 3.42,9.41 4.43,14.34c1.03,5.06 1.54,10.19 1.54,15.4c0,9.82 -3.95,21.62 -11.85,35.4c-6.2,10.81 -14.7,22.65 -25.5,35.52c-4.23,5.04 -8.75,10.16 -13.56,15.35c-3.84,4.15 -7.78,8.26 -11.81,12.32c-2.88,2.9 -5.67,5.63 -8.36,8.2c-1.35,1.29 -2.42,2.29 -3.2,3l-2.03,1.86l-2.02,-1.87c-0.78,-0.71 -1.85,-1.72 -3.19,-3.01c-2.67,-2.58 -5.44,-5.31 -8.3,-8.22c-4,-4.06 -7.91,-8.17 -11.72,-12.32c-4.76,-5.19 -9.24,-10.31 -13.44,-15.35c-10.71,-12.86 -19.13,-24.69 -25.28,-35.5c-7.83,-13.77 -11.74,-25.56 -11.74,-35.38c0,-5.21 0.51,-10.34 1.54,-15.4c1.01,-4.93 2.48,-9.71 4.43,-14.34c1.91,-4.55 4.25,-8.88 7.01,-12.98c2.73,-4.07 5.82,-7.84 9.27,-11.31c3.46,-3.48 7.21,-6.59 11.25,-9.33c4.08,-2.78 8.38,-5.13 12.91,-7.05c4.61,-1.96 9.37,-3.45 14.27,-4.46c5.03,-1.03 10.14,-1.55 15.32,-1.55c5.18,0 10.29,0.52 15.32,1.55zM48.76,11.53c-4.17,1.77 -8.13,3.94 -11.89,6.49c-3.73,2.53 -7.18,5.4 -10.36,8.6c-3.19,3.2 -6.04,6.68 -8.55,10.42c-2.54,3.78 -4.7,7.77 -6.46,11.96c-1.79,4.27 -3.15,8.68 -4.08,13.22c-0.95,4.66 -1.42,9.4 -1.42,14.2c0,4.52 0.98,9.61 2.95,15.27c1.84,5.27 4.5,10.98 8.01,17.14c5.97,10.5 14.19,22.04 24.67,34.64c4.14,4.96 8.55,10 13.25,15.12c3.76,4.1 7.62,8.16 11.57,12.17c2.83,2.87 5.55,5.57 8.19,8.1c0.38,0.37 0.74,0.71 1.07,1.03c0.33,-0.32 0.69,-0.66 1.07,-1.02c2.65,-2.53 5.4,-5.23 8.24,-8.09c3.99,-4.01 7.88,-8.07 11.67,-12.17c4.74,-5.12 9.19,-10.16 13.36,-15.13c10.58,-12.59 18.87,-24.14 24.89,-34.64c3.54,-6.17 6.23,-11.88 8.08,-17.15c1.99,-5.66 2.98,-10.75 2.98,-15.27c0,-4.8 -0.47,-9.54 -1.42,-14.2c-0.93,-4.54 -2.29,-8.95 -4.08,-13.22c-1.76,-4.19 -3.92,-8.18 -6.46,-11.96c-2.51,-3.74 -5.36,-7.22 -8.55,-10.42c-3.18,-3.2 -6.63,-6.07 -10.36,-8.6c-3.76,-2.55 -7.72,-4.72 -11.89,-6.49c-4.24,-1.8 -8.62,-3.17 -13.13,-4.1c-4.63,-0.95 -9.34,-1.43 -14.11,-1.43c-4.77,0 -9.48,0.48 -14.11,1.43c-4.51,0.93 -8.89,2.3 -13.13,4.1z"></path><g id="路径 1" filter="url(#filter_3)"><path id="路径 1" fill-rule="evenodd" style="fill:#F9D53D" opacity="1" d="M67.42 57.41C67.42 57.41 48.15 57.5 47.05 60.36C45.96 63.21 61.79 74.68 61.79 74.68C61.79 74.68 55.87 94.83 58.31 94.92C60.75 95 76.53 85.36 76.53 85.36C76.53 85.36 92.35 96.05 94.75 94.92C97.14 93.78 91.26 74.68 91.26 74.68C91.26 74.68 106.12 62.8 106 60.36C105.88 57.91 85.63 57.41 85.63 57.41C85.63 57.41 79.3 38.95 76.52 39C73.74 39.05 67.42 57.41 67.42 57.41Z"></path><path  id="路径 1" style="fill:#E6C637; opacity:1;" d="M67.427,58.91M67.427,58.91c-3.17567,0.0148 -6.39727,0.1475 -9.6648,0.3981c-5.9766,0.45833 -9.08067,0.98847 -9.3122,1.5904c-0.19967,0.522 1.97553,2.70243 6.5256,6.5413c2.51913,2.1254 5.08397,4.13393 7.6945,6.0256v-0.0001l0.8576,0.6214l-0.2985,1.0161l0.2985,-1.0161l-0.2985,1.0161c-0.97867,3.331 -1.8564,6.6655 -2.6332,10.0035c-0.67207,2.88767 -1.099,5.14743 -1.2808,6.7793c-0.0986,0.88473 -0.1214,1.5342 -0.0684,1.9484l-0.0104,0.0774c-0.18573,-0.31233 -0.4761,-0.4758 -0.8711,-0.4904c1.32367,0.0434 7.1179,-3.07027 17.3827,-9.341l0.8229,-0.5027l0.7989,0.5398l-0.7989,-0.5398l0.7989,0.5398c10.0754,6.80827 15.6558,9.95687 16.7412,9.4458c0.26173,-0.12487 -0.29457,-3.0725 -1.6689,-8.8429c-0.7734,-3.2468 -1.6453,-6.44637 -2.6157,-9.5987l-0.3003,-0.9755l0.7972,-0.6374l-0.7972,0.6374l0.7972,-0.6374c9.50713,-7.6006 14.23337,-11.95883 14.1787,-13.0747c-0.00733,-0.14753 -2.9603,-0.4718 -8.8589,-0.9728c-3.35513,-0.285 -6.70517,-0.4688 -10.0501,-0.5514l-1.0434,-0.0257l-0.3385,-0.9873l0.3385,0.9873l-0.3385,-0.9873c-1.04427,-3.04527 -2.20333,-6.08887 -3.4772,-9.1308c-2.31127,-5.51927 -3.7069,-8.27457 -4.1869,-8.2659c-0.50633,0.00907 -1.9184,2.77707 -4.2362,8.304c-1.27233,3.03393 -2.42983,6.0654 -3.4725,9.0944l-0.3465,1.0068zM67.413,55.91l0.007,1.5l-1.4183,-0.4882c4.44113,-12.9018 7.93823,-19.37567 10.4913,-19.4216c2.58113,-0.0464 6.09977,6.42803 10.5559,19.4233l-1.4189,0.4865l1.4189,-0.4865l-1.4189,0.4865l0.037,-1.4995c14.42867,0.3562 21.70567,1.8148 21.831,4.3758c0.10533,2.13753 -4.9951,7.32597 -15.3013,15.5653l-0.9367,-1.1716l0.9367,1.1716l-0.9367,-1.1716l1.4336,-0.4413c4.174,13.5584 5.07247,20.90453 2.6954,22.0384c-2.1146,0.9956 -8.68087,-2.22913 -19.6988,-9.6742l0.8398,-1.2429l-0.8398,1.2429l0.8398,-1.2429l0.782,1.28c-10.7752,6.5826 -17.12763,9.84227 -19.0573,9.779c-1.13967,-0.04207 -1.80087,-0.77673 -1.9836,-2.204c-0.0834,-0.65173 -0.06257,-1.53893 0.0625,-2.6616c0.19487,-1.74893 0.64167,-4.12467 1.3404,-7.1272c0.7898,-3.3936 1.68207,-6.78327 2.6768,-10.169l1.4392,0.4228l-1.4392,-0.4228l1.4392,0.4228l-0.8801,1.2147v-0.0001c-11.1746,-8.0972 -16.26123,-13.4549 -15.2599,-16.0731c0.97867,-2.54447 8.233,-3.8483 21.763,-3.9115z"></path></g></g><defs><filter id="filter_3" x="26" y="18" width="101" height="98" filterUnits="userSpaceOnUse" color-interpolation-filters="sRGB"><feFlood flood-opacity="0" result="feFloodId"/>
          <feColorMatrix in="SourceAlpha" type="matrix" values="0 0 0 0 0 0 0 0 0 0 0 0 0 0 0 0 0 0 127 0" result="hardAlpha"/>
          <feMorphology radius="8" operator="dilate" in="SourceAlpha"/>
          <feOffset dx="0" dy="0"/>
          <feComposite in2="hardAlpha" operator="out"/>
          <feGaussianBlur stdDeviation="6.5"/>
          <feColorMatrix type="matrix" values="0 0 0 0 1 0 0 0 0 0.8352941176470589 0 0 0 0 0.45098039215686275 0 0 0 0.5 0"/>
          <feBlend mode="normal" in2="filter_feFlood" result="filter_feFlood_1"/>
          <feBlend mode="normal" in="SourceGraphic" in2="filter_3" result="shape"/></filter></defs></svg>