<svg xmlns="http://www.w3.org/2000/svg" xmlns:xlink="http://www.w3.org/1999/xlink" width="197" height="205" viewBox="0 0 197 205" fill="none"><g opacity="1"  transform="translate(80 80)  rotate(0)"><g id="圆形 1" filter="url(#filter_2)"><path id="圆形 1" fill-rule="evenodd" style="fill:#95CDF0" opacity="0.5" d="M18.5 0C8.28 0 0 10.07 0 22.5C0 34.93 8.28 45 18.5 45C28.72 45 37 34.93 37 22.5C37 10.07 28.72 0 18.5 0Z"></path></g><g opacity="1"  transform="translate(6 12)  rotate(0)"><g id="undefined" filter="url(#filter_3)"></g><mask id="bg-mask-0" fill="white"><use transform="translate(0 0)  rotate(0)" xlink:href="#path_0"></use></mask><g mask="url(#bg-mask-0)" ><path id="减去顶层" fill-rule="evenodd" style="fill:#95CDF0" opacity="1" d="M19.94,31.25v5.06c0,1.49 -1.19,2.69 -2.65,2.69h-9.74c-1.46,0 -2.64,-1.2 -2.64,-2.69c0,0 0,-5.24 0.01,-5.33c0.08,-0.77 0.48,-1.46 1.11,-1.91c-0.24,-3.84 -6.03,-13.04 -6.03,-16.39c0,-7 5.6,-12.68 12.5,-12.68c6.9,0 12.5,5.68 12.5,12.68c0,3.34 -5.46,11.57 -6.13,16.43c0.67,0.5 1.07,1.3 1.07,2.14zM17.3226,28.9214c0.51,-4.29 4.67,-11.56 4.67,-14.51c0,-6.19 -4.26,-11.2 -9.52,-11.2c-5.26,0 -9.52,5.01 -9.52,11.2c0,2.96 4.41,11.09 4.59,14.48c-0.46,0.38 10.28,0.46 9.78,0.03z"></path><path id="减去顶层" fill-rule="evenodd" style="fill:#5CA4D1" opacity="1" d="M10.6094,17.7981c-0.03,-0.38 -0.15,-0.75 -0.36,-1.07l-1.06996,-1.64c-0.13,-0.2 -0.16,-0.44 -0.1,-0.66c0.06,-0.22 0.21,-0.41 0.41,-0.52c0.34,-0.19 0.75996,-0.1 0.99996,0.21l0.33,0.48c0.11,0.17 0.32,0.24 0.51,0.17c0.19,-0.07 0.31,-0.27 0.29,-0.47l-0.02,-0.17c-0.01,-0.25 0.07,-0.5 0.24,-0.68c0.17,-0.19 0.41,-0.29 0.66,-0.29c0.18,-0.01 0.37,0.05 0.5,0.18c0.13,0.13 0.21,0.31 0.2,0.49l-0.02,0.31c-0.02,0.21 0.1,0.4 0.29,0.46c0.2,0.07 0.41,0 0.52,-0.17l0.08,-0.13c0.36,-0.51 1.05,-0.64 1.56,-0.29c0.18,0.11 0.3,0.3 0.33,0.51c0.03,0.21 -0.04,0.42 -0.18,0.58l-1.14,1.32c-0.28,0.31 -0.45,0.72 -0.48,1.14l-0.59,11.22c-0.02,0.23 -0.2,0.42 -0.43,0.42l-1.19,0.04c-0.24,0.01 -0.43,-0.17 -0.45,-0.41zM11.9521,26.9799l0.98,-0.03c0.19,0 0.35,-0.15 0.36,-0.34l0.53,-9.15c0.02,-0.35 0.16,-0.68 0.39,-0.93l0.95,-1.08c0.12,-0.12 0.17,-0.3 0.15,-0.47c-0.03,-0.17 -0.12,-0.32 -0.27,-0.41c-0.43,-0.29 -0.67,-0.38 -0.95,0.03l-0.16,0.16c-0.21,0.33 -0.98,0.06 -0.95,-0.32v-0.32c0.03,-0.3 -0.14,-0.49 -0.47,-0.48h-0.16c-0.44,0.02 -0.67,0.56 -0.63,0.96v0.16c0.03,0.38 -0.58,0.47 -0.79,0.16l-0.16,-0.16c-0.18,-0.25 -0.54,-0.44 -0.81996,-0.28c-0.17,0.08 -0.3,0.24 -0.35,0.42c-0.05,0.18 -0.02,0.38 0.09,0.54l0.87996,1.35c0.17,0.26 0.27,0.55 0.3,0.86l0.7,8.99c0.02,0.2 0.19,0.35 0.38,0.34z"></path></g></g></g><defs><filter id="filter_2" x="-40" y="-40" width="117" height="125" filterUnits="userSpaceOnUse" color-interpolation-filters="sRGB"><feFlood flood-opacity="0" result="BackgroundImageFix"/>
          <feBlend mode="normal" in="SourceGraphic" in2="BackgroundImageFix" result="shape"/>
          <feGaussianBlur stdDeviation="20" result="effect1_foregroundBlur" /></filter><filter id="filter_3" x="-44" y="-40" width="125" height="143" filterUnits="userSpaceOnUse" color-interpolation-filters="sRGB"><feFlood flood-opacity="0" result="feFloodId"/>
          <feColorMatrix in="SourceAlpha" type="matrix" values="0 0 0 0 0 0 0 0 0 0 0 0 0 0 0 0 0 0 127 0" result="hardAlpha"/>
          <feMorphology radius="22" operator="dilate" in="SourceAlpha"/>
          <feOffset dx="0" dy="2"/>
          <feComposite in2="hardAlpha" operator="out"/>
          <feGaussianBlur stdDeviation="14"/>
          <feColorMatrix type="matrix" values="0 0 0 0 1 0 0 0 0 0.7647058823529411 0 0 0 0 0 0 0 0 1 0"/>
          <feBlend mode="normal" in2="filter_feFlood" result="filter_feFlood_1"/>
          <feBlend mode="normal" in="SourceGraphic" in2="filter_3" result="shape"/></filter><rect id="path_0" x="0" y="0" width="25" height="39" /></defs></svg>