<svg xmlns="http://www.w3.org/2000/svg" xmlns:xlink="http://www.w3.org/1999/xlink" width="227" height="242" viewBox="0 0 227 242" fill="none"><g opacity="1"  transform="translate(31 42)  rotate(0)"><g opacity="1"  transform="translate(0 0)  rotate(0)"><g opacity="1"  transform="translate(0 0)  rotate(0)"><path id="路径 1" fill-rule="evenodd" style="fill:#FFFFFF" opacity="1" d="M76 0C35.68 0 3 32.87 3 73.42C3 113.96 75.7 181 75.7 181C75.7 181 149 113.96 149 73.42C149 32.87 116.32 0 76 0Z"></path><path id="路径 1 (轮廓)" fill-rule="evenodd" style="fill:#E0E0E0" opacity="1" d="M91.32,1.55c4.9,1.01 9.66,2.5 14.27,4.46c4.53,1.92 8.83,4.27 12.91,7.05c4.04,2.74 7.79,5.85 11.25,9.33c3.45,3.47 6.54,7.24 9.27,11.31c2.76,4.1 5.1,8.43 7.01,12.98c1.95,4.63 3.42,9.41 4.43,14.34c1.03,5.06 1.54,10.19 1.54,15.4c0,9.82 -3.95,21.62 -11.85,35.4c-6.2,10.81 -14.7,22.65 -25.5,35.52c-4.23,5.04 -8.75,10.16 -13.56,15.35c-3.84,4.15 -7.78,8.26 -11.81,12.32c-2.88,2.9 -5.67,5.63 -8.36,8.2c-1.35,1.29 -2.42,2.29 -3.2,3l-2.03,1.86l-2.02,-1.87c-0.78,-0.71 -1.85,-1.72 -3.19,-3.01c-2.67,-2.58 -5.44,-5.31 -8.3,-8.22c-4,-4.06 -7.91,-8.17 -11.72,-12.32c-4.76,-5.19 -9.24,-10.31 -13.44,-15.35c-10.71,-12.86 -19.13,-24.69 -25.28,-35.5c-7.83,-13.77 -11.74,-25.56 -11.74,-35.38c0,-5.21 0.51,-10.34 1.54,-15.4c1.01,-4.93 2.48,-9.71 4.43,-14.34c1.91,-4.55 4.25,-8.88 7.01,-12.98c2.73,-4.07 5.82,-7.84 9.27,-11.31c3.46,-3.48 7.21,-6.59 11.25,-9.33c4.08,-2.78 8.38,-5.13 12.91,-7.05c4.61,-1.96 9.37,-3.45 14.27,-4.46c5.03,-1.03 10.14,-1.55 15.32,-1.55c5.18,0 10.29,0.52 15.32,1.55zM48.76,11.53c-4.17,1.77 -8.13,3.94 -11.89,6.49c-3.73,2.53 -7.18,5.4 -10.36,8.6c-3.19,3.2 -6.04,6.68 -8.55,10.42c-2.54,3.78 -4.7,7.77 -6.46,11.96c-1.79,4.27 -3.15,8.68 -4.08,13.22c-0.95,4.66 -1.42,9.4 -1.42,14.2c0,4.52 0.98,9.61 2.95,15.27c1.84,5.27 4.5,10.98 8.01,17.14c5.97,10.5 14.19,22.04 24.67,34.64c4.14,4.96 8.55,10 13.25,15.12c3.76,4.1 7.62,8.16 11.57,12.17c2.83,2.87 5.55,5.57 8.19,8.1c0.38,0.37 0.74,0.71 1.07,1.03c0.33,-0.32 0.69,-0.66 1.07,-1.02c2.65,-2.53 5.4,-5.23 8.24,-8.09c3.99,-4.01 7.88,-8.07 11.67,-12.17c4.74,-5.12 9.19,-10.16 13.36,-15.13c10.58,-12.59 18.87,-24.14 24.89,-34.64c3.54,-6.17 6.23,-11.88 8.08,-17.15c1.99,-5.66 2.98,-10.75 2.98,-15.27c0,-4.8 -0.47,-9.54 -1.42,-14.2c-0.93,-4.54 -2.29,-8.95 -4.08,-13.22c-1.76,-4.19 -3.92,-8.18 -6.46,-11.96c-2.51,-3.74 -5.36,-7.22 -8.55,-10.42c-3.18,-3.2 -6.63,-6.07 -10.36,-8.6c-3.76,-2.55 -7.72,-4.72 -11.89,-6.49c-4.24,-1.8 -8.62,-3.17 -13.13,-4.1c-4.63,-0.95 -9.34,-1.43 -14.11,-1.43c-4.77,0 -9.48,0.48 -14.11,1.43c-4.51,0.93 -8.89,2.3 -13.13,4.1z"></path></g><g opacity="1"  transform="translate(49 38)  rotate(0)"><g id="圆形 1" filter="url(#filter_7)"><path id="圆形 1" fill-rule="evenodd" style="fill:#95CDF0" opacity="0.5" d="M33.5 0C15 0 0 18.36 0 41C0 63.64 15 82 33.5 82C52 82 67 63.64 67 41C67 18.36 52 0 33.5 0Z"></path></g><g opacity="1"  transform="translate(7 18)  rotate(0)"><g id="undefined" filter="url(#filter_8)"></g><mask id="bg-mask-0" fill="white"><use transform="translate(0 0)  rotate(0)" xlink:href="#path_0"></use></mask><g mask="url(#bg-mask-0)" ><path id="减去顶层" fill-rule="evenodd" style="fill:#95CDF0" opacity="1" d="M33.49,52.89v8.56c0,2.51 -1.99,4.55 -4.45,4.55h-16.35c-2.46,0 -4.45,-2.04 -4.45,-4.55c0,0 0,-8.87 0.02,-9.02c0.14,-1.3 0.82,-2.48 1.87,-3.23c-0.4,-6.5 -10.13,-22.07 -10.13,-27.74c0,-11.85 9.4,-21.46 21,-21.46c11.6,0 21,9.61 21,21.46c0,5.66 -9.17,19.58 -10.29,27.8c1.12,0.85 1.78,2.2 1.78,3.63zM29.1104,48.9348c0.86,-7.26 7.84,-19.55 7.84,-24.55c0,-10.47 -7.16,-18.95 -16,-18.95c-8.83,0 -15.99,8.48 -15.99,18.95c0,5.01 7.42,18.77 7.71,24.5c-0.78,0.65 17.27,0.78 16.44,0.05z"></path><path id="减去顶层" fill-rule="evenodd" style="fill:#5CA4D1" opacity="1" d="M17.8332,30.1172c-0.05,-0.65 -0.26,-1.27 -0.61,-1.81l-1.81,-2.78c-0.2,-0.33 -0.26,-0.73 -0.16,-1.11c0.1,-0.38 0.35,-0.7 0.7,-0.87c0.56,-0.33 1.27,-0.18 1.66,0.35l0.56,0.81c0.19,0.29 0.55,0.4 0.87,0.28c0.31,-0.12 0.51,-0.45 0.48,-0.79l-0.03,-0.29c-0.03,-0.42 0.12,-0.84 0.4,-1.15c0.29,-0.31 0.69,-0.49 1.11,-0.49c0.3,-0.02 0.61,0.08 0.83,0.3c0.23,0.22 0.35,0.52 0.34,0.84l-0.04,0.53c-0.02,0.34 0.18,0.66 0.5,0.77c0.32,0.12 0.68,-0.01 0.87,-0.29l0.14,-0.22c0.6,-0.86 1.76,-1.08 2.62,-0.49c0.3,0.19 0.5,0.5 0.54,0.86c0.05,0.35 -0.06,0.71 -0.29,0.98l-1.92,2.23c-0.48,0.54 -0.76,1.22 -0.8,1.94l-1,18.98c-0.02,0.39 -0.34,0.71 -0.72,0.72l-2,0.07c-0.39,0.01 -0.73,-0.3 -0.76,-0.7zM20.0777,45.6527l1.65,-0.04c0.32,-0.01 0.58,-0.26 0.6,-0.59l0.89,-15.47c0.04,-0.59 0.27,-1.15 0.66,-1.59l1.6,-1.81c0.19,-0.22 0.28,-0.51 0.24,-0.8c-0.04,-0.29 -0.2,-0.55 -0.45,-0.7c-0.71,-0.48 -1.13,-0.63 -1.59,0.06l-0.27,0.27c-0.35,0.55 -1.64,0.09 -1.59,-0.54v-0.54c0.04,-0.52 -0.24,-0.84 -0.8,-0.82h-0.27c-0.74,0.03 -1.12,0.95 -1.06,1.63v0.27c0.06,0.64 -0.97,0.8 -1.33,0.27l-0.26,-0.27c-0.3,-0.42 -0.91,-0.75 -1.38,-0.48c-0.29,0.14 -0.5,0.4 -0.58,0.71c-0.08,0.31 -0.03,0.65 0.14,0.92l1.48,2.27c0.29,0.44 0.46,0.95 0.5,1.47l1.19,15.21c0.03,0.34 0.3,0.59 0.63,0.57z"></path></g></g></g></g></g><defs><filter id="filter_7" x="-40" y="-40" width="147" height="162" filterUnits="userSpaceOnUse" color-interpolation-filters="sRGB"><feFlood flood-opacity="0" result="BackgroundImageFix"/>
          <feBlend mode="normal" in="SourceGraphic" in2="BackgroundImageFix" result="shape"/>
          <feGaussianBlur stdDeviation="20" result="effect1_foregroundBlur" /></filter><filter id="filter_8" x="6" y="4" width="142" height="170" filterUnits="userSpaceOnUse" color-interpolation-filters="sRGB"><feFlood flood-opacity="0" result="feFloodId"/>
          <feColorMatrix in="SourceAlpha" type="matrix" values="0 0 0 0 0 0 0 0 0 0 0 0 0 0 0 0 0 0 127 0" result="hardAlpha"/>
          <feMorphology radius="22" operator="dilate" in="SourceAlpha"/>
          <feOffset dx="0" dy="2"/>
          <feComposite in2="hardAlpha" operator="out"/>
          <feGaussianBlur stdDeviation="14"/>
          <feColorMatrix type="matrix" values="0 0 0 0 1 0 0 0 0 0.7647058823529411 0 0 0 0 0 0 0 0 1 0"/>
          <feBlend mode="normal" in2="filter_feFlood" result="filter_feFlood_1"/>
          <feBlend mode="normal" in="SourceGraphic" in2="filter_8" result="shape"/></filter><rect id="path_0" x="0" y="0" width="42" height="66" /></defs></svg>