<svg id="图层_1" data-name="图层 1" xmlns="http://www.w3.org/2000/svg" viewBox="0 0 243 301.07"><defs><style>.cls-1{fill:#e0e0e0;}.cls-1,.cls-2{fill-rule:evenodd;}.cls-2{fill:#fff;}</style></defs><path id="路径_1_轮廓_" data-name="路径 1 (轮廓)" class="cls-1" d="M146,2.48a120.43,120.43,0,0,1,43.45,18.41,122.25,122.25,0,0,1,51.09,76.73A122.93,122.93,0,0,1,243,122.25q0,23.44-19,56.58a327.51,327.51,0,0,1-19.23,29.42q-9.83,13.51-22,28-10.27,12.24-21.94,24.86-9.33,10.09-19.13,20-7,7.05-13.54,13.29c-2.18,2.09-3.9,3.7-5.16,4.85l-2,1.86-2-1.87h0q-1.91-1.76-5.16-4.89-6.5-6.26-13.45-13.32-9.72-9.87-19-20-11.56-12.61-21.75-24.85-12-14.49-21.78-28a327.61,327.61,0,0,1-19-29.4Q0,145.66,0,122.25A122.93,122.93,0,0,1,2.47,97.62,122.09,122.09,0,0,1,20.75,53.9a122.3,122.3,0,0,1,32.81-33A120.43,120.43,0,0,1,97,2.48a122.16,122.16,0,0,1,49,0ZM76.55,15.13A114.55,114.55,0,0,0,56.93,25.85,116.38,116.38,0,0,0,6,122.25q0,11.33,4.9,25.41A171.77,171.77,0,0,0,24,175.82a321.32,321.32,0,0,0,18.7,28.85Q52.35,218,64.25,232.33,74.35,244.45,85.82,257q9.18,10,18.83,19.81,6.88,7,13.33,13.21c1.14,1.1,2.16,2.07,3,2.91l3-2.88q6.48-6.18,13.42-13.18,9.72-9.79,19-19.8,11.58-12.51,21.75-24.65,12-14.32,21.72-27.67a323.45,323.45,0,0,0,18.88-28.87,172.75,172.75,0,0,0,13.25-28.17Q237,133.57,237,122.25a117,117,0,0,0-2.35-23.44,116.3,116.3,0,0,0-48.58-73A114.91,114.91,0,0,0,76.55,15.13Z" transform="translate(0 0)"/><path id="路径_1" data-name="路径 1" class="cls-2" d="M121.5,4C56.05,4,3,57.39,3,123.25S121,298,121,298,240,189.11,240,123.25,187,4,121.5,4Z" transform="translate(0 0)"/></svg>