<svg xmlns="http://www.w3.org/2000/svg" xmlns:xlink="http://www.w3.org/1999/xlink" width="793.679931640625" height="774.0008544921875" viewBox="0 0 793.679931640625 774.0008544921875" fill="none"><g opacity="1"  transform="translate(0 0.0008544921875)  rotate(0)"><g opacity="1"  transform="translate(0 20)  rotate(0)"><mask id="bg-mask-0" fill="white"><use transform="translate(0 0)  rotate(0)" xlink:href="#path_0"></use></mask><g mask="url(#bg-mask-0)" ><path id="璺緞_4" fill-rule="evenodd" style="fill:#D9BDB2" opacity="1" d="M351.34,546l37.5,-199.45l81.5,-113.55l28.5,89v432h-147.5z"></path><path id="璺緞_5" fill-rule="evenodd" style="fill:#D9BDB2" opacity="1" d="M619.84,441l-142,44.55v-44.55l115.5,-41l83.5,-23l94,-39z"></path><path id="璺緞_5-2" fill-rule="evenodd" style="fill:#D9BDB2" opacity="1" d="M770.56,337.55l0.28,0.42l0.19,0.46l-94,39l-83.53,23l-0.13,-0.48l0.17,0.47l-115.5,41l-0.17,-0.47h0.5v44.6h-0.5l-0.15,-0.48l142,-44.5l0.15,0.48l-0.31,-0.5zM620.06,441.42l-142.72,44.76v-45.54l115.85,-41.09l83.52,-23l0.13,0.49l-0.19,-0.47l94,-39l0.47,0.88l-151,103z"></path><path id="璺緞_1" fill-rule="evenodd" style="fill:#D9BDB2" opacity="1" d="M401.34,369v62l-99.5,-62l-55,-91l-53.5,-32h53.5l55,64z"></path><path id="璺緞_2" fill-rule="evenodd" style="fill:#D9BDB2" opacity="1" d="M560.34,234l-71,106.5l-23,-82l69,-60.5l73,-46z"></path><path id="璺緞_3" fill-rule="evenodd" style="fill:#D9BDB2" opacity="1" d="M487.34,263l-60.5,51.55l-21,-76.5l-60.5,-101.5l-66,-117.5l66,48l81.5,69.5z"></path><path id="路径 1" fill-rule="evenodd" style="fill:#D9BDB2" opacity="1" d="M439.79,197zM455.11,210l-15.32,-13l20.25,-78.45l27.3,-46.91l24.7,-33.09l-13.2,31.0501l-15.8,65.3599z"></path><path id="鍦嗗舰_1" fill-rule="evenodd" style="fill:#59C28F" opacity="1" d="M302.73,0c43.35,0.01 78.49,35.15 78.5,78.5c0,43.35 -35.15,78.5 -78.5,78.5c-43.35,0 -78.5,-35.15 -78.5,-78.5c0,-43.35 35.15,-78.5 78.5,-78.5z"></path><path id="鍦嗗舰_2" fill-rule="evenodd" style="fill:#3EA875" opacity="1" d="M560.43,261c25.96,0 47,21.04 47,47c0,25.96 -21.04,47 -47,47c-25.96,0 -47,-21.04 -47,-47c0,-25.96 21.04,-47 47,-47z"></path><path id="鍦嗗舰_1-2" fill-rule="evenodd" style="fill:#3EA875" opacity="1" d="M354.73,53c43.35,0.01 78.49,35.15 78.5,78.5c0,43.35 -35.15,78.5 -78.5,78.5c-43.35,0 -78.5,-35.15 -78.5,-78.5c0,-43.35 35.15,-78.5 78.5,-78.5z"></path><path id="鍦嗗舰_1-3" fill-rule="evenodd" style="fill:#329C68" opacity="1" d="M320.73,210c43.35,0.01 78.49,35.15 78.5,78.5c0,43.35 -35.15,78.5 -78.5,78.5c-43.35,0 -78.5,-35.15 -78.5,-78.5c0,-43.35 35.15,-78.5 78.5,-78.5z"></path><path id="鍦嗗舰_2-2" fill-rule="evenodd" style="fill:#3EA875" opacity="1" d="M101.18,155.72c30.61,0 55.44,26.16 55.44,58.42c0,32.26 -24.82,58.41 -55.44,58.41c-30.62,0 -55.43,-26.14 -55.43,-58.41c0,-32.27 24.81,-58.42 55.43,-58.42z"></path><path id="鍦嗗舰_1-4" fill-rule="evenodd" style="fill:#3EA875" opacity="1" d="M662.73,315c43.35,0.01 78.49,35.15 78.5,78.5c0,43.35 -35.15,78.5 -78.5,78.5c-43.35,0 -78.5,-35.15 -78.5,-78.5c0,-43.35 35.15,-78.5 78.5,-78.5z"></path><path id="鍦嗗舰_1-5" fill-rule="evenodd" style="fill:#329C68" opacity="1" d="M138.61,251.55c20.67,0 37.43,16.76 37.43,37.43c0,20.67 -16.76,37.43 -37.43,37.43c-20.67,0 -37.43,-16.76 -37.43,-37.43c0,-20.67 16.76,-37.43 37.43,-37.43z"></path><path id="鍦嗗舰_1-6" fill-rule="evenodd" style="fill:#59C28F" opacity="1" d="M276.73,79c43.35,0.01 78.49,35.15 78.5,78.5c0,43.35 -35.15,78.5 -78.5,78.5c-43.35,0 -78.5,-35.15 -78.5,-78.5c0,-43.35 35.15,-78.5 78.5,-78.5z"></path><path id="鍦嗗舰_1-7" fill-rule="evenodd" style="fill:#70E6AD" opacity="1" d="M220.73,146c25.59,0 50.14,10.16 68.24,28.26c18.1,18.1 28.26,42.65 28.26,68.24c0,53.3 -43.2,96.5 -96.5,96.5c-53.3,0 -96.5,-43.2 -96.5,-96.5c0,-53.3 43.2,-96.5 96.5,-96.5z"></path><path id="鍦嗗舰_2-3" fill-rule="evenodd" style="fill:#3EA875" opacity="1" d="M621.23,103c25.96,0 47,21.04 47,47c0,25.96 -21.04,47 -47,47c-25.96,0 -47,-21.04 -47,-47c0,-25.96 21.04,-47 47,-47z"></path><path id="鍦嗗舰_2-4" fill-rule="evenodd" style="fill:#59C28F" opacity="1" d="M607.23,56c25.96,0 47,21.04 47,47c0,25.96 -21.04,47 -47,47c-25.96,0 -47,-21.04 -47,-47c0,-25.96 21.04,-47 47,-47z"></path><path id="鍦嗗舰_2-5" fill-rule="evenodd" style="fill:#59C28F" opacity="1" d="M518.23,254c25.96,0 47,21.04 47,47c0,25.96 -21.04,47 -47,47c-25.96,0 -47,-21.04 -47,-47c0,-25.96 21.04,-47 47,-47z"></path><path id="鍦嗗舰_2-6" fill-rule="evenodd" style="fill:#59C28F" opacity="1" d="M501.68,39c25.96,0 47,21.04 47,47c0,25.96 -21.04,47 -47,47c-25.96,0 -47,-21.04 -47,-47c0,-25.96 21.04,-47 47,-47z"></path><path id="鍦嗗舰_2-7" fill-rule="evenodd" style="fill:#3EA875" opacity="1" d="M454.36,93c16.43,0 29.68,13.99 29.68,31.27c0,17.28 -13.29,31.28 -29.68,31.28c-16.39,0 -29.68,-14.01 -29.68,-31.28c0,-17.27 13.29,-31.27 29.68,-31.27z"></path><path id="鍦嗗舰_2-8" fill-rule="evenodd" style="fill:#59C28F" opacity="1" d="M746.68,330c25.96,0 47,21.04 47,47c0,25.96 -21.04,47 -47,47c-25.96,0 -47,-21.04 -47,-47c0,-25.96 21.04,-47 47,-47z"></path><path id="鍦嗗舰_1-8" fill-rule="evenodd" style="fill:#70E6AD" opacity="1" d="M556.61,199.55c14.44,0 28.28,5.73 38.49,15.94c10.21,10.21 15.94,24.05 15.94,38.49c0,30.06 -24.37,54.43 -54.43,54.43c-30.06,0 -54.43,-24.37 -54.43,-54.43c0,-30.06 24.37,-54.43 54.43,-54.43z"></path><path id="路径 2" fill-rule="evenodd" style="fill:#D9BDB2" opacity="1" d="M353.32,580.55zM313.01,559.81l40.31,20.74v43.6l-50,-47.6l-13.7,-49.42z"></path><path id="鍦嗗舰_1-9" fill-rule="evenodd" style="fill:#329C68" opacity="1" d="M279.789,505.55c12.61,0 24.7,5 33.62,13.92c8.91,8.91 13.92,21 13.92,33.61c0.01,19.23 -11.57,36.57 -29.34,43.93c-17.76,7.36 -38.21,3.29 -51.81,-10.3c-13.6,-13.6 -17.67,-34.04 -10.31,-51.81c7.36,-17.77 24.69,-29.35 43.92,-29.35z"></path><path id="鍦嗗舰_2-9" fill-rule="evenodd" style="fill:#59C28F" opacity="1" d="M241.949,507c8.83,-0.01 17.29,3.5 23.54,9.74c6.24,6.24 9.74,14.7 9.74,23.53c0.01,13.46 -8.1,25.6 -20.54,30.75c-12.43,5.16 -26.75,2.31 -36.27,-7.2c-9.52,-9.52 -12.37,-23.84 -7.22,-36.27c5.15,-12.44 17.29,-20.55 30.75,-20.55z"></path><path id="路径 3" fill-rule="evenodd" style="fill:#D9BDB2" opacity="1" d="M487.34,662.96zM487.34,684.4v-21.44l41.1,-27.58l41.09,-21.95l-20.85,28.08z"></path><path id="鍦嗗舰_1-10" fill-rule="evenodd" style="fill:#70E6AD" opacity="1" d="M266.96,293.55c30.06,0 54.43,24.37 54.43,54.43c0,30.06 -24.37,54.43 -54.43,54.43c-30.06,0 -54.43,-24.37 -54.43,-54.43c0,-30.06 24.37,-54.43 54.43,-54.43z"></path><path id="鍦嗗舰_1-11" fill-rule="evenodd" style="fill:#329C68" opacity="1" d="M548.87,582.46c19.57,0 35.45,16.64 35.45,37.05c0,20.41 -15.87,37 -35.45,37c-19.58,0 -35.45,-16.54 -35.45,-37c0,-20.46 15.87,-37.05 35.45,-37.05z"></path><path id="鍦嗗舰_1-12" fill-rule="evenodd" style="fill:#70E6AD" opacity="1" d="M548.419,615.55c8.73,0 17.09,3.46 23.26,9.63c6.17,6.17 9.64,14.54 9.64,23.26c0.01,13.31 -8.01,25.31 -20.3,30.4c-12.3,5.1 -26.45,2.29 -35.86,-7.12c-9.41,-9.41 -12.23,-23.56 -7.14,-35.86c5.1,-12.29 17.09,-20.31 30.4,-20.31z"></path><path id="鍦嗗舰_1-13" fill-rule="evenodd" style="fill:#70E6AD" opacity="1" d="M231.89,43.55c19.57,0 35.43,15.86 35.43,35.43c0,19.57 -15.86,35.43 -35.43,35.43c-19.57,0 -35.43,-15.86 -35.43,-35.43c0,-19.57 15.86,-35.43 35.43,-35.43z"></path><path id="鍦嗗舰_1-14" fill-rule="evenodd" style="fill:#70E6AD" opacity="1" d="M439.89,18.55c12.31,0 24.13,4.89 32.83,13.6c8.71,8.7 13.6,20.52 13.6,32.83c0,25.64 -20.79,46.43 -46.43,46.43c-25.64,0 -46.43,-20.79 -46.43,-46.43c0,-25.64 20.79,-46.43 46.43,-46.43z"></path><path id="鍦嗗舰_2-10" fill-rule="evenodd" style="fill:#59C28F" opacity="1" d="M458.229,137c12.01,0 23.53,4.77 32.02,13.26c8.49,8.49 13.26,20 13.26,32.01c0.01,18.31 -11.02,34.83 -27.94,41.84c-16.92,7.01 -36.4,3.14 -49.35,-9.81c-12.95,-12.95 -16.83,-32.42 -9.82,-49.35c7.01,-16.92 23.52,-27.95 41.83,-27.95z"></path><path id="鍦嗗舰_1-15" fill-rule="evenodd" style="fill:#3EA875" opacity="1" d="M380.39,383.55c26.47,0 47.93,21.46 47.93,47.93c0,26.47 -21.46,47.93 -47.93,47.93c-26.47,0 -47.93,-21.46 -47.93,-47.93c0,-26.47 21.46,-47.93 47.93,-47.93z"></path><path id="鍦嗗舰_1-16" fill-rule="evenodd" style="fill:#59C28F" opacity="1" d="M153.43,280.55c43.35,0.01 78.49,35.15 78.5,78.5c0,43.35 -35.15,78.5 -78.5,78.5c-43.35,0 -78.5001,-35.15 -78.5001,-78.5c0,-43.35 35.1501,-78.5 78.5001,-78.5z"></path><path id="鍦嗗舰_1-17" fill-rule="evenodd" style="fill:#59C28F" opacity="1" d="M148.22,45.55c37.71,0 68.28,32.42 68.28,72.47c0,40.05 -30.57,72.53 -68.28,72.53c-37.71,0 -68.2901,-32.43 -68.2901,-72.48c0,-40.0499 30.5801,-72.52 68.2901,-72.52z"></path><path id="鍦嗗舰_1-18" fill-rule="evenodd" style="fill:#70E6AD" opacity="1" d="M54.43,284.55c14.44,0 28.28,5.73 38.49,15.94c10.21,10.21 15.94,24.05 15.94,38.49c0,30.06 -24.37,54.43 -54.43,54.43c-30.06,0 -54.43,-24.37 -54.43,-54.43c0,-30.06 24.37,-54.43 54.43,-54.43z"></path><path id="鍦嗗舰_1-19" fill-rule="evenodd" style="fill:#70E6AD" opacity="1" d="M528.43,112.55c14.44,0 28.28,5.73 38.49,15.94c10.21,10.21 15.94,24.05 15.94,38.49c0,30.06 -24.37,54.43 -54.43,54.43c-30.06,0 -54.43,-24.37 -54.43,-54.43c0,-30.06 24.37,-54.43 54.43,-54.43z"></path><path id="鍦嗗舰_1-20" fill-rule="evenodd" style="fill:#70E6AD" opacity="1" d="M595.43,402.55c14.44,0 28.28,5.73 38.49,15.94c10.21,10.21 15.94,24.05 15.94,38.49c0,30.06 -24.37,54.43 -54.43,54.43c-30.06,0 -54.43,-24.37 -54.43,-54.43c0,-30.06 24.37,-54.43 54.43,-54.43z"></path><path id="鍦嗗舰_2-11" fill-rule="evenodd" style="fill:#59C28F" opacity="1" d="M404.43,242c25.96,0 47,21.04 47,47c0,25.96 -21.04,47 -47,47c-25.96,0 -47,-21.04 -47,-47c0,-25.96 21.04,-47 47,-47z"></path><path id="鍦嗗舰_1-21" fill-rule="evenodd" style="fill:#70E6AD" opacity="1" d="M275.43,485.55c19.57,0 35.43,15.86 35.43,35.43c0,19.57 -15.86,35.43 -35.43,35.43c-19.57,0 -35.43,-15.86 -35.43,-35.43c0,-19.57 15.86,-35.43 35.43,-35.43z"></path></g></g><g opacity="1"  transform="translate(650 280)  rotate(0)"><g opacity="1"  transform="translate(22.3984375 47.44482421875)  rotate(0)"><path id="路径 1" fill-rule="evenodd" style="fill:#F42144" opacity="1" d="M7.59 14.1C6.5 15.7 6.57 17.98 7.84 19.53C8.1 19.86 9.51 19.35 9.22 19C8.25 17.81 8.05 16.22 8.57 14.83C10.14 15.92 11.87 16.79 13.7 17.38C14.38 17.6 15.43 16.62 14.54 16.33C12.63 15.71 10.85 14.79 9.26 13.62C10.65 12.02 13.14 12.8 14.33 14.29C14.59 14.62 16 14.12 15.71 13.76C14.07 11.7 11 11.59 8.85 12.9C8.75 12.96 8.66 13.03 8.57 13.09C4.71 9.98 2.08 5.41 1.47 0.4C1.38 -0.33 -0.09 0.04 0 0.79C0.63 6.06 3.48 10.86 7.59 14.1Z"></path><path id="路径 2" fill-rule="evenodd" style="fill:#F42144" opacity="1" d="M24.1187 16.073C23.2588 14.823 22.4587 13.543 22.6488 11.973C22.6688 11.843 22.6887 11.723 22.7288 11.593C23.6488 12.453 24.6287 13.253 25.7087 13.963C26.0387 14.183 27.2487 13.573 27.0988 13.483C25.7788 12.603 24.5887 11.593 23.4888 10.493C23.8888 10.193 24.3787 10.023 24.8988 10.083C25.6688 10.183 26.2588 10.743 26.6787 11.343C26.9487 11.723 28.3787 11.243 28.0487 10.783C26.8888 9.14303 24.5688 8.82303 22.8888 9.87303C20.3088 7.09303 18.2987 3.79303 16.4487 0.453027C16.2687 0.123027 14.8787 0.683027 14.9788 0.843027C16.9387 4.37303 19.0788 7.86303 21.8787 10.753C20.4688 12.503 21.4888 14.783 22.7488 16.633C23.0088 17.013 24.4388 16.543 24.1187 16.073Z"></path></g><path id="路径 3" fill-rule="evenodd" style="fill:#F42144" opacity="1" d="M4.61225 10.34C5.85225 8.95 7.30225 7.76 8.90225 6.81C6.28225 4.73 3.82225 2.45 1.55225 0C1.70225 1.66 2.39225 3.3 2.88225 4.85C3.45225 6.68 4.03225 8.51 4.61225 10.34Z"></path><path id="路径 4" fill-rule="evenodd" style="fill:#A4C441" opacity="1" d="M59.88 38.4054C56.95 39.0154 53.85 38.6954 51.1 37.4254C47.53 35.7754 44.76 32.9954 42.33 29.9654C36.3 22.3054 32.03 12.4854 23.18 7.53539C18.97 5.18539 13.78 3.94539 9.27 6.23539C5.06 8.37539 2.04 12.3654 0.79 16.8854C-1.08 23.5954 0.46 30.8154 4.36 36.5254C8.38 42.4054 14.49 46.5354 21.32 48.4454C34.99 52.2754 49.71 48.1054 59.88 38.4054Z"></path><path id="路径 5" fill-rule="evenodd" style="fill:#A39586" opacity="1" d="M49.1134 9.20072C45.3834 12.5607 40.6434 14.2007 35.6334 13.9407C31.6834 13.7307 27.3034 13.0807 24.3434 16.3407C22.0334 18.8807 22.0034 22.9007 23.5534 25.8007C25.4634 29.3807 29.7734 31.1307 33.6234 31.3907C38.9734 31.6107 44.1734 29.3707 47.6334 25.2707C51.2834 20.9307 52.2134 14.6307 50.3334 9.33072C50.1734 8.87072 49.4134 8.93072 49.1134 9.20072Z"></path><path id="路径 6" fill-rule="evenodd" style="fill:#BCA3C2" opacity="1" d="M49.9056 10.3501C47.1256 12.5701 43.7656 14.0701 40.2356 14.5501C38.2056 14.8301 36.2156 14.7301 34.1756 14.5801C32.1256 14.4301 29.7556 14.2001 27.8756 15.2301C24.7556 16.9501 23.9456 21.3201 25.4256 24.4001C27.1456 28.0001 31.0856 29.7901 34.8956 30.0501C39.9656 30.2501 45.2456 27.7501 48.0056 23.4101C50.4956 19.5001 51.1756 14.7601 49.9056 10.3501Z"></path><path id="分组 4" fill-rule="evenodd" style="fill:#C6E058" opacity="1" d="M13.7948,8.46309c1.79,-0.15 2.7,2.10001 2.55,3.04001c-0.18,1.1 -0.84,1.84 -1.58,2.37c-1.36,0.98 -4.45,1.35 -4.82998,-1.36c-0.37,-2.67001 2.07998,-3.90001 3.85998,-4.05001zM13.2121,11.9299c0.01,0.01 0.01,0.03 0.02,0.04v-0.05c-0.01,0.01 -0.02,0.01 -0.02,0.01z"></path><path id="分组 5" fill-rule="evenodd" style="fill:#000000" opacity="1" d="M13.5768,9.4551c1.2,-0.10001 1.82,1.42 1.71,2.05c-0.12,0.75 -0.56,1.24 -1.06,1.6c-0.92,0.65 -3,0.9 -3.25,-0.92c-0.25,-1.8 1.4,-2.63 2.6,-2.73zM13.1824,11.79c0,0.01 0.01,0.02 0.01,0.03v-0.03c0,0.01 -0.01,0.01 -0.01,0z"></path><path id="路径 28" fill-rule="evenodd" style="fill:#FFFFFF" opacity="1" d="M14.0123 10.6899C13.6623 10.6899 13.3823 10.9599 13.3823 11.2799C13.3923 11.5999 13.6723 11.8599 14.0223 11.8599C14.3723 11.8599 14.6523 11.5899 14.6523 11.2699C14.6523 10.9499 14.3623 10.6899 14.0123 10.6899Z"></path><path id="路径 29" fill-rule="evenodd" style="fill:#BCA3C2" opacity="1" d="M66.0071 35.3671C65.7171 35.4471 65.4271 35.5271 65.1471 35.6171C65.8471 35.187 66.5271 34.717 67.1071 34.1571C68.7771 32.5371 69.6071 29.5671 67.3371 28.0371C64.7871 26.3171 61.9671 28.9171 60.4771 30.7571C58.4971 33.217 57.1471 36.097 56.3071 39.1271C56.2471 39.3571 56.2971 39.5371 56.4271 39.647C56.4171 39.6571 56.4071 39.667 56.4071 39.667C56.0971 40.0871 56.6771 40.257 56.9871 40.257C60.5471 40.2471 64.0971 40.2471 67.6571 40.2371C69.6371 40.2271 73.1171 39.6371 72.6571 36.9271C72.1671 33.9971 67.8571 34.8671 66.0071 35.3671Z"></path></g><g opacity="1"  transform="translate(330 0)  rotate(0)"><path id="路径 288" fill-rule="evenodd" style="fill:#76A0AD" opacity="1" d="M14.14 14.87C12.64 20.78 12.12 26.83 12.01 32.87C11.9 39.33 12.45 46.25 17.13 51.37C20.4 54.94 25.39 57.21 30.59 58.29C36.59 59.53 43.18 59.23 48.59 56.75C54.01 54.27 58.01 49.41 58 44.24C55.56 44.3 53.09 44.36 50.71 43.94C48.31 43.51 45.98 42.58 44.48 40.96C42.56 38.89 42.29 36.09 42.2 33.47C41.97 25.93 42.69 18.31 41.04 10.9C40.14 6.87 38.16 2.56 33.77 0.77C29.29 -1.05 23.63 0.54 20.21 3.58C16.78 6.62 15.17 10.78 14.14 14.87Z"></path><path id="路径 289" fill-rule="evenodd" style="fill:#82DCD3" opacity="1" d="M27.778 3.65525C27.048 3.74525 26.348 4.10525 25.908 4.68525C25.348 5.40525 25.228 6.36525 25.208 7.27525C25.198 7.71525 25.218 8.17525 25.458 8.54525C25.698 8.92525 26.138 9.12525 26.568 9.26525C27.678 9.62525 28.928 9.61525 29.948 9.05525C30.968 8.49525 31.668 7.31525 31.478 6.16525C31.328 5.29525 30.678 4.54525 29.888 4.10525C29.248 3.74525 28.498 3.57525 27.778 3.65525Z"></path><path id="路径 290" fill-rule="evenodd" style="fill:#000000" opacity="1" d="M27.9898 8.30336C28.4598 8.26336 28.9398 8.19336 29.3698 7.99336C29.7998 7.79336 30.1798 7.44336 30.3298 7.00336C30.5098 6.48336 30.3398 5.87336 29.9498 5.47336C29.5598 5.07336 28.9798 4.89336 28.4298 4.95336C27.8798 5.00336 27.3598 5.28336 26.9698 5.67336C26.6098 6.03336 26.3498 6.50336 26.3398 7.01336C26.3398 7.51336 26.6198 8.03336 27.0898 8.22336C27.3698 8.33336 27.6898 8.32336 27.9898 8.30336Z"></path><path id="路径 291" fill-rule="evenodd" style="fill:#FFFFFF" opacity="1" d="M28.7094 7.11424C28.9094 7.35424 29.3294 7.38424 29.5394 7.15424C29.7094 6.90424 29.7694 6.57424 29.6894 6.28424C29.4694 6.03424 29.0394 6.03424 28.7894 6.26424C28.5594 6.47424 28.5194 6.87424 28.7094 7.11424Z"></path><path id="路径 292" fill-rule="evenodd" style="fill:#82DCD3" opacity="1" d="M30.01 31.63C29.79 35.42 32.68 39.15 36.4 39.89C40.12 40.63 44.22 38.3 45.48 34.72C43.99 34.42 42.89 33.15 42.07 31.87C41.25 30.59 40.54 29.17 39.33 28.25C38.17 27.37 36.68 27.05 35.22 27C34.04 26.97 32.8 27.12 31.84 27.81C30.65 28.66 30.09 30.17 30.01 31.63Z"></path><path id="路径 293" fill-rule="evenodd" style="fill:#5BBCB0" opacity="1" d="M35.7118 37.7937C33.2818 37.3037 31.2018 35.5437 30.1218 33.3237C30.6818 36.4737 33.2418 39.2637 36.4018 39.9037C40.1218 40.6437 44.2218 38.3137 45.4818 34.7337C44.9518 34.6237 44.4818 34.3937 44.0618 34.1037C42.3418 36.8237 38.8918 38.4237 35.7118 37.7937Z"></path><g opacity="1"  transform="translate(24 56)  rotate(0)"><path id="路径 294" fill-rule="evenodd" style="fill:#3F3933" opacity="1" d="M19.2775 19.0118C19.2375 19.0118 19.1975 19.0018 19.1475 19.0018C19.1675 18.8818 19.1875 18.7218 19.1975 18.5218C19.2375 17.2118 19.0875 14.6418 19.0775 13.3318C19.0675 11.7818 19.0675 10.5618 19.0275 9.01178C18.9875 7.44178 19.1975 5.81178 19.1175 4.24178C19.1075 3.94178 18.8675 3.09178 18.8475 2.79178C18.8275 2.46178 18.2575 2.38178 18.2575 3.48178C18.2575 4.11178 18.1975 4.93178 18.2175 5.90178C18.2475 6.87178 18.1275 8.05178 18.1475 9.17178C18.1775 10.6418 18.3575 12.0718 18.3775 13.4218C18.3975 14.8918 18.5075 16.8718 18.5675 18.0718C18.4375 17.8818 18.3375 17.6018 18.1175 17.4218C17.9675 17.3018 17.7875 17.2218 17.6075 17.1718C17.4275 17.1118 17.2575 17.0718 17.0975 17.0118C16.8575 16.9118 16.5275 16.8818 16.2475 16.9018C15.9775 16.9118 15.7575 16.9718 15.6875 16.9618C15.6475 16.9618 15.6175 17.0918 15.6375 17.2318C15.6575 17.3718 15.7275 17.5118 15.8575 17.5318C15.9275 17.5418 16.0075 17.5518 16.0875 17.5518C16.1775 17.5618 16.2675 17.5518 16.3675 17.5618C16.5575 17.5718 16.7475 17.6118 16.8775 17.6618C17.1675 17.7918 17.3575 17.9318 17.5975 18.1118C17.6575 18.1618 17.7075 18.2218 17.7475 18.2918C17.7575 18.3118 17.7675 18.3418 17.7775 18.3618C17.7675 18.3618 17.7675 18.3518 17.7575 18.3518C17.5975 18.2918 17.4175 18.2118 17.2475 18.1918C17.1275 18.1818 17.0175 18.1818 16.8975 18.1818C16.7875 18.1918 16.6675 18.1918 16.5575 18.2118C16.4475 18.2318 16.3375 18.2518 16.2275 18.2618C16.1175 18.2718 16.0175 18.2818 15.9075 18.2918C15.7475 18.3018 15.5675 18.3218 15.3875 18.3518C15.2075 18.3918 15.0375 18.4418 14.8775 18.4918C14.7175 18.5318 14.5775 18.6018 14.4575 18.6418C14.3475 18.6818 14.2575 18.7118 14.2175 18.7218C14.1175 18.7418 14.1675 19.2718 14.5375 19.2318C14.8975 19.1618 15.5875 18.9818 15.9575 18.9718C16.1775 18.9718 16.3675 18.9918 16.5575 19.0018C16.7475 19.0218 16.9375 19.0518 17.1575 19.0618C17.3175 19.0818 17.4775 19.1518 17.6375 19.2218C17.5575 19.2418 17.4675 19.2618 17.3875 19.2818C17.2375 19.3218 17.0775 19.3418 16.9275 19.3818C16.6975 19.4318 16.4475 19.5018 16.1875 19.5718C15.9375 19.6518 15.6875 19.7618 15.4575 19.8518C15.2275 19.9318 15.0275 20.0418 14.8675 20.1218C14.7075 20.2018 14.5875 20.2518 14.5275 20.2718C14.3875 20.3218 14.4275 20.8718 14.9775 20.7218C15.5075 20.5318 16.5475 20.1518 17.1075 20.0518C17.1875 20.0318 17.2675 20.0218 17.3475 20.0118C17.4275 20.0018 17.5075 19.9918 17.5775 19.9818C17.7275 19.9618 17.8775 19.9418 18.0275 19.9318C18.3275 19.9018 18.6175 19.8918 18.9575 19.8618C19.1275 19.8518 19.2975 19.8718 19.4675 19.8918C19.6375 19.9118 19.8075 19.9318 19.9775 19.9718C20.1475 20.0118 20.3075 20.0518 20.4775 20.0818C20.6475 20.1118 20.8075 20.1318 20.9775 20.1518C21.0975 20.1618 21.4975 20.0018 21.6275 20.0118C21.7975 20.0118 21.9575 19.4518 21.4675 19.3618C21.3275 19.3318 21.1675 19.2918 20.9875 19.2418C20.8075 19.2018 20.6075 19.1718 20.3875 19.1518C20.2775 19.1418 20.1575 19.1318 20.0375 19.1118C19.9175 19.0918 19.7975 19.0818 19.6675 19.0618C19.5375 19.0418 19.4075 19.0218 19.2775 19.0118Z"></path><path id="路径 295" fill-rule="evenodd" style="fill:#3F3933" opacity="1" d="M2.67 17.18C2.53 17.16 2.37 17.14 2.22 17.13C2.06 17.13 1.9 17.15 1.75 17.16C1.6 17.17 1.47 17.2 1.37 17.22C1.27 17.24 1.19 17.25 1.15 17.25C1.06 17.25 1.03 17.78 1.35 17.82C1.66 17.83 2.26 17.79 2.57 17.86C2.75 17.9 2.9 17.97 3.06 18.01C3.21 18.07 3.36 18.13 3.53 18.19C3.7 18.26 3.84 18.4 3.97 18.53C3.98 18.54 3.98 18.55 3.99 18.55L3.98 18.55C3.81 18.56 3.65 18.56 3.49 18.59C3.33 18.61 3.17 18.64 3.01 18.66C2.85 18.68 2.7 18.69 2.54 18.71C2.31 18.74 2.05 18.78 1.79 18.83C1.53 18.89 1.27 18.97 1.04 19.04C0.8 19.1 0.6 19.2 0.43 19.26C0.26 19.33 0.14 19.37 0.08 19.39C-0.07 19.43 -0.06 19.98 0.49 19.87C0.63 19.84 0.79 19.79 0.97 19.74C1.15 19.7 1.35 19.65 1.55 19.6C1.65 19.57 1.75 19.55 1.85 19.52C1.95 19.5 2.05 19.49 2.14 19.47C2.29 19.45 2.42 19.43 2.54 19.41C2.44 19.49 2.34 19.56 2.24 19.63C2.12 19.71 1.99 19.81 1.86 19.91C1.74 20.02 1.62 20.14 1.51 20.25C1.4 20.36 1.32 20.47 1.24 20.55C1.17 20.63 1.11 20.7 1.09 20.72C1.02 20.78 1.32 21.22 1.61 21.03C1.88 20.82 2.34 20.36 2.64 20.19C2.81 20.09 2.98 20.02 3.13 19.94C3.29 19.87 3.45 19.8 3.63 19.71C3.81 19.63 4.03 19.61 4.23 19.6C4.33 19.6 4.44 19.6 4.54 19.59C4.64 19.58 4.73 19.56 4.83 19.53C4.84 19.53 4.86 19.52 4.87 19.5C4.9 19.51 4.94 19.52 4.97 19.52C5.13 19.57 5.3 19.61 5.46 19.67C5.62 19.73 5.77 19.8 5.93 19.85C6.09 19.9 6.25 19.94 6.4 19.99C6.52 20.02 6.93 19.92 7.06 19.96C7.18 19.98 7.43 19.46 6.96 19.29C6.83 19.24 6.68 19.17 6.51 19.09C6.34 19.02 6.14 18.96 5.93 18.91C5.82 18.89 5.71 18.85 5.6 18.81C5.49 18.77 5.36 18.74 5.24 18.71C5.22 18.71 5.21 18.7 5.19 18.7C5.2 18.57 5.21 18.42 5.21 18.23C5.21 16.73 4.98 13.8 4.93 12.3C4.87 10.52 4.84 9.13 4.75 7.36C4.66 5.56 4.81 3.7 4.69 1.9C4.67 1.55 4.4 0.59 4.38 0.24C4.35 -0.13 3.77 -0.21 3.82 1.05C3.84 1.77 3.8 2.71 3.86 3.82C3.92 4.93 3.83 6.28 3.89 7.56C3.97 9.24 4.19 10.87 4.25 12.42C4.32 14.2 4.51 16.61 4.61 17.95C4.59 17.94 4.58 17.93 4.56 17.92C4.5 17.89 4.45 17.84 4.39 17.79C4.34 17.74 4.28 17.7 4.22 17.64C4.1 17.54 3.97 17.43 3.83 17.37C3.73 17.33 3.64 17.31 3.54 17.29C3.44 17.27 3.34 17.25 3.24 17.24C3.14 17.23 3.04 17.23 2.95 17.22C2.85 17.21 2.76 17.19 2.67 17.18Z"></path></g><path id="路径 296" fill-rule="evenodd" style="fill:#544E48" opacity="1" d="M58,44.4zM58,44.4c0,-0.04 0,-0.07 0,-0.11c-0.02,-1.36 0.28,-2.7 0.73,-3.93c0.12,-0.34 0.26,-0.69 0.47,-0.95c0.2,-0.26 0.49,-0.44 0.78,-0.4c0.36,0.05 0.65,0.46 0.74,0.93c0.09,0.47 -0.01,0.97 -0.19,1.38c-0.18,0.42 -0.45,0.76 -0.71,1.09c-0.21,0.27 -0.43,0.52 -0.65,0.77c0.61,-0.54 1.28,-1 1.97,-1.4c0.31,-0.19 0.64,-0.36 0.97,-0.43c0.33,-0.07 0.67,-0.03 0.86,0.19c0.24,0.27 0.2,0.78 -0.03,1.19c-0.23,0.41 -0.62,0.73 -1.03,0.93c-0.28,0.14 -0.57,0.23 -0.85,0.3c0.34,0.01 0.68,0.03 1.02,0.07c0.37,0.04 0.73,0.09 1.04,0.23c0.31,0.13 0.56,0.37 0.59,0.65c0.04,0.37 -0.29,0.75 -0.72,0.95c-0.43,0.2 -0.93,0.23 -1.38,0.15c-0.45,-0.07 -0.85,-0.24 -1.23,-0.42c-0.77,-0.36 -1.51,-0.76 -2.22,-1.2c-0.05,0 -0.11,0.01 -0.16,0.01z"></path><path id="路径 297" fill-rule="evenodd" style="fill:#FFDBDC" opacity="1" d="M14.14 16.07C12.64 21.83 12.12 27.73 12.01 33.63C11.9 39.92 12.45 46.67 17.14 51.66C20.41 55.14 25.41 57.35 30.62 58.41C32.05 58.69 33.52 58.88 35 59C32.68 57.3 31.12 54.89 30.3 52.41C29.22 49.19 29.22 45.81 29.23 42.48C29.24 36.42 29.25 30.38 29.26 24.32C29.26 21.88 29.26 19.42 28.62 17.04C27.98 14.65 26.64 12.32 24.35 10.75C22.3 9.34 19.4 8.64 16.82 9.19C15.56 11.34 14.74 13.71 14.14 16.07Z"></path><path id="路径 298" fill-rule="evenodd" style="fill:#B7D66A" opacity="1" d="M5.54 9.96443C7.77 11.5144 12.58 12.5744 15.24 11.9944C16.26 11.2344 18.06 8.80443 18.22 6.09443C12.25 8.55443 5.21 7.85443 0 4.04443C1.58 6.25443 3.31 8.41443 5.54 9.96443Z"></path></g><g opacity="1"  transform="translate(394 384)  rotate(0)"><path id="路径 72" fill-rule="evenodd" style="fill:#775836" opacity="1" d="M7.02776 7.81956L3.08777 5.65955C2.66777 5.42955 2.11777 5.53955 1.85777 5.89955C1.59777 6.26955 1.71777 6.74955 2.13777 6.96955L6.06776 9.12956C6.48776 9.35956 7.03776 9.24956 7.30776 8.88956C7.56776 8.52956 7.43776 8.04956 7.02776 7.81956Z"></path><path id="路径 73" fill-rule="evenodd" style="fill:#775836" opacity="1" d="M2.59558 19.3141L6.53558 17.1541C6.95557 16.9341 7.07557 16.4541 6.80557 16.0841C6.54558 15.7241 5.99558 15.6141 5.57558 15.8441L1.63559 18.0041C1.22559 18.2241 1.09559 18.7041 1.36559 19.0741C1.62559 19.4341 2.17558 19.5441 2.59558 19.3141Z"></path><path id="路径 74" fill-rule="evenodd" style="fill:#775836" opacity="1" d="M5.56001 11.4831L0.910002 11.4331C0.410001 11.4231 0.01 11.7731 0 12.203C-0.01 12.623 0.390001 12.973 0.880002 12.983L5.54001 13.033C6.03001 13.043 6.44001 12.703 6.44001 12.273C6.45001 11.8431 6.05001 11.4931 5.56001 11.4831Z"></path><path id="路径 75" fill-rule="evenodd" style="fill:#775836" opacity="1" d="M15.9301 9.12956L19.8701 6.96955C20.2901 6.74955 20.4101 6.26955 20.1401 5.89955C19.8801 5.53955 19.3301 5.42955 18.9101 5.65955L14.9701 7.81956C14.5601 8.04956 14.4301 8.52956 14.7001 8.88956C14.9601 9.24956 15.5101 9.35956 15.9301 9.12956Z"></path><path id="路径 76" fill-rule="evenodd" style="fill:#775836" opacity="1" d="M20.3622 18.0041L16.4222 15.8441C16.0022 15.6141 15.4522 15.7241 15.1922 16.0841C14.9322 16.4541 15.0522 16.9341 15.4722 17.1541L19.4022 19.3141C19.8222 19.5441 20.3722 19.4341 20.6422 19.0741C20.9022 18.7041 20.7722 18.2241 20.3622 18.0041Z"></path><path id="路径 77" fill-rule="evenodd" style="fill:#775836" opacity="1" d="M16.4671 13.033L21.1171 12.983C21.6071 12.973 22.0071 12.623 21.9971 12.203C21.9971 11.7731 21.5871 11.4231 21.0971 11.4331L16.4371 11.4831C15.9471 11.4931 15.5471 11.8431 15.5571 12.273C15.5671 12.703 15.9671 13.043 16.4671 13.033Z"></path><path id="路径 78" fill-rule="evenodd" style="fill:#775836" opacity="1" d="M14.1847 4.67023C14.1847 3.74023 13.3147 2.99023 12.2447 2.99023L9.74469 2.99023C8.67469 2.99023 7.80469 3.74023 7.80469 4.67023L7.80469 6.84022C7.80469 7.77022 8.67469 8.52021 9.74469 8.52021L12.2447 8.52021C13.3147 8.52021 14.1847 7.77022 14.1847 6.84022L14.1847 4.67023Z"></path><g opacity="1"  transform="translate(3.85400390625 6.42431640625)  rotate(0)"><path id="路径 79" fill-rule="evenodd" style="fill:#EF6D62" opacity="1" d="M14.27 4.37002C14.27 1.95001 12.01 0 9.22999 0L5.03999 0C2.25 0 0 1.95001 0 4.37002L0 9.21004C0 11.6201 2.25 13.5801 5.03999 13.5801L9.22999 13.5801C12.02 13.5801 14.27 11.6201 14.27 9.21004L14.27 4.37002Z"></path><path id="路径 80" fill-rule="evenodd" style="fill:#775836" opacity="1" d="M6.6897 13.5771L7.57972 13.5771L7.57972 0L6.6897 0L6.6897 13.5771Z"></path><path id="路径 81" fill-rule="evenodd" style="fill:#775836" opacity="1" d="M4.11364 1.14551C3.34364 1.14551 2.72363 1.6855 2.72363 2.3555C2.72363 3.01549 3.34364 3.55549 4.11364 3.55549C4.88365 3.55549 5.50365 3.01549 5.50365 2.3555C5.50365 1.6855 4.88365 1.14551 4.11364 1.14551Z"></path><path id="路径 82" fill-rule="evenodd" style="fill:#775836" opacity="1" d="M3.30229 4.60303C2.08229 4.60303 1.09229 5.46303 1.09229 6.51304C1.09229 7.57305 2.08229 8.43305 3.30229 8.43305C4.52229 8.43305 5.50229 7.57305 5.50229 6.51304C5.50229 5.46303 4.52229 4.60303 3.30229 4.60303Z"></path><path id="路径 83" fill-rule="evenodd" style="fill:#775836" opacity="1" d="M4.11364 10.3252C3.34364 10.3252 2.72363 10.8652 2.72363 11.5352C2.72363 12.1952 3.34364 12.7352 4.11364 12.7352C4.88365 12.7352 5.50365 12.1952 5.50365 11.5352C5.50365 10.8652 4.88365 10.3252 4.11364 10.3252Z"></path><path id="路径 84" fill-rule="evenodd" style="fill:#775836" opacity="1" d="M9.83801 10.3252C9.068 10.3252 8.448 10.8652 8.448 11.5352C8.448 12.1952 9.068 12.7352 9.83801 12.7352C10.608 12.7352 11.228 12.1952 11.228 11.5352C11.228 10.8652 10.608 10.3252 9.83801 10.3252Z"></path><path id="路径 85" fill-rule="evenodd" style="fill:#775836" opacity="1" d="M10.6007 4.6499C9.41067 4.6499 8.44067 5.48991 8.44067 6.51992C8.44067 7.54992 9.41067 8.38993 10.6007 8.38993C11.7807 8.38993 12.7507 7.54992 12.7507 6.51992C12.7507 5.48991 11.7807 4.6499 10.6007 4.6499Z"></path><path id="路径 86" fill-rule="evenodd" style="fill:#775836" opacity="1" d="M9.83801 1.14551C9.068 1.14551 8.448 1.6855 8.448 2.3555C8.448 3.01549 9.068 3.55549 9.83801 3.55549C10.608 3.55549 11.228 3.01549 11.228 2.3555C11.228 1.6855 10.608 1.14551 9.83801 1.14551Z"></path></g><g opacity="1"  transform="translate(6.492431640625 0)  rotate(0)"><path id="路径 87" fill-rule="evenodd" style="fill:#775836" opacity="1" d="M1.07999 0.18C0.949993 -0.02 0.609996 -0.06 0.319998 0.09C0.0399997 0.23 -0.0799994 0.51 0.0599996 0.7L2.63998 4.48C2.76998 4.67 3.10998 4.71 3.38998 4.57C3.67997 4.43 3.79997 4.15 3.65997 3.95L1.07999 0.18Z"></path><path id="路径 88" fill-rule="evenodd" style="fill:#775836" opacity="1" d="M5.60296 4.57C5.89295 4.71 6.23295 4.67 6.36295 4.48L8.94293 0.7C9.08293 0.51 8.96293 0.23 8.67294 0.09C8.39294 -0.06 8.05294 -0.02 7.92294 0.18L5.34296 3.95C5.20296 4.15 5.32296 4.43 5.60296 4.57Z"></path></g></g><g opacity="1"  transform="translate(180 265.66015625)  rotate(0)"><path id="路径 47" fill-rule="evenodd" style="fill:#775836" opacity="1" d="M25.8205 -0.0648572C25.5926 -0.179294 25.3116 -0.0831845 25.1944 0.150058C25.0773 0.3833 25.1681 0.666098 25.396 0.780535L27.6221 1.89842C27.85 2.01286 28.1311 1.91675 28.2482 1.68351C28.3653 1.45026 28.2745 1.16747 28.0467 1.05303L25.8205 -0.0648572Z"></path><path id="路径 48" fill-rule="evenodd" style="fill:#775836" opacity="1" d="M19.1461 -6.57821C17.5107 -7.39944 15.5059 -6.70524 14.6667 -5.0341L14.5815 -4.86431C13.7468 -3.20211 14.3873 -1.17959 16.0227 -0.358359L22.1175 2.70217C23.7529 3.5234 25.7577 2.82921 26.5924 1.16701L26.6776 0.997211C27.5168 -0.673926 26.8763 -2.69645 25.2409 -3.51767L19.1461 -6.57821Z"></path><path id="路径 49" fill-rule="evenodd" style="fill:#775836" opacity="1" d="M15.2311 -8.62027C13.7923 -9.34277 12.0292 -8.72865 11.2933 -7.26306L10.7772 -6.23536C10.0368 -4.76083 10.6106 -2.98439 12.0405 -2.26638L13.0593 -1.7548C14.4981 -1.0323 16.2612 -1.64641 16.9971 -3.11201L17.5132 -4.13971C18.2536 -5.61424 17.6798 -7.39067 16.2499 -8.10869L15.2311 -8.62027Z"></path><path id="路径 50" fill-rule="evenodd" style="fill:#775836" opacity="1" d="M9.14045 -7.99477L8.90261 -7.52113C8.34167 -6.40406 8.77317 -5.05719 9.86345 -4.5097C10.9537 -3.9622 12.2917 -4.42052 12.8527 -5.53759L13.0905 -6.01123C13.6514 -7.1283 13.2199 -8.47517 12.1297 -9.02266C11.0394 -9.57015 9.70139 -9.11184 9.14045 -7.99477Z"></path><g opacity="1"  transform="translate(3.121337890625 -6.21484375)  rotate(0)"><path id="路径 51" fill-rule="evenodd" style="fill:#775836" opacity="1" d="M0.87813 -0.924218C0.533784 -0.929283 0.22921 -0.657008 0.224145 -0.312663C0.205656 0.0361316 0.468996 0.336218 0.813342 0.341284L6.56417 0.543499C6.90851 0.548565 7.19966 0.280739 7.21815 -0.0680556C7.2277 -0.421338 6.9733 -0.716937 6.62895 -0.722003L0.87813 -0.924218Z"></path><path id="路径 52" fill-rule="evenodd" style="fill:#775836" opacity="1" d="M7.87288 -1.37314C8.13711 -1.58735 8.18252 -1.98976 7.9728 -2.26292L4.37599 -6.75467C4.16627 -7.02783 3.7683 -7.05982 3.49959 -6.83668C3.22194 -6.61802 3.18995 -6.22006 3.39967 -5.9469L6.99648 -1.45515C7.20621 -1.18199 7.59523 -1.15448 7.87288 -1.37314Z"></path></g><path id="路径 53" fill-rule="evenodd" style="fill:#F7A541" opacity="1" d="M26.7044 -2.0174C26.4503 -2.53663 26.0709 -2.98453 25.5795 -3.32082L22.4741 2.86328C23.0329 3.06552 23.6187 3.10234 24.1869 2.99601L26.7044 -2.0174Z"></path><path id="路径 54" fill-rule="evenodd" style="fill:#F7A541" opacity="1" d="M21.3527 2.32786L24.4761 -3.89199L23.055 -4.6056L19.9316 1.61426L21.3527 2.32786Z"></path><path id="路径 55" fill-rule="evenodd" style="fill:#F7A541" opacity="1" d="M18.6979 0.994368L21.8213 -5.22549L20.4002 -5.93909L17.2769 0.280762L18.6979 0.994368Z"></path><path id="路径 56" fill-rule="evenodd" style="fill:#F7A541" opacity="1" d="M15.9226 -0.398698L19.0459 -6.61855C18.514 -6.85205 17.9551 -6.94248 17.4094 -6.9032L14.7169 -1.54126C15.0113 -1.0801 15.4131 -0.676881 15.9226 -0.398698Z"></path><path id="路径 57" fill-rule="evenodd" style="fill:#AFD3D3" opacity="1" d="M14.6953 6.72958C15.2744 8.04986 19.1982 9.70685 20.062 9.27901C21.6375 8.50357 20.1878 3.72482 19.9651 3.2325C18.4994 -0.0436368 15.2816 -3.93101 13.8035 -5.15445C12.2895 -6.39585 11.0475 -4.52416 11.4076 -3.25792C12.8169 1.62362 13.2209 3.31479 14.6953 6.72958Z"></path><path id="路径 58" fill-rule="evenodd" style="fill:#AFD3D3" opacity="1" d="M13.987 -5.51997C15.8466 -5.05613 20.8863 -4.797 24.3894 -5.57806C24.9173 -5.69343 29.616 -7.38474 29.2969 -9.11154C29.1241 -10.0599 25.4562 -12.2263 24.0469 -11.8933C20.4275 -11.0364 18.8297 -10.3505 14.0728 -8.56536C12.8421 -8.0979 12.0827 -5.98389 13.987 -5.51997Z"></path></g></g><defs><rect id="path_0" x="0" y="0" width="793.68" height="754" /></defs></svg>