<svg xmlns="http://www.w3.org/2000/svg" xmlns:xlink="http://www.w3.org/1999/xlink" width="51" height="80" viewBox="0 0 51 80" fill="none"><g opacity="1"  transform="translate(0 0)  rotate(0)"><mask id="bg-mask-0" fill="white"><use transform="translate(0 0)  rotate(0)" xlink:href="#path_0"></use></mask><g mask="url(#bg-mask-0)" ><path id="路径 1" fill-rule="evenodd" style="fill:#D9BDB2" opacity="1" d="M0,80zM17.64,80h-17.64l8.1,-40.35l25.9,-15.65l-16.36,29.22z"></path><path id="路径 2" fill-rule="evenodd" style="fill:#63EB4A" opacity="1" d="M22.5 0C14.49 0 8 6.49 8 14.5C8 22.51 14.49 29 22.5 29C30.51 29 37 22.51 37 14.5C37 6.49 30.51 0 22.5 0Z"></path><path id="路径 3" fill-rule="evenodd" style="fill:#9BFF4A" opacity="1" d="M36.5 9C28.49 9 22 15.49 22 23.5C22 31.51 28.49 38 36.5 38C44.51 38 51 31.51 51 23.5C51 15.49 44.51 9 36.5 9Z"></path></g></g><defs><rect id="path_0" x="0" y="0" width="51" height="80" /></defs></svg>