<svg xmlns="http://www.w3.org/2000/svg" xmlns:xlink="http://www.w3.org/1999/xlink" width="819.829833984375" height="969.0162353515625" viewBox="0 0 819.829833984375 969.0162353515625" fill="none"><g opacity="1"  transform="translate(0 0.0008544921875)  rotate(0)"><g opacity="1"  transform="translate(212.999267578125 404)  rotate(0)"><path id="路径" fill-rule="evenodd" style="fill:#1F161E" opacity="1" d="M1.2 416C7.21 451.74 105.2 526.69 109.49 528C114.49 524.33 121.85 512.3 121.85 512.3C121.85 512.3 50 429.06 48.66 425.72C47.32 422.38 64.37 229.54 64.37 229.54L16.1 218.47C13.57 230.54 -4.81 380.26 1.2 416Z"></path><path id="路径" fill-rule="evenodd" style="fill:#AB8DE5" opacity="1" d="M60.1406 232.83L35.1106 544.76L59.8106 544.76L133.121 245.75L60.1406 232.83Z"></path><path id="路径" fill-rule="evenodd" style="fill:#FBDC8E" opacity="1" d="M81.0526 74.55C64.8126 74.6001 29.8426 78.6001 24.9926 85.8501C13.6226 102.75 -2.23743 186.74 8.39257 202.85C9.60257 204.64 13.9826 204.33 17.6026 202.85C17.6026 203.67 16.2826 214.36 16.1226 218.47C43.3826 233.26 127.363 245.91 133.123 245.75C133.123 245.75 142.193 209.96 143.123 206.32C144.053 202.68 144.923 204.42 148.123 202.63C154.053 199.3 163.043 113.42 153.503 94.84C143.963 76.26 91.1726 74.55 81.0526 74.55Z"></path><path id="路径" fill-rule="evenodd" style="fill:#1F161E" opacity="1" d="M137.811 227.37C139.311 221.45 144.031 203.16 144.031 203.16C142.001 203.48 117.581 205 115.811 205C118.291 205 139.641 220 137.811 227.37Z"></path><path id="路径" fill-rule="evenodd" style="fill:#F8CDBA" opacity="1" d="M94.1204 84.35L94.1204 51.35L68.4104 51.35L68.4104 84.35C68.4104 87.61 94.1204 87.61 94.1204 84.35Z"></path><path id="路径" fill-rule="evenodd" style="fill:#1F161E" opacity="1" d="M94.1206 67.94L94.1206 51.35C90.9406 51.35 79.3606 59.16 79.3606 59.16C81.3606 59.16 94.1206 64.8 94.1206 67.94Z"></path><path id="椭圆形" fill-rule="evenodd" style="fill:#F8CDBA" opacity="1" d="M100.861 36.5601C100.861 22.75 89.6606 11.55 75.8506 11.55C62.0406 11.55 50.8406 22.75 50.8406 36.5601C50.8406 50.37 62.0406 61.57 75.8506 61.57C89.6606 61.57 100.861 50.37 100.861 36.5601Z"></path><path id="路径" fill-rule="evenodd" style="fill:#1F161E" opacity="1" d="M46.5405 18.39C46.5405 26.98 48.6305 31.84 51.0805 33.07C52.6305 24.73 56.0005 20.87 58.7905 19.21C60.9505 20.87 64.6705 24.89 69.6305 26.13C74.5905 27.37 87.5005 27.13 97.9305 34.71C101.331 31.61 104.741 27.58 104.741 22.83C104.741 18.08 102.641 12.12 90.2805 8.68C82.1305 6.41 81.0005 0 67.3905 0C54.5505 0 46.5405 8.06 46.5405 18.39Z"></path><path id="椭圆形" fill-rule="evenodd" style="fill:#FA9E9F" opacity="1" d="M56.8606 41.7101C56.8606 40.4501 54.9006 39.4301 52.4806 39.4301C50.0606 39.4301 48.1006 40.4501 48.1006 41.7101C48.1006 42.9701 50.0606 43.9901 52.4806 43.9901C54.9006 43.9901 56.8606 42.9701 56.8606 41.7101Z"></path><path id="椭圆形" fill-rule="evenodd" style="fill:#FA9E9F" opacity="1" d="M84.4104 41.7101C84.4104 40.4501 82.4504 39.4301 80.0304 39.4301C77.6104 39.4301 75.6504 40.4501 75.6504 41.7101C75.6504 42.9701 77.6104 43.9901 80.0304 43.9901C82.4504 43.9901 84.4104 42.9701 84.4104 41.7101Z"></path><path  id="路径" style="fill:#1F161E; opacity:1;" d="M63.6791,37.0365l-0.5899,8.06l-0.9973,-0.0729l0.5899,-8.0601z"></path><path  id="路径" style="fill:#1F161E; opacity:1;" d="M71.1327,50.3711l4.4202,-3.11l0.5754,0.8179l-4.4202,3.11z"></path><path id="椭圆形" fill-rule="evenodd" style="fill:#F8CDBA" opacity="1" d="M104.75 39.44C104.75 36.25 102.16 33.66 98.9704 33.66C95.7804 33.66 93.1904 36.25 93.1904 39.44C93.1904 42.63 95.7804 45.22 98.9704 45.22C102.16 45.22 104.75 42.63 104.75 39.44Z"></path><path  id="路径" style="fill:#1F161E; opacity:1;" d="M116.889,123.801M116.889,123.801c-1.684,20.65667 -2.203,32.743 -1.557,36.259l0.078,0.421l-0.405,0.141l0.405,-0.141l-0.405,0.141c-2.212,0.77 -13.61173,5.85133 -34.1992,15.244c-37.54227,17.12933 -58.98283,26.49367 -64.3217,28.093l-0.287,-0.958c5.2942,-1.586 26.69207,-10.934 64.1936,-28.044c20.6162,-9.406 32.04463,-14.499 34.2853,-15.279l0.165,0.472l-0.165,-0.472l0.165,0.472l-0.492,0.09c-0.66267,-3.602 -0.14833,-15.77567 1.543,-36.521z"></path><path  id="路径" style="fill:#1F161E; opacity:1;" d="M27.659,115.187l-3.5298,47.26l-0.9972,-0.074l3.5298,-47.26z"></path><path  id="路径" style="fill:#1F161E; opacity:1;" d="M46.84,190.245l95.35,13.38l-0.139,0.99l-95.35,-13.38z"></path><path id="路径" fill-rule="evenodd" style="fill:#F8CDBA" opacity="1" d="M24.8174 177.023C25.7874 177.353 26.8474 177.213 27.7074 176.663C28.9974 175.823 38.5974 161.693 43.1074 162.413C45.6774 162.823 37.2974 156.133 32.5474 158.623C27.7974 161.113 21.3974 172.383 22.7074 175.003C23.0674 175.963 23.8374 176.703 24.8174 177.023Z"></path><path id="路径" fill-rule="evenodd" style="fill:#1F161E" opacity="1" d="M111.748 525.924C114.628 526.014 120.238 530.954 120.818 533.654C121.398 536.354 117.058 542.434 117.058 545.904C117.058 549.374 118.668 551.314 120.998 550.824C123.328 550.334 134.718 533.164 134.618 527.984C134.518 522.804 122.368 514.584 120.998 513.584C114.768 509.034 104.048 525.684 111.748 525.924Z"></path><path id="路径" fill-rule="evenodd" style="fill:#1F161E" opacity="1" d="M38.0806 544.764C38.8906 547.894 36.6706 553.794 35.0806 554.894C33.4906 555.994 21.7106 558.354 20.4906 559.184C19.2706 560.014 20.1106 562.924 21.4906 564.304C22.8706 565.684 53.3106 564.864 56.0806 563.474C58.8506 562.084 57.4706 547.144 57.4706 544.764C57.4706 535.064 35.6506 535.374 38.0806 544.764Z"></path></g><g opacity="1"  transform="translate(0 27)  rotate(0)"><mask id="bg-mask-0" fill="white"><use transform="translate(0 0)  rotate(0)" xlink:href="#path_0"></use></mask><g mask="url(#bg-mask-0)" ><path id="璺緞_4" fill-rule="evenodd" style="fill:#D9BDB2" opacity="1" d="M351.34,546l37.5,-199.45l81.5,-113.55l28.5,89v432h-147.5z"></path><path id="璺緞_5" fill-rule="evenodd" style="fill:#D9BDB2" opacity="1" d="M619.84,441l-142,44.55v-44.55l115.5,-41l83.5,-23l94,-39z"></path><path id="璺緞_5-2" fill-rule="evenodd" style="fill:#D9BDB2" opacity="1" d="M770.56,337.55l0.28,0.42l0.19,0.46l-94,39l-83.53,23l-0.13,-0.48l0.17,0.47l-115.5,41l-0.17,-0.47h0.5v44.6h-0.5l-0.15,-0.48l142,-44.5l0.15,0.48l-0.31,-0.5zM620.06,441.42l-142.72,44.76v-45.54l115.85,-41.09l83.52,-23l0.13,0.49l-0.19,-0.47l94,-39l0.47,0.88l-151,103z"></path><path id="璺緞_1" fill-rule="evenodd" style="fill:#D9BDB2" opacity="1" d="M401.34,369v62l-99.5,-62l-55,-91l-53.5,-32h53.5l55,64z"></path><path id="璺緞_2" fill-rule="evenodd" style="fill:#D9BDB2" opacity="1" d="M560.34,234l-71,106.5l-23,-82l69,-60.5l73,-46z"></path><path id="璺緞_3" fill-rule="evenodd" style="fill:#D9BDB2" opacity="1" d="M487.34,263l-60.5,51.55l-21,-76.5l-60.5,-101.5l-66,-117.5l66,48l81.5,69.5z"></path><path id="路径 1" fill-rule="evenodd" style="fill:#D9BDB2" opacity="1" d="M439.79,197zM455.11,210l-15.32,-13l20.25,-78.45l27.3,-46.91l24.7,-33.09l-13.2,31.0501l-15.8,65.3599z"></path><path id="鍦嗗舰_1" fill-rule="evenodd" style="fill:#59C28F" opacity="1" d="M302.73,0c43.35,0.01 78.49,35.15 78.5,78.5c0,43.35 -35.15,78.5 -78.5,78.5c-43.35,0 -78.5,-35.15 -78.5,-78.5c0,-43.35 35.15,-78.5 78.5,-78.5z"></path><path id="鍦嗗舰_2" fill-rule="evenodd" style="fill:#3EA875" opacity="1" d="M560.43,261c25.96,0 47,21.04 47,47c0,25.96 -21.04,47 -47,47c-25.96,0 -47,-21.04 -47,-47c0,-25.96 21.04,-47 47,-47z"></path><path id="鍦嗗舰_1-2" fill-rule="evenodd" style="fill:#3EA875" opacity="1" d="M354.73,53c43.35,0.01 78.49,35.15 78.5,78.5c0,43.35 -35.15,78.5 -78.5,78.5c-43.35,0 -78.5,-35.15 -78.5,-78.5c0,-43.35 35.15,-78.5 78.5,-78.5z"></path><path id="鍦嗗舰_1-3" fill-rule="evenodd" style="fill:#329C68" opacity="1" d="M320.73,210c43.35,0.01 78.49,35.15 78.5,78.5c0,43.35 -35.15,78.5 -78.5,78.5c-43.35,0 -78.5,-35.15 -78.5,-78.5c0,-43.35 35.15,-78.5 78.5,-78.5z"></path><path id="鍦嗗舰_2-2" fill-rule="evenodd" style="fill:#3EA875" opacity="1" d="M101.18,155.72c30.61,0 55.44,26.16 55.44,58.42c0,32.26 -24.82,58.41 -55.44,58.41c-30.62,0 -55.43,-26.14 -55.43,-58.41c0,-32.27 24.81,-58.42 55.43,-58.42z"></path><path id="鍦嗗舰_1-4" fill-rule="evenodd" style="fill:#3EA875" opacity="1" d="M662.73,315c43.35,0.01 78.49,35.15 78.5,78.5c0,43.35 -35.15,78.5 -78.5,78.5c-43.35,0 -78.5,-35.15 -78.5,-78.5c0,-43.35 35.15,-78.5 78.5,-78.5z"></path><path id="鍦嗗舰_1-5" fill-rule="evenodd" style="fill:#329C68" opacity="1" d="M138.61,251.55c20.67,0 37.43,16.76 37.43,37.43c0,20.67 -16.76,37.43 -37.43,37.43c-20.67,0 -37.43,-16.76 -37.43,-37.43c0,-20.67 16.76,-37.43 37.43,-37.43z"></path><path id="鍦嗗舰_1-6" fill-rule="evenodd" style="fill:#59C28F" opacity="1" d="M276.73,79c43.35,0.01 78.49,35.15 78.5,78.5c0,43.35 -35.15,78.5 -78.5,78.5c-43.35,0 -78.5,-35.15 -78.5,-78.5c0,-43.35 35.15,-78.5 78.5,-78.5z"></path><path id="鍦嗗舰_1-7" fill-rule="evenodd" style="fill:#70E6AD" opacity="1" d="M220.73,146c25.59,0 50.14,10.16 68.24,28.26c18.1,18.1 28.26,42.65 28.26,68.24c0,53.3 -43.2,96.5 -96.5,96.5c-53.3,0 -96.5,-43.2 -96.5,-96.5c0,-53.3 43.2,-96.5 96.5,-96.5z"></path><path id="鍦嗗舰_2-3" fill-rule="evenodd" style="fill:#3EA875" opacity="1" d="M621.23,103c25.96,0 47,21.04 47,47c0,25.96 -21.04,47 -47,47c-25.96,0 -47,-21.04 -47,-47c0,-25.96 21.04,-47 47,-47z"></path><path id="鍦嗗舰_2-4" fill-rule="evenodd" style="fill:#59C28F" opacity="1" d="M607.23,56c25.96,0 47,21.04 47,47c0,25.96 -21.04,47 -47,47c-25.96,0 -47,-21.04 -47,-47c0,-25.96 21.04,-47 47,-47z"></path><path id="鍦嗗舰_2-5" fill-rule="evenodd" style="fill:#59C28F" opacity="1" d="M518.23,254c25.96,0 47,21.04 47,47c0,25.96 -21.04,47 -47,47c-25.96,0 -47,-21.04 -47,-47c0,-25.96 21.04,-47 47,-47z"></path><path id="鍦嗗舰_2-6" fill-rule="evenodd" style="fill:#59C28F" opacity="1" d="M501.68,39c25.96,0 47,21.04 47,47c0,25.96 -21.04,47 -47,47c-25.96,0 -47,-21.04 -47,-47c0,-25.96 21.04,-47 47,-47z"></path><path id="鍦嗗舰_2-7" fill-rule="evenodd" style="fill:#3EA875" opacity="1" d="M454.36,93c16.43,0 29.68,13.99 29.68,31.27c0,17.28 -13.29,31.28 -29.68,31.28c-16.39,0 -29.68,-14.01 -29.68,-31.28c0,-17.27 13.29,-31.27 29.68,-31.27z"></path><path id="鍦嗗舰_2-8" fill-rule="evenodd" style="fill:#59C28F" opacity="1" d="M746.68,330c25.96,0 47,21.04 47,47c0,25.96 -21.04,47 -47,47c-25.96,0 -47,-21.04 -47,-47c0,-25.96 21.04,-47 47,-47z"></path><path id="鍦嗗舰_1-8" fill-rule="evenodd" style="fill:#70E6AD" opacity="1" d="M556.61,199.55c14.44,0 28.28,5.73 38.49,15.94c10.21,10.21 15.94,24.05 15.94,38.49c0,30.06 -24.37,54.43 -54.43,54.43c-30.06,0 -54.43,-24.37 -54.43,-54.43c0,-30.06 24.37,-54.43 54.43,-54.43z"></path><path id="路径 2" fill-rule="evenodd" style="fill:#D9BDB2" opacity="1" d="M353.32,580.55zM313.01,559.81l40.31,20.74v43.6l-50,-47.6l-13.7,-49.42z"></path><path id="鍦嗗舰_1-9" fill-rule="evenodd" style="fill:#329C68" opacity="1" d="M279.789,505.55c12.61,0 24.7,5 33.62,13.92c8.91,8.91 13.92,21 13.92,33.61c0.01,19.23 -11.57,36.57 -29.34,43.93c-17.76,7.36 -38.21,3.29 -51.81,-10.3c-13.6,-13.6 -17.67,-34.04 -10.31,-51.81c7.36,-17.77 24.69,-29.35 43.92,-29.35z"></path><path id="鍦嗗舰_2-9" fill-rule="evenodd" style="fill:#59C28F" opacity="1" d="M241.949,507c8.83,-0.01 17.29,3.5 23.54,9.74c6.24,6.24 9.74,14.7 9.74,23.53c0.01,13.46 -8.1,25.6 -20.54,30.75c-12.43,5.16 -26.75,2.31 -36.27,-7.2c-9.52,-9.52 -12.37,-23.84 -7.22,-36.27c5.15,-12.44 17.29,-20.55 30.75,-20.55z"></path><path id="路径 3" fill-rule="evenodd" style="fill:#D9BDB2" opacity="1" d="M487.34,662.96zM487.34,684.4v-21.44l41.1,-27.58l41.09,-21.95l-20.85,28.08z"></path><path id="鍦嗗舰_1-10" fill-rule="evenodd" style="fill:#70E6AD" opacity="1" d="M266.96,293.55c30.06,0 54.43,24.37 54.43,54.43c0,30.06 -24.37,54.43 -54.43,54.43c-30.06,0 -54.43,-24.37 -54.43,-54.43c0,-30.06 24.37,-54.43 54.43,-54.43z"></path><path id="鍦嗗舰_1-11" fill-rule="evenodd" style="fill:#329C68" opacity="1" d="M548.87,582.46c19.57,0 35.45,16.64 35.45,37.05c0,20.41 -15.87,37 -35.45,37c-19.58,0 -35.45,-16.54 -35.45,-37c0,-20.46 15.87,-37.05 35.45,-37.05z"></path><path id="鍦嗗舰_1-12" fill-rule="evenodd" style="fill:#70E6AD" opacity="1" d="M548.419,615.55c8.73,0 17.09,3.46 23.26,9.63c6.17,6.17 9.64,14.54 9.64,23.26c0.01,13.31 -8.01,25.31 -20.3,30.4c-12.3,5.1 -26.45,2.29 -35.86,-7.12c-9.41,-9.41 -12.23,-23.56 -7.14,-35.86c5.1,-12.29 17.09,-20.31 30.4,-20.31z"></path><path id="鍦嗗舰_1-13" fill-rule="evenodd" style="fill:#70E6AD" opacity="1" d="M231.89,43.55c19.57,0 35.43,15.86 35.43,35.43c0,19.57 -15.86,35.43 -35.43,35.43c-19.57,0 -35.43,-15.86 -35.43,-35.43c0,-19.57 15.86,-35.43 35.43,-35.43z"></path><path id="鍦嗗舰_1-14" fill-rule="evenodd" style="fill:#70E6AD" opacity="1" d="M439.89,18.55c12.31,0 24.13,4.89 32.83,13.6c8.71,8.7 13.6,20.52 13.6,32.83c0,25.64 -20.79,46.43 -46.43,46.43c-25.64,0 -46.43,-20.79 -46.43,-46.43c0,-25.64 20.79,-46.43 46.43,-46.43z"></path><path id="鍦嗗舰_2-10" fill-rule="evenodd" style="fill:#59C28F" opacity="1" d="M458.229,137c12.01,0 23.53,4.77 32.02,13.26c8.49,8.49 13.26,20 13.26,32.01c0.01,18.31 -11.02,34.83 -27.94,41.84c-16.92,7.01 -36.4,3.14 -49.35,-9.81c-12.95,-12.95 -16.83,-32.42 -9.82,-49.35c7.01,-16.92 23.52,-27.95 41.83,-27.95z"></path><path id="鍦嗗舰_1-15" fill-rule="evenodd" style="fill:#3EA875" opacity="1" d="M380.39,383.55c26.47,0 47.93,21.46 47.93,47.93c0,26.47 -21.46,47.93 -47.93,47.93c-26.47,0 -47.93,-21.46 -47.93,-47.93c0,-26.47 21.46,-47.93 47.93,-47.93z"></path><path id="鍦嗗舰_1-16" fill-rule="evenodd" style="fill:#59C28F" opacity="1" d="M153.43,280.55c43.35,0.01 78.49,35.15 78.5,78.5c0,43.35 -35.15,78.5 -78.5,78.5c-43.35,0 -78.5001,-35.15 -78.5001,-78.5c0,-43.35 35.1501,-78.5 78.5001,-78.5z"></path><path id="鍦嗗舰_1-17" fill-rule="evenodd" style="fill:#59C28F" opacity="1" d="M148.22,45.55c37.71,0 68.28,32.42 68.28,72.47c0,40.05 -30.57,72.53 -68.28,72.53c-37.71,0 -68.2901,-32.43 -68.2901,-72.48c0,-40.0499 30.5801,-72.52 68.2901,-72.52z"></path><path id="鍦嗗舰_1-18" fill-rule="evenodd" style="fill:#70E6AD" opacity="1" d="M54.43,284.55c14.44,0 28.28,5.73 38.49,15.94c10.21,10.21 15.94,24.05 15.94,38.49c0,30.06 -24.37,54.43 -54.43,54.43c-30.06,0 -54.43,-24.37 -54.43,-54.43c0,-30.06 24.37,-54.43 54.43,-54.43z"></path><path id="鍦嗗舰_1-19" fill-rule="evenodd" style="fill:#70E6AD" opacity="1" d="M528.43,112.55c14.44,0 28.28,5.73 38.49,15.94c10.21,10.21 15.94,24.05 15.94,38.49c0,30.06 -24.37,54.43 -54.43,54.43c-30.06,0 -54.43,-24.37 -54.43,-54.43c0,-30.06 24.37,-54.43 54.43,-54.43z"></path><path id="鍦嗗舰_1-20" fill-rule="evenodd" style="fill:#70E6AD" opacity="1" d="M595.43,402.55c14.44,0 28.28,5.73 38.49,15.94c10.21,10.21 15.94,24.05 15.94,38.49c0,30.06 -24.37,54.43 -54.43,54.43c-30.06,0 -54.43,-24.37 -54.43,-54.43c0,-30.06 24.37,-54.43 54.43,-54.43z"></path><path id="鍦嗗舰_2-11" fill-rule="evenodd" style="fill:#59C28F" opacity="1" d="M404.43,242c25.96,0 47,21.04 47,47c0,25.96 -21.04,47 -47,47c-25.96,0 -47,-21.04 -47,-47c0,-25.96 21.04,-47 47,-47z"></path><path id="鍦嗗舰_1-21" fill-rule="evenodd" style="fill:#70E6AD" opacity="1" d="M275.43,485.55c19.57,0 35.43,15.86 35.43,35.43c0,19.57 -15.86,35.43 -35.43,35.43c-19.57,0 -35.43,-15.86 -35.43,-35.43c0,-19.57 15.86,-35.43 35.43,-35.43z"></path></g></g><g opacity="1"  transform="translate(19.999755859375 711)  rotate(0)"><path id="路径" fill-rule="evenodd" style="fill:#529EBA" opacity="1" d="M799.83 182.78C799.83 131.16 742.87 15.05 596.48 15.05C524.83 15.05 530.04 45.14 453.69 45.14C351.48 45.14 323.18 0 200 0C73.91 0 0 141.9 0 182.65L799.83 182.78Z"></path></g><g opacity="1"  transform="translate(168.999755859375 0)  rotate(0)"><g opacity="1"  transform="translate(470 280)  rotate(0)"><g opacity="1"  transform="translate(22.398193359375 47.44482421875)  rotate(0)"><path id="路径 1" fill-rule="evenodd" style="fill:#F42144" opacity="1" d="M7.59 14.1C6.5 15.7 6.57 17.98 7.84 19.53C8.1 19.86 9.51 19.35 9.22 19C8.25 17.81 8.05 16.22 8.57 14.83C10.14 15.92 11.87 16.79 13.7 17.38C14.38 17.6 15.43 16.62 14.54 16.33C12.63 15.71 10.85 14.79 9.26 13.62C10.65 12.02 13.14 12.8 14.33 14.29C14.59 14.62 16 14.12 15.71 13.76C14.07 11.7 11 11.59 8.85 12.9C8.75 12.96 8.66 13.03 8.57 13.09C4.71 9.98 2.08 5.41 1.47 0.4C1.38 -0.33 -0.09 0.04 0 0.79C0.63 6.06 3.48 10.86 7.59 14.1Z"></path><path id="路径 2" fill-rule="evenodd" style="fill:#F42144" opacity="1" d="M24.119 16.073C23.259 14.823 22.459 13.543 22.649 11.973C22.669 11.843 22.689 11.723 22.729 11.593C23.649 12.453 24.629 13.253 25.709 13.963C26.039 14.183 27.249 13.573 27.099 13.483C25.779 12.603 24.589 11.593 23.489 10.493C23.889 10.193 24.379 10.023 24.899 10.083C25.669 10.183 26.259 10.743 26.679 11.343C26.949 11.723 28.379 11.243 28.049 10.783C26.889 9.14303 24.569 8.82303 22.889 9.87303C20.309 7.09303 18.299 3.79303 16.449 0.453027C16.269 0.123027 14.879 0.683027 14.979 0.843027C16.939 4.37303 19.079 7.86303 21.879 10.753C20.469 12.503 21.489 14.783 22.749 16.633C23.009 17.013 24.439 16.543 24.119 16.073Z"></path></g><path id="路径 3" fill-rule="evenodd" style="fill:#F42144" opacity="1" d="M4.61225 10.34C5.85225 8.95 7.30225 7.76 8.90225 6.81C6.28225 4.73 3.82225 2.45 1.55225 0C1.70225 1.66 2.39225 3.3 2.88225 4.85C3.45225 6.68 4.03225 8.51 4.61225 10.34Z"></path><path id="路径 4" fill-rule="evenodd" style="fill:#A4C441" opacity="1" d="M59.88 38.4054C56.95 39.0154 53.85 38.6954 51.1 37.4254C47.53 35.7754 44.76 32.9954 42.33 29.9654C36.3 22.3054 32.03 12.4854 23.18 7.53539C18.97 5.18539 13.78 3.94539 9.27 6.23539C5.06 8.37539 2.04 12.3654 0.79 16.8854C-1.08 23.5954 0.46 30.8154 4.36 36.5254C8.38 42.4054 14.49 46.5354 21.32 48.4454C34.99 52.2754 49.71 48.1054 59.88 38.4054Z"></path><path id="路径 5" fill-rule="evenodd" style="fill:#A39586" opacity="1" d="M49.1134 9.20072C45.3834 12.5607 40.6434 14.2007 35.6334 13.9407C31.6834 13.7307 27.3034 13.0807 24.3434 16.3407C22.0334 18.8807 22.0034 22.9007 23.5534 25.8007C25.4634 29.3807 29.7734 31.1307 33.6234 31.3907C38.9734 31.6107 44.1734 29.3707 47.6334 25.2707C51.2834 20.9307 52.2134 14.6307 50.3334 9.33072C50.1734 8.87072 49.4134 8.93072 49.1134 9.20072Z"></path><path id="路径 6" fill-rule="evenodd" style="fill:#BCA3C2" opacity="1" d="M49.9056 10.3501C47.1256 12.5701 43.7656 14.0701 40.2356 14.5501C38.2056 14.8301 36.2156 14.7301 34.1756 14.5801C32.1256 14.4301 29.7556 14.2001 27.8756 15.2301C24.7556 16.9501 23.9456 21.3201 25.4256 24.4001C27.1456 28.0001 31.0856 29.7901 34.8956 30.0501C39.9656 30.2501 45.2456 27.7501 48.0056 23.4101C50.4956 19.5001 51.1756 14.7601 49.9056 10.3501Z"></path><path id="分组 4" fill-rule="evenodd" style="fill:#C6E058" opacity="1" d="M13.7948,8.46313c1.79,-0.15001 2.7,2.09997 2.55,3.03997c-0.18,1.1 -0.84,1.84 -1.58,2.37c-1.36,0.98 -4.45,1.35 -4.83002,-1.36c-0.37,-2.66997 2.08002,-3.89998 3.86002,-4.04997zM13.2122,11.9299c0.01,0.01 0.01,0.03 0.02,0.04v-0.05c-0.01,0.01 -0.02,0.01 -0.02,0.01z"></path><path id="分组 5" fill-rule="evenodd" style="fill:#000000" opacity="1" d="M13.577,9.45508c1.2,-0.1 1.82,1.42002 1.71,2.05002c-0.12,0.75 -0.56,1.24 -1.06,1.6c-0.92,0.65 -3,0.9 -3.25,-0.92c-0.25,-1.8 1.4,-2.63002 2.6,-2.73002zM13.1824,11.7901c0,0.01 0.01,0.02 0.01,0.03v-0.03c0,0.01 -0.01,0.01 -0.01,0z"></path><path id="路径 28" fill-rule="evenodd" style="fill:#FFFFFF" opacity="1" d="M14.0123 10.6899C13.6623 10.6899 13.3823 10.9599 13.3823 11.2799C13.3923 11.5999 13.6723 11.8599 14.0223 11.8599C14.3723 11.8599 14.6523 11.5899 14.6523 11.2699C14.6523 10.9499 14.3623 10.6899 14.0123 10.6899Z"></path><path id="路径 29" fill-rule="evenodd" style="fill:#BCA3C2" opacity="1" d="M66.0071 35.3671C65.7171 35.4471 65.4271 35.5271 65.1471 35.6171C65.8471 35.187 66.5271 34.717 67.1071 34.1571C68.7771 32.5371 69.6071 29.5671 67.3371 28.0371C64.7871 26.3171 61.9671 28.9171 60.4771 30.7571C58.4971 33.217 57.1471 36.097 56.3071 39.1271C56.2471 39.3571 56.2971 39.5371 56.4271 39.647C56.4171 39.6571 56.4071 39.667 56.4071 39.667C56.0971 40.0871 56.6771 40.257 56.9871 40.257C60.5471 40.2471 64.0971 40.2471 67.6571 40.2371C69.6371 40.2271 73.1171 39.6371 72.6571 36.9271C72.1671 33.9971 67.8571 34.8671 66.0071 35.3671Z"></path></g><g opacity="1"  transform="translate(150 0)  rotate(0)"><path id="路径 288" fill-rule="evenodd" style="fill:#76A0AD" opacity="1" d="M14.14 14.87C12.64 20.78 12.12 26.83 12.01 32.87C11.9 39.33 12.45 46.25 17.13 51.37C20.4 54.94 25.39 57.21 30.59 58.29C36.59 59.53 43.18 59.23 48.59 56.75C54.01 54.27 58.01 49.41 58 44.24C55.56 44.3 53.09 44.36 50.71 43.94C48.31 43.51 45.98 42.58 44.48 40.96C42.56 38.89 42.29 36.09 42.2 33.47C41.97 25.93 42.69 18.31 41.04 10.9C40.14 6.87 38.16 2.56 33.77 0.77C29.29 -1.05 23.63 0.54 20.21 3.58C16.78 6.62 15.17 10.78 14.14 14.87Z"></path><path id="路径 289" fill-rule="evenodd" style="fill:#82DCD3" opacity="1" d="M27.778 3.65525C27.048 3.74525 26.348 4.10525 25.908 4.68525C25.348 5.40525 25.228 6.36525 25.208 7.27525C25.198 7.71525 25.218 8.17525 25.458 8.54525C25.698 8.92525 26.138 9.12525 26.568 9.26525C27.678 9.62525 28.928 9.61525 29.948 9.05525C30.968 8.49525 31.668 7.31525 31.478 6.16525C31.328 5.29525 30.678 4.54525 29.888 4.10525C29.248 3.74525 28.498 3.57525 27.778 3.65525Z"></path><path id="路径 290" fill-rule="evenodd" style="fill:#000000" opacity="1" d="M27.9901 8.30336C28.4601 8.26336 28.9401 8.19336 29.3701 7.99336C29.8001 7.79336 30.1801 7.44336 30.3301 7.00336C30.5101 6.48336 30.3401 5.87336 29.9501 5.47336C29.5601 5.07336 28.9801 4.89336 28.4301 4.95336C27.8801 5.00336 27.3601 5.28336 26.9701 5.67336C26.6101 6.03336 26.3501 6.50336 26.3401 7.01336C26.3401 7.51336 26.6201 8.03336 27.0901 8.22336C27.3701 8.33336 27.6901 8.32336 27.9901 8.30336Z"></path><path id="路径 291" fill-rule="evenodd" style="fill:#FFFFFF" opacity="1" d="M28.7094 7.11424C28.9094 7.35424 29.3294 7.38424 29.5394 7.15424C29.7094 6.90424 29.7694 6.57424 29.6894 6.28424C29.4694 6.03424 29.0394 6.03424 28.7894 6.26424C28.5594 6.47424 28.5194 6.87424 28.7094 7.11424Z"></path><path id="路径 292" fill-rule="evenodd" style="fill:#82DCD3" opacity="1" d="M30.01 31.63C29.79 35.42 32.68 39.15 36.4 39.89C40.12 40.63 44.22 38.3 45.48 34.72C43.99 34.42 42.89 33.15 42.07 31.87C41.25 30.59 40.54 29.17 39.33 28.25C38.17 27.37 36.68 27.05 35.22 27C34.04 26.97 32.8 27.12 31.84 27.81C30.65 28.66 30.09 30.17 30.01 31.63Z"></path><path id="路径 293" fill-rule="evenodd" style="fill:#5BBCB0" opacity="1" d="M35.7118 37.7937C33.2818 37.3037 31.2018 35.5437 30.1218 33.3237C30.6818 36.4737 33.2418 39.2637 36.4018 39.9037C40.1218 40.6437 44.2218 38.3137 45.4818 34.7337C44.9518 34.6237 44.4818 34.3937 44.0618 34.1037C42.3418 36.8237 38.8918 38.4237 35.7118 37.7937Z"></path><g opacity="1"  transform="translate(24 56)  rotate(0)"><path id="路径 294" fill-rule="evenodd" style="fill:#3F3933" opacity="1" d="M19.2777 19.0118C19.2377 19.0118 19.1977 19.0018 19.1477 19.0018C19.1677 18.8818 19.1877 18.7218 19.1977 18.5218C19.2377 17.2118 19.0877 14.6418 19.0777 13.3318C19.0677 11.7818 19.0677 10.5618 19.0277 9.01178C18.9877 7.44178 19.1977 5.81178 19.1177 4.24178C19.1077 3.94178 18.8677 3.09178 18.8477 2.79178C18.8277 2.46178 18.2577 2.38178 18.2577 3.48178C18.2577 4.11178 18.1977 4.93178 18.2177 5.90178C18.2477 6.87178 18.1277 8.05178 18.1477 9.17178C18.1777 10.6418 18.3577 12.0718 18.3777 13.4218C18.3977 14.8918 18.5077 16.8718 18.5677 18.0718C18.4377 17.8818 18.3377 17.6018 18.1177 17.4218C17.9677 17.3018 17.7877 17.2218 17.6077 17.1718C17.4277 17.1118 17.2577 17.0718 17.0977 17.0118C16.8577 16.9118 16.5277 16.8818 16.2477 16.9018C15.9777 16.9118 15.7577 16.9718 15.6877 16.9618C15.6477 16.9618 15.6177 17.0918 15.6377 17.2318C15.6577 17.3718 15.7277 17.5118 15.8577 17.5318C15.9277 17.5418 16.0077 17.5518 16.0877 17.5518C16.1777 17.5618 16.2677 17.5518 16.3677 17.5618C16.5577 17.5718 16.7477 17.6118 16.8777 17.6618C17.1677 17.7918 17.3577 17.9318 17.5977 18.1118C17.6577 18.1618 17.7077 18.2218 17.7477 18.2918C17.7577 18.3118 17.7677 18.3418 17.7777 18.3618C17.7677 18.3618 17.7677 18.3518 17.7577 18.3518C17.5977 18.2918 17.4177 18.2118 17.2477 18.1918C17.1277 18.1818 17.0177 18.1818 16.8977 18.1818C16.7877 18.1918 16.6677 18.1918 16.5577 18.2118C16.4477 18.2318 16.3377 18.2518 16.2277 18.2618C16.1177 18.2718 16.0177 18.2818 15.9077 18.2918C15.7477 18.3018 15.5677 18.3218 15.3877 18.3518C15.2077 18.3918 15.0377 18.4418 14.8777 18.4918C14.7177 18.5318 14.5777 18.6018 14.4577 18.6418C14.3477 18.6818 14.2577 18.7118 14.2177 18.7218C14.1177 18.7418 14.1677 19.2718 14.5377 19.2318C14.8977 19.1618 15.5877 18.9818 15.9577 18.9718C16.1777 18.9718 16.3677 18.9918 16.5577 19.0018C16.7477 19.0218 16.9377 19.0518 17.1577 19.0618C17.3177 19.0818 17.4777 19.1518 17.6377 19.2218C17.5577 19.2418 17.4677 19.2618 17.3877 19.2818C17.2377 19.3218 17.0777 19.3418 16.9277 19.3818C16.6977 19.4318 16.4477 19.5018 16.1877 19.5718C15.9377 19.6518 15.6877 19.7618 15.4577 19.8518C15.2277 19.9318 15.0277 20.0418 14.8677 20.1218C14.7077 20.2018 14.5877 20.2518 14.5277 20.2718C14.3877 20.3218 14.4277 20.8718 14.9777 20.7218C15.5077 20.5318 16.5477 20.1518 17.1077 20.0518C17.1877 20.0318 17.2677 20.0218 17.3477 20.0118C17.4277 20.0018 17.5077 19.9918 17.5777 19.9818C17.7277 19.9618 17.8777 19.9418 18.0277 19.9318C18.3277 19.9018 18.6177 19.8918 18.9577 19.8618C19.1277 19.8518 19.2977 19.8718 19.4677 19.8918C19.6377 19.9118 19.8077 19.9318 19.9777 19.9718C20.1477 20.0118 20.3077 20.0518 20.4777 20.0818C20.6477 20.1118 20.8077 20.1318 20.9777 20.1518C21.0977 20.1618 21.4977 20.0018 21.6277 20.0118C21.7977 20.0118 21.9577 19.4518 21.4677 19.3618C21.3277 19.3318 21.1677 19.2918 20.9877 19.2418C20.8077 19.2018 20.6077 19.1718 20.3877 19.1518C20.2777 19.1418 20.1577 19.1318 20.0377 19.1118C19.9177 19.0918 19.7977 19.0818 19.6677 19.0618C19.5377 19.0418 19.4077 19.0218 19.2777 19.0118Z"></path><path id="路径 295" fill-rule="evenodd" style="fill:#3F3933" opacity="1" d="M2.67 17.18C2.53 17.16 2.37 17.14 2.22 17.13C2.06 17.13 1.9 17.15 1.75 17.16C1.6 17.17 1.47 17.2 1.37 17.22C1.27 17.24 1.19 17.25 1.15 17.25C1.06 17.25 1.03 17.78 1.35 17.82C1.66 17.83 2.26 17.79 2.57 17.86C2.75 17.9 2.9 17.97 3.06 18.01C3.21 18.07 3.36 18.13 3.53 18.19C3.7 18.26 3.84 18.4 3.97 18.53C3.98 18.54 3.98 18.55 3.99 18.55L3.98 18.55C3.81 18.56 3.65 18.56 3.49 18.59C3.33 18.61 3.17 18.64 3.01 18.66C2.85 18.68 2.7 18.69 2.54 18.71C2.31 18.74 2.05 18.78 1.79 18.83C1.53 18.89 1.27 18.97 1.04 19.04C0.8 19.1 0.6 19.2 0.43 19.26C0.26 19.33 0.14 19.37 0.08 19.39C-0.07 19.43 -0.06 19.98 0.49 19.87C0.63 19.84 0.79 19.79 0.97 19.74C1.15 19.7 1.35 19.65 1.55 19.6C1.65 19.57 1.75 19.55 1.85 19.52C1.95 19.5 2.05 19.49 2.14 19.47C2.29 19.45 2.42 19.43 2.54 19.41C2.44 19.49 2.34 19.56 2.24 19.63C2.12 19.71 1.99 19.81 1.86 19.91C1.74 20.02 1.62 20.14 1.51 20.25C1.4 20.36 1.32 20.47 1.24 20.55C1.17 20.63 1.11 20.7 1.09 20.72C1.02 20.78 1.32 21.22 1.61 21.03C1.88 20.82 2.34 20.36 2.64 20.19C2.81 20.09 2.98 20.02 3.13 19.94C3.29 19.87 3.45 19.8 3.63 19.71C3.81 19.63 4.03 19.61 4.23 19.6C4.33 19.6 4.44 19.6 4.54 19.59C4.64 19.58 4.73 19.56 4.83 19.53C4.84 19.53 4.86 19.52 4.87 19.5C4.9 19.51 4.94 19.52 4.97 19.52C5.13 19.57 5.3 19.61 5.46 19.67C5.62 19.73 5.77 19.8 5.93 19.85C6.09 19.9 6.25 19.94 6.4 19.99C6.52 20.02 6.93 19.92 7.06 19.96C7.18 19.98 7.43 19.46 6.96 19.29C6.83 19.24 6.68 19.17 6.51 19.09C6.34 19.02 6.14 18.96 5.93 18.91C5.82 18.89 5.71 18.85 5.6 18.81C5.49 18.77 5.36 18.74 5.24 18.71C5.22 18.71 5.21 18.7 5.19 18.7C5.2 18.57 5.21 18.42 5.21 18.23C5.21 16.73 4.98 13.8 4.93 12.3C4.87 10.52 4.84 9.13 4.75 7.36C4.66 5.56 4.81 3.7 4.69 1.9C4.67 1.55 4.4 0.59 4.38 0.24C4.35 -0.13 3.77 -0.21 3.82 1.05C3.84 1.77 3.8 2.71 3.86 3.82C3.92 4.93 3.83 6.28 3.89 7.56C3.97 9.24 4.19 10.87 4.25 12.42C4.32 14.2 4.51 16.61 4.61 17.95C4.59 17.94 4.58 17.93 4.56 17.92C4.5 17.89 4.45 17.84 4.39 17.79C4.34 17.74 4.28 17.7 4.22 17.64C4.1 17.54 3.97 17.43 3.83 17.37C3.73 17.33 3.64 17.31 3.54 17.29C3.44 17.27 3.34 17.25 3.24 17.24C3.14 17.23 3.04 17.23 2.95 17.22C2.85 17.21 2.76 17.19 2.67 17.18Z"></path></g><path id="路径 296" fill-rule="evenodd" style="fill:#544E48" opacity="1" d="M58,44.4zM58,44.4c0,-0.04 0,-0.07 0,-0.11c-0.02,-1.36 0.28,-2.7 0.73,-3.93c0.12,-0.34 0.26,-0.69 0.47,-0.95c0.2,-0.26 0.49,-0.44 0.78,-0.4c0.36,0.05 0.65,0.46 0.74,0.93c0.09,0.47 -0.01,0.97 -0.19,1.38c-0.18,0.42 -0.45,0.76 -0.71,1.09c-0.21,0.27 -0.43,0.52 -0.65,0.77c0.61,-0.54 1.28,-1 1.97,-1.4c0.31,-0.19 0.64,-0.36 0.97,-0.43c0.33,-0.07 0.67,-0.03 0.86,0.19c0.24,0.27 0.2,0.78 -0.03,1.19c-0.23,0.41 -0.62,0.73 -1.03,0.93c-0.28,0.14 -0.57,0.23 -0.85,0.3c0.34,0.01 0.68,0.03 1.02,0.07c0.37,0.04 0.73,0.09 1.04,0.23c0.31,0.13 0.56,0.37 0.59,0.65c0.04,0.37 -0.29,0.75 -0.72,0.95c-0.43,0.2 -0.93,0.23 -1.38,0.15c-0.45,-0.07 -0.85,-0.24 -1.23,-0.42c-0.77,-0.36 -1.51,-0.76 -2.22,-1.2c-0.05,0 -0.11,0.01 -0.16,0.01z"></path><path id="路径 297" fill-rule="evenodd" style="fill:#FFDBDC" opacity="1" d="M14.14 16.07C12.64 21.83 12.12 27.73 12.01 33.63C11.9 39.92 12.45 46.67 17.14 51.66C20.41 55.14 25.41 57.35 30.62 58.41C32.05 58.69 33.52 58.88 35 59C32.68 57.3 31.12 54.89 30.3 52.41C29.22 49.19 29.22 45.81 29.23 42.48C29.24 36.42 29.25 30.38 29.26 24.32C29.26 21.88 29.26 19.42 28.62 17.04C27.98 14.65 26.64 12.32 24.35 10.75C22.3 9.34 19.4 8.64 16.82 9.19C15.56 11.34 14.74 13.71 14.14 16.07Z"></path><path id="路径 298" fill-rule="evenodd" style="fill:#B7D66A" opacity="1" d="M5.54 9.96443C7.77 11.5144 12.58 12.5744 15.24 11.9944C16.26 11.2344 18.06 8.80443 18.22 6.09443C12.25 8.55443 5.21 7.85443 0 4.04443C1.58 6.25443 3.31 8.41443 5.54 9.96443Z"></path></g><g opacity="1"  transform="translate(214 384)  rotate(0)"><path id="路径 72" fill-rule="evenodd" style="fill:#775836" opacity="1" d="M7.02752 7.81956L3.08753 5.65955C2.66753 5.42955 2.11753 5.53955 1.85753 5.89955C1.59753 6.26955 1.71753 6.74955 2.13753 6.96955L6.06752 9.12956C6.48752 9.35956 7.03752 9.24956 7.30752 8.88956C7.56752 8.52956 7.43752 8.04956 7.02752 7.81956Z"></path><path id="路径 73" fill-rule="evenodd" style="fill:#775836" opacity="1" d="M2.59558 19.3141L6.53558 17.1541C6.95557 16.9341 7.07557 16.4541 6.80557 16.0841C6.54558 15.7241 5.99558 15.6141 5.57558 15.8441L1.63559 18.0041C1.22559 18.2241 1.09559 18.7041 1.36559 19.0741C1.62559 19.4341 2.17558 19.5441 2.59558 19.3141Z"></path><path id="路径 74" fill-rule="evenodd" style="fill:#775836" opacity="1" d="M5.56001 11.4831L0.910002 11.4331C0.410001 11.4231 0.01 11.7731 0 12.203C-0.01 12.623 0.390001 12.973 0.880002 12.983L5.54001 13.033C6.03001 13.043 6.44001 12.703 6.44001 12.273C6.45001 11.8431 6.05001 11.4931 5.56001 11.4831Z"></path><path id="路径 75" fill-rule="evenodd" style="fill:#775836" opacity="1" d="M15.9301 9.12956L19.8701 6.96955C20.2901 6.74955 20.4101 6.26955 20.1401 5.89955C19.8801 5.53955 19.3301 5.42955 18.9101 5.65955L14.9701 7.81956C14.5601 8.04956 14.4301 8.52956 14.7001 8.88956C14.9601 9.24956 15.5101 9.35956 15.9301 9.12956Z"></path><path id="路径 76" fill-rule="evenodd" style="fill:#775836" opacity="1" d="M20.362 18.0041L16.422 15.8441C16.002 15.6141 15.452 15.7241 15.192 16.0841C14.932 16.4541 15.052 16.9341 15.472 17.1541L19.402 19.3141C19.822 19.5441 20.372 19.4341 20.642 19.0741C20.902 18.7041 20.772 18.2241 20.362 18.0041Z"></path><path id="路径 77" fill-rule="evenodd" style="fill:#775836" opacity="1" d="M16.4669 13.033L21.1169 12.983C21.6069 12.973 22.0069 12.623 21.9969 12.203C21.9969 11.7731 21.5869 11.4231 21.0969 11.4331L16.4369 11.4831C15.9469 11.4931 15.5469 11.8431 15.5569 12.273C15.5669 12.703 15.9669 13.043 16.4669 13.033Z"></path><path id="路径 78" fill-rule="evenodd" style="fill:#775836" opacity="1" d="M14.1849 4.67023C14.1849 3.74023 13.3149 2.99023 12.2449 2.99023L9.74493 2.99023C8.67493 2.99023 7.80493 3.74023 7.80493 4.67023L7.80493 6.84022C7.80493 7.77022 8.67493 8.52021 9.74493 8.52021L12.2449 8.52021C13.3149 8.52021 14.1849 7.77022 14.1849 6.84022L14.1849 4.67023Z"></path><g opacity="1"  transform="translate(3.853759765625 6.42431640625)  rotate(0)"><path id="路径 79" fill-rule="evenodd" style="fill:#EF6D62" opacity="1" d="M14.27 4.37002C14.27 1.95001 12.01 0 9.22999 0L5.03999 0C2.25 0 0 1.95001 0 4.37002L0 9.21004C0 11.6201 2.25 13.5801 5.03999 13.5801L9.22999 13.5801C12.02 13.5801 14.27 11.6201 14.27 9.21004L14.27 4.37002Z"></path><path id="路径 80" fill-rule="evenodd" style="fill:#775836" opacity="1" d="M6.68994 13.5771L7.57997 13.5771L7.57997 0L6.68994 0L6.68994 13.5771Z"></path><path id="路径 81" fill-rule="evenodd" style="fill:#775836" opacity="1" d="M4.11389 1.14551C3.34388 1.14551 2.72388 1.6855 2.72388 2.3555C2.72388 3.01549 3.34388 3.55549 4.11389 3.55549C4.88389 3.55549 5.50389 3.01549 5.50389 2.3555C5.50389 1.6855 4.88389 1.14551 4.11389 1.14551Z"></path><path id="路径 82" fill-rule="evenodd" style="fill:#775836" opacity="1" d="M3.30278 4.60303C2.08278 4.60303 1.09277 5.46303 1.09277 6.51304C1.09277 7.57305 2.08278 8.43305 3.30278 8.43305C4.52278 8.43305 5.50278 7.57305 5.50278 6.51304C5.50278 5.46303 4.52278 4.60303 3.30278 4.60303Z"></path><path id="路径 83" fill-rule="evenodd" style="fill:#775836" opacity="1" d="M4.11389 10.3252C3.34388 10.3252 2.72388 10.8652 2.72388 11.5352C2.72388 12.1952 3.34388 12.7352 4.11389 12.7352C4.88389 12.7352 5.50389 12.1952 5.50389 11.5352C5.50389 10.8652 4.88389 10.3252 4.11389 10.3252Z"></path><path id="路径 84" fill-rule="evenodd" style="fill:#775836" opacity="1" d="M9.83825 10.3252C9.06825 10.3252 8.44824 10.8652 8.44824 11.5352C8.44824 12.1952 9.06825 12.7352 9.83825 12.7352C10.6083 12.7352 11.2283 12.1952 11.2283 11.5352C11.2283 10.8652 10.6083 10.3252 9.83825 10.3252Z"></path><path id="路径 85" fill-rule="evenodd" style="fill:#775836" opacity="1" d="M10.6009 4.6499C9.41091 4.6499 8.44092 5.48991 8.44092 6.51992C8.44092 7.54992 9.41091 8.38993 10.6009 8.38993C11.7809 8.38993 12.7509 7.54992 12.7509 6.51992C12.7509 5.48991 11.7809 4.6499 10.6009 4.6499Z"></path><path id="路径 86" fill-rule="evenodd" style="fill:#775836" opacity="1" d="M9.83825 1.14551C9.06825 1.14551 8.44824 1.6855 8.44824 2.3555C8.44824 3.01549 9.06825 3.55549 9.83825 3.55549C10.6083 3.55549 11.2283 3.01549 11.2283 2.3555C11.2283 1.6855 10.6083 1.14551 9.83825 1.14551Z"></path></g><g opacity="1"  transform="translate(6.492431640625 0.00006103515625)  rotate(0)"><path id="路径 87" fill-rule="evenodd" style="fill:#775836" opacity="1" d="M1.07999 0.179939C0.949993 -0.020061 0.609996 -0.060061 0.319998 0.089939C0.0399997 0.229939 -0.0799994 0.509939 0.0599996 0.699939L2.63998 4.47994C2.76998 4.66994 3.10998 4.70994 3.38998 4.56994C3.67997 4.42994 3.79997 4.14994 3.65997 3.94994L1.07999 0.179939Z"></path><path id="路径 88" fill-rule="evenodd" style="fill:#775836" opacity="1" d="M5.60296 4.56994C5.89295 4.70994 6.23295 4.66994 6.36295 4.47994L8.94293 0.699939C9.08293 0.509939 8.96293 0.229939 8.67294 0.089939C8.39294 -0.060061 8.05294 -0.020061 7.92294 0.179939L5.34296 3.94994C5.20296 4.14994 5.32296 4.42994 5.60296 4.56994Z"></path></g></g><g opacity="1"  transform="translate(0 265.65997314453125)  rotate(0)"><path id="路径 47" fill-rule="evenodd" style="fill:#775836" opacity="1" d="M25.8205 -0.0648572C25.5926 -0.179294 25.3116 -0.0831845 25.1944 0.150058C25.0773 0.3833 25.1681 0.666098 25.396 0.780535L27.6221 1.89842C27.85 2.01286 28.1311 1.91675 28.2482 1.68351C28.3653 1.45026 28.2745 1.16747 28.0467 1.05303L25.8205 -0.0648572Z"></path><path id="路径 48" fill-rule="evenodd" style="fill:#775836" opacity="1" d="M19.1461 -6.57821C17.5107 -7.39944 15.5059 -6.70524 14.6667 -5.0341L14.5815 -4.86431C13.7468 -3.20211 14.3873 -1.17959 16.0227 -0.358359L22.1175 2.70217C23.7529 3.5234 25.7577 2.82921 26.5924 1.16701L26.6776 0.997211C27.5168 -0.673926 26.8763 -2.69645 25.2409 -3.51767L19.1461 -6.57821Z"></path><path id="路径 49" fill-rule="evenodd" style="fill:#775836" opacity="1" d="M15.2311 -8.62027C13.7923 -9.34277 12.0292 -8.72865 11.2933 -7.26306L10.7772 -6.23536C10.0368 -4.76083 10.6106 -2.98439 12.0405 -2.26638L13.0593 -1.7548C14.4981 -1.0323 16.2612 -1.64641 16.9971 -3.11201L17.5132 -4.13971C18.2536 -5.61424 17.6798 -7.39067 16.2499 -8.10869L15.2311 -8.62027Z"></path><path id="路径 50" fill-rule="evenodd" style="fill:#775836" opacity="1" d="M9.14045 -7.99477L8.90261 -7.52113C8.34167 -6.40406 8.77317 -5.05719 9.86345 -4.5097C10.9537 -3.9622 12.2917 -4.42052 12.8527 -5.53759L13.0905 -6.01123C13.6514 -7.1283 13.2199 -8.47517 12.1297 -9.02266C11.0394 -9.57015 9.70139 -9.11184 9.14045 -7.99477Z"></path><g opacity="1"  transform="translate(3.120849609375 -6.21514892578125)  rotate(0)"><path id="路径 51" fill-rule="evenodd" style="fill:#775836" opacity="1" d="M0.878618 -0.923912C0.534272 -0.928978 0.229698 -0.656703 0.224633 -0.312358C0.206145 0.0364367 0.469484 0.336523 0.81383 0.341589L6.56466 0.543804C6.909 0.54887 7.20015 0.281044 7.21864 -0.0677505C7.22819 -0.421032 6.97379 -0.716632 6.62944 -0.721697L0.878618 -0.923912Z"></path><path id="路径 52" fill-rule="evenodd" style="fill:#775836" opacity="1" d="M7.87337 -1.37284C8.1376 -1.58704 8.18301 -1.98946 7.97329 -2.26262L4.37648 -6.75436C4.16676 -7.02753 3.76879 -7.05952 3.50008 -6.83637C3.22243 -6.61772 3.19044 -6.21975 3.40016 -5.94659L6.99697 -1.45484C7.20669 -1.18168 7.59572 -1.15418 7.87337 -1.37284Z"></path></g><path id="路径 53" fill-rule="evenodd" style="fill:#F7A541" opacity="1" d="M26.7044 -2.0174C26.4503 -2.53663 26.0709 -2.98453 25.5795 -3.32082L22.4741 2.86328C23.0329 3.06552 23.6187 3.10234 24.1869 2.99601L26.7044 -2.0174Z"></path><path id="路径 54" fill-rule="evenodd" style="fill:#F7A541" opacity="1" d="M21.3527 2.32786L24.4761 -3.89199L23.055 -4.6056L19.9316 1.61426L21.3527 2.32786Z"></path><path id="路径 55" fill-rule="evenodd" style="fill:#F7A541" opacity="1" d="M18.6979 0.994368L21.8213 -5.22549L20.4002 -5.93909L17.2769 0.280762L18.6979 0.994368Z"></path><path id="路径 56" fill-rule="evenodd" style="fill:#F7A541" opacity="1" d="M15.9226 -0.398698L19.0459 -6.61855C18.514 -6.85205 17.9551 -6.94248 17.4094 -6.9032L14.7169 -1.54126C15.0113 -1.0801 15.4131 -0.676881 15.9226 -0.398698Z"></path><path id="路径 57" fill-rule="evenodd" style="fill:#AFD3D3" opacity="1" d="M14.6953 6.72958C15.2744 8.04986 19.1982 9.70685 20.062 9.27901C21.6375 8.50357 20.1878 3.72482 19.9651 3.2325C18.4994 -0.0436368 15.2816 -3.93101 13.8035 -5.15445C12.2895 -6.39585 11.0475 -4.52416 11.4076 -3.25792C12.8169 1.62362 13.2209 3.31479 14.6953 6.72958Z"></path><path id="路径 58" fill-rule="evenodd" style="fill:#AFD3D3" opacity="1" d="M13.987 -5.51997C15.8466 -5.05613 20.8863 -4.797 24.3894 -5.57806C24.9173 -5.69343 29.616 -7.38474 29.2969 -9.11154C29.1241 -10.0599 25.4562 -12.2263 24.0469 -11.8933C20.4275 -11.0364 18.8297 -10.3505 14.0728 -8.56536C12.8421 -8.0979 12.0827 -5.98389 13.987 -5.51997Z"></path></g></g></g><defs><rect id="path_0" x="0" y="0" width="793.68" height="754" /></defs></svg>