<svg xmlns="http://www.w3.org/2000/svg" xmlns:xlink="http://www.w3.org/1999/xlink" width="28" height="28" viewBox="0 0 28 28" fill="none"><g opacity="1"  transform="translate(0 0)  rotate(0)"><path id="Path" fill-rule="evenodd" style="fill:#FFFFFF" opacity="1" d="M14.78 13.22L14.78 7.78C14.78 7.35 14.43 7 14 7C13.57 7 13.22 7.35 13.22 7.78L13.22 13.22L7.78 13.22C7.35 13.22 7 13.57 7 14C7 14.43 7.35 14.78 7.78 14.78L13.22 14.78L13.22 20.22C13.22 20.65 13.57 21 14 21C14.43 21 14.78 20.65 14.78 20.22L14.78 14.78L20.22 14.78C20.65 14.78 21 14.43 21 14C21 13.57 20.65 13.22 20.22 13.22L14.78 13.22Z"></path><path id="减去顶层" fill-rule="evenodd" style="fill:#FFFFFF" opacity="1" d="M14,0c7.73,0 14,6.27 14,14c0,7.73 -6.27,14 -14,14c-7.73,0 -14,-6.27 -14,-14c0,-7.73 6.27,-14 14,-14zM2.7097,13.9997c0,6.23 5.06,11.29 11.29,11.29c6.23,0 11.29,-5.06 11.29,-11.29c0,-6.23 -5.06,-11.29 -11.29,-11.29c-6.23,0 -11.29,5.06 -11.29,11.29z"></path></g></svg>