<svg xmlns="http://www.w3.org/2000/svg" xmlns:xlink="http://www.w3.org/1999/xlink" width="647" height="510" viewBox="0 0 647 510" fill="none"><g opacity="1"  transform="translate(0 0)  rotate(0)"><g opacity="1" transform="translate(7 0)  rotate(0)"><a xlink:href="https://" xlink:title="跳转" target="_blank"><text><tspan x="0" y="27.84" font-size="24" line-height="0" fill="#000000" opacity="1" font-family="SourceHanSansCN-Regular" font-weight="Regular" letter-spacing="0"  >这个测试源于图灵对2000年时的机器思考能力的一个预测，</tspan><tspan x="0" y="62.592" font-size="24" line-height="0" fill="#000000" opacity="1" font-family="SourceHanSansCN-Regular" font-weight="Regular" letter-spacing="0"  >它对人工智能领域产生了深远影响，并成为了一个重要的参</tspan><tspan x="0" y="97.34400000000001" font-size="24" line-height="0" fill="#000000" opacity="1" font-family="SourceHanSansCN-Regular" font-weight="Regular" letter-spacing="0" >考标准。</tspan></text></a></g><g opacity="1" transform="translate(7 114)  rotate(0)"><a xlink:href="https://" xlink:title="跳转" target="_blank"><text><tspan x="0" y="27.84" font-size="24" line-height="0" fill="#000000" opacity="1" font-family="SourceHanSansCN-Regular" font-weight="Regular" letter-spacing="0"  >它提供了一个明确的目标——通过对话测试机器是否具有智</tspan><tspan x="0" y="62.592" font-size="24" line-height="0" fill="#000000" opacity="1" font-family="SourceHanSansCN-Regular" font-weight="Regular" letter-spacing="0" >能，这为人工智能的研究设定了明确的方向。</tspan></text></a></g><g opacity="1" transform="translate(0 203)  rotate(0)"><a xlink:href="https://" xlink:title="跳转" target="_blank"><text><tspan x="0" y="27.84" font-size="24" line-height="0" fill="#000000" opacity="1" font-family="SourceHanSansCN-Regular" font-weight="Regular" letter-spacing="0"  >引发了一场关于人类智能本质的辩论。该测试让我们思考人</tspan><tspan x="0" y="62.592" font-size="24" line-height="0" fill="#000000" opacity="1" font-family="SourceHanSansCN-Regular" font-weight="Regular" letter-spacing="0" >类智能到底是什么，以及如何理解和定义智能的概念。</tspan></text></a></g><path id="路径 1" fill-rule="evenodd" style="fill:#FFF5DB" opacity="1" d="M272.592 277.813L272.593 293.624L272.588 320.276L311.962 321.792C311.962 321.792 260.286 359.265 254.876 359.196C249.456 359.128 207.463 321.796 207.463 321.796L242.865 320.282L242.861 293.62L242.86 277.809L272.592 277.813Z"></path><path  id="路径 1" style="fill:#000000; opacity:1;" d="M272.592,277.813v0.5l-29.732,-0.004v-0.5h0.5l0.001,15.811l0.004,27.141l-35.88,1.535l-0.022,-0.5l0.332,-0.373h0.001c27.90467,24.80533 43.6,37.22967 47.086,37.273c3.49667,0.04467 22.42533,-12.39167 56.786,-37.309l0.294,0.405l-0.294,-0.405l0.294,0.405l-0.02,0.5l-39.855,-1.535l0.006,-27.133l-0.001,-15.811zM273.092,277.813l0.001,15.811l-0.005,26.652h-0.5l0.019,-0.499l40.819,1.571l-1.171,0.849l1.171,-0.849l-1.171,0.849c-34.54,25.04667 -53.66833,37.54633 -57.385,37.499c-3.73467,-0.04667 -19.64767,-12.55533 -47.739,-37.526v0l-0.923,-0.82l36.636,-1.567l0.021,0.499h-0.5l-0.004,-26.662l-0.001,-16.311l30.732,0.004z"></path><g opacity="1" transform="translate(0 405)  rotate(0)"><a xlink:href="https://" xlink:title="跳转" target="_blank"><text><tspan x="0" y="27.84" font-size="24" line-height="0" fill="#000000" opacity="1" font-family="SourceHanSansCN-Regular" font-weight="Regular" letter-spacing="0"  >图灵测试在人工智能领域有着广泛的应用，不仅可以用来测</tspan><tspan x="0" y="62.592" font-size="24" line-height="0" fill="#000000" opacity="1" font-family="SourceHanSansCN-Regular" font-weight="Regular" letter-spacing="0"  >试聊天机器人的人类智力，还可以用于其他领域，如语音识</tspan><tspan x="0" y="97.34400000000001" font-size="24" line-height="0" fill="#000000" opacity="1" font-family="SourceHanSansCN-Regular" font-weight="Regular" letter-spacing="0" >别和自然语言处理等。</tspan></text></a></g></g></svg>