<svg xmlns="http://www.w3.org/2000/svg" xmlns:xlink="http://www.w3.org/1999/xlink" width="720.125" height="611" viewBox="0 0 720.125 611" fill="none"><g opacity="1"  transform="translate(7.125 0)  rotate(0)"><g opacity="1"  transform="translate(0 49)  rotate(0)"><g opacity="1" transform="translate(62 4)  rotate(0)"><path id="文本 1"  style="fill:#2BA1CC" opacity="1" d="M2.952 41.76L18.972 41.76L18.972 37.44L13.968 37.44L13.968 15.084L10.044 15.084C8.352 16.164 6.552 16.848 3.852 17.316L3.852 20.628L8.712 20.628L8.712 37.44L2.952 37.44L2.952 41.76ZM9.18 94.392C14.472 94.392 19.404 90.036 19.404 79.956C19.404 70.704 14.904 66.744 9.828 66.744C5.256 66.744 1.44 70.164 1.44 75.636C1.44 81.288 4.608 84.024 9.072 84.024C10.872 84.024 13.14 82.944 14.544 81.144C14.292 87.804 11.844 90.072 8.892 90.072C7.308 90.072 5.652 89.244 4.68 88.164L1.872 91.368C3.456 92.988 5.868 94.392 9.18 94.392ZM14.472 77.364C13.176 79.452 11.52 80.244 10.08 80.244C7.776 80.244 6.3 78.768 6.3 75.636C6.3 72.36 7.92 70.74 9.9 70.74C12.168 70.74 14.004 72.54 14.472 77.364ZM9.972 146.52C14.832 146.52 19.26 143.1 19.26 137.16C19.26 131.364 15.552 128.736 11.052 128.736C9.828 128.736 8.892 128.952 7.848 129.456L8.352 123.804L18.036 123.804L18.036 119.34L3.78 119.34L3.06 132.3L5.472 133.848C7.056 132.84 7.92 132.48 9.468 132.48C12.132 132.48 13.968 134.208 13.968 137.304C13.968 140.436 12.024 142.2 9.252 142.2C6.804 142.2 4.896 140.976 3.384 139.5L0.936 142.884C2.952 144.864 5.724 146.52 9.972 146.52ZM10.62 198.648C16.056 198.648 19.656 193.896 19.656 184.68C19.656 175.536 16.056 171 10.62 171C5.184 171 1.584 175.5 1.584 184.68C1.584 193.896 5.184 198.648 10.62 198.648ZM10.62 194.508C8.316 194.508 6.588 192.204 6.588 184.68C6.588 177.264 8.316 175.068 10.62 175.068C12.924 175.068 14.616 177.264 14.616 184.68C14.616 192.204 12.924 194.508 10.62 194.508Z"></path><path  id="文本 1" style="fill:#FFFFFF; opacity:1;" d="M-2.048,46.76v-14.32h5.76v-6.812h-4.86v-12.5199l4.14607,-0.7186c1.80687,-0.3132 3.25879,-0.8199 4.35575,-1.5201l1.23044,-0.7854h10.38374v22.356h5.004v14.32zM8.968,15.7076c-1.40303,0.7314 -2.97712,1.2377 -5.116,1.6084v3.312h4.86v16.812h-5.76v4.32h16.02v-4.32h-5.004v-22.356h-3.924c-0.30351,0.1937 -0.61049,0.3747 -0.92552,0.544c-0.03313,0.0178 -0.06635,0.0355 -0.09966,0.053c-0.01692,0.0089 -0.03386,0.0178 -0.05082,0.0266zM9.18,99.392c-4.30349,0 -7.93117,-1.50947 -10.88303,-4.5284l-3.23626,-3.3098l5.16318,-5.8913c-0.0772,-0.07547 -0.15363,-0.15217 -0.22928,-0.2301c-2.36974,-2.44087 -3.55461,-5.70633 -3.55461,-9.7964c0,-4.03647 1.30948,-7.37577 3.92843,-10.0179c2.56006,-2.58273 5.71325,-3.8741 9.45957,-3.8741c4.07147,0 7.4292,1.46737 10.0732,4.4021l0.2248,-0.2882l-0.0197,0.5203c0.09427,0.10893 0.18763,0.2198 0.2801,0.3326c2.6784,3.26753 4.0176,7.6826 4.0176,13.2452c0,5.92347 -1.41187,10.63577 -4.2356,14.1369c-2.84913,3.53273 -6.51193,5.2991 -10.9884,5.2991zM19.3849,78.9298c-0.147,-3.8916 -1.1347,-6.7706 -2.6299,-8.7501c-1.7781,-2.3538 -4.2739,-3.4357 -6.927,-3.4357c-4.572,0 -8.388,3.42 -8.388,8.892c0,2.7879 0.77076,4.8663 2.08764,6.2568c1.04506,1.1035 2.43405,1.7739 4.0547,2.0218c0.47741,0.073 0.97492,0.1094 1.48966,0.1094h0.01334c0.0288,-0.0001 0.05773,-0.0005 0.08677,-0.0011c1.71119,-0.0374 3.81589,-1.0271 5.20089,-2.6682c0.0583,-0.0691 0.1153,-0.1393 0.171,-0.2107c-0.0454,1.2011 -0.1623,2.2593 -0.3407,3.1872c-0.376,1.956 -1.0253,3.3325 -1.8549,4.2464c-0.959,1.0563 -2.159,1.4944 -3.4564,1.4944c-1.15566,0 -2.34965,-0.4407 -3.28837,-1.0985c-0.22785,-0.1597 -0.44066,-0.3321 -0.63423,-0.5142c-0.02089,-0.0196 -0.04156,-0.0394 -0.062,-0.0592c-0.07936,-0.0772 -0.15527,-0.156 -0.2274,-0.2361l-0.13881,0.1584l-2.66919,3.0456c0.3547,0.3628 0.75091,0.7147 1.18946,1.0424c0.88165,0.659 1.93439,1.2202 3.16477,1.5754c0.89067,0.2571 1.87443,0.4062 2.95377,0.4062c5.292,0 10.224,-4.356 10.224,-14.436c0,-0.3496 -0.0064,-0.6916 -0.0191,-1.0262zM14.472,77.364c-0.0577,0.0929 -0.1161,0.1833 -0.1751,0.2711c-1.2679,1.8858 -2.841,2.6089 -4.2169,2.6089c-2.304,0 -3.78,-1.476 -3.78,-4.608c0,-3.276 1.62,-4.896 3.6,-4.896c1.6331,0 3.0421,0.9332 3.8778,3.2566c0.3249,0.9034 0.5632,2.0169 0.6942,3.3674zM9.972,151.52c-4.9191,0 -9.09895,-1.68967 -12.53955,-5.069l-3.0682,-3.013l5.32447,-7.361l-1.78273,-1.144l1.14408,-20.593h23.98593v14.464h-1.2706c1.66307,2.24667 2.4946,5.032 2.4946,8.356c0,4.30267 -1.471,7.82467 -4.413,10.566c-2.7148,2.52933 -6.00647,3.794 -9.875,3.794zM9.252,142.2c-1.16106,0 -2.20065,-0.275 -3.13413,-0.722c-0.8415,-0.403 -1.59678,-0.946 -2.27708,-1.552c-0.15617,-0.139 -0.30839,-0.281 -0.45679,-0.426l-2.448,3.384c0.91376,0.897 1.98283,1.728 3.27426,2.369c0.28732,0.142 0.58565,0.275 0.89572,0.397c1.37109,0.541 2.97182,0.87 4.86602,0.87c2.8322,0 5.5178,-1.161 7.2657,-3.306c1.2515,-1.536 2.0223,-3.576 2.0223,-6.054c0,-3.07 -1.0403,-5.251 -2.6876,-6.624c-1.0199,-0.85 -2.2724,-1.39 -3.6547,-1.639c-0.21,-0.037 -0.4229,-0.069 -0.6385,-0.093c-0.4007,-0.045 -0.8106,-0.068 -1.2272,-0.068c-0.3897,0 -0.7502,0.022 -1.09428,0.068c-0.60148,0.081 -1.15281,0.235 -1.72225,0.476c-0.12092,0.051 -0.24265,0.107 -0.36586,0.166c-0.0072,0.003 -0.0144,0.007 -0.02161,0.01l0.00205,-0.023l0.16492,-1.849l0.28923,-3.244l0.02778,-0.311l0.02002,-0.225h9.684v-4.464h-14.256l-0.55673,10.021l-0.0487,0.877l-0.1091,1.964l-0.00547,0.098l0.31015,0.199l2.10185,1.349c1.584,-1.008 2.448,-1.368 3.996,-1.368c1.6431,0 2.9712,0.657 3.7478,1.888c0.4826,0.764 0.7522,1.75 0.7522,2.936c0,1.463 -0.424,2.627 -1.1582,3.453c-0.8381,0.942 -2.0803,1.443 -3.5578,1.443zM10.62,203.648c-4.55504,0 -8.12195,-1.91033 -10.70074,-5.731c-2.2235,-3.294 -3.33526,-7.70633 -3.33526,-13.237c0,-5.52133 1.12461,-9.9 3.37382,-13.136c2.56883,-3.696 6.12289,-5.544 10.66218,-5.544c4.53813,0 8.09307,1.85367 10.6648,5.561c2.24747,3.24 3.3712,7.613 3.3712,13.119c0,5.53067 -1.11177,9.943 -3.3353,13.237c-2.57873,3.82067 -6.14563,5.731 -10.7007,5.731zM1.59825,183.695c-0.00947,0.322 -0.01425,0.651 -0.01425,0.985c0,0.343 0.00497,0.679 0.01483,1.009c0.25533,8.554 3.78723,12.959 9.02117,12.959c4.7876,0 8.1511,-3.686 8.8853,-10.861c0.0995,-0.972 0.1507,-2.008 0.1507,-3.107c0,-1.106 -0.0527,-2.145 -0.1549,-3.116c-0.7428,-7.059 -4.1026,-10.564 -8.8811,-10.564c-5.23798,0 -8.77128,4.178 -9.02175,12.695zM10.62,194.508c-2.17253,0 -3.83292,-2.049 -4.01533,-8.59c-0.01104,-0.396 -0.01667,-0.809 -0.01667,-1.238c0,-0.388 0.00472,-0.761 0.01401,-1.121c0.16828,-6.519 1.83446,-8.491 4.01799,-8.491c1.9413,0 3.4482,1.559 3.8744,6.486c0.0797,0.921 0.1216,1.959 0.1216,3.126c0,1.28 -0.0489,2.408 -0.1415,3.4c-0.4518,4.841 -1.9424,6.428 -3.8545,6.428z"></path></g><g opacity="1" transform="translate(0 0)  rotate(0)"><path id="文本 1"  style="fill:#2BA1CC" opacity="1" d="M2.592 12.564L2.592 45L6.732 45L6.732 43.704L29.124 43.704L29.124 45L33.48 45L33.48 12.564L2.592 12.564ZM9.576 36.756C14.4 37.296 20.34 38.664 23.94 39.924L6.732 39.924L6.732 29.196C7.344 30.06 7.992 31.284 8.28 32.112C10.26 31.644 12.24 31.032 14.22 30.276L12.888 32.148C15.912 32.76 19.728 34.056 21.852 35.064L23.616 32.4C21.564 31.5 18.18 30.456 15.3 29.844C16.272 29.412 17.28 28.98 18.216 28.476C20.988 29.88 24.084 30.96 27.216 31.644C27.612 30.852 28.404 29.736 29.124 28.944L29.124 39.924L24.408 39.924L26.244 37.008C22.536 35.784 16.452 34.452 11.52 33.948L9.576 36.756ZM14.544 16.416C12.816 19.044 9.792 21.636 6.876 23.256C7.704 23.868 9.072 25.128 9.72 25.848C10.44 25.38 11.16 24.84 11.916 24.228C12.708 24.948 13.572 25.632 14.472 26.28C12.024 27.252 9.324 28.044 6.732 28.548L6.732 16.416L14.544 16.416ZM14.94 16.416L29.124 16.416L29.124 28.368C26.64 27.9 24.12 27.216 21.852 26.352C24.3 24.66 26.388 22.68 27.864 20.448L25.452 19.008L24.84 19.188L16.92 19.188C17.352 18.648 17.784 18.072 18.144 17.532L14.94 16.416ZM18.072 24.624C16.776 23.94 15.624 23.184 14.652 22.356L21.6 22.356C20.592 23.184 19.368 23.94 18.072 24.624ZM7.02 80.532C6.264 82.98 4.896 85.572 3.168 87.228L6.768 89.388C8.64 87.516 9.9 84.564 10.764 81.9L7.02 80.532ZM28.296 80.352C27.432 82.584 25.812 85.5 24.552 87.264L27.792 89.244C29.052 87.48 30.672 84.888 32.04 82.512L28.296 80.352ZM15.84 79.128C15.156 86.58 14.076 91.404 0.972 93.672C1.836 94.572 2.844 96.264 3.24 97.416C12.168 95.616 16.308 92.52 18.36 88.236C21.06 93.096 25.344 95.832 32.616 96.984C33.12 95.796 34.236 93.996 35.1 93.06C26.46 92.196 21.996 88.956 19.908 82.98C20.124 81.756 20.268 80.46 20.412 79.128L15.84 79.128ZM4.176 64.404L4.176 68.22L26.856 68.22L26.856 69.948L5.76 69.948L5.76 72.936L26.856 72.936L26.856 74.592L4.176 74.592L4.176 78.408L30.996 78.408L30.996 64.404L4.176 64.404ZM10.98 117.324L10.98 141.012L14.22 141.012L14.22 120.42L20.448 120.42L20.448 140.796L23.832 140.796L23.832 117.324L10.98 117.324ZM30.456 116.028L30.456 144.9C30.456 145.44 30.276 145.62 29.736 145.62C29.196 145.62 27.504 145.656 25.74 145.584C26.172 146.592 26.676 148.176 26.82 149.112C29.412 149.112 31.212 149.004 32.328 148.428C33.48 147.852 33.84 146.844 33.84 144.9L33.84 116.028L30.456 116.028ZM25.524 118.728L25.524 140.94L28.8 140.94L28.8 118.728L25.524 118.728ZM2.376 118.872C4.356 119.988 7.056 121.644 8.316 122.76L10.944 119.268C9.576 118.188 6.84 116.676 4.932 115.74L2.376 118.872ZM1.008 128.52C2.952 129.564 5.616 131.184 6.912 132.228L9.504 128.772C8.064 127.764 5.328 126.288 3.456 125.388L1.008 128.52ZM1.62 146.664L5.508 148.86C6.984 145.332 8.532 141.156 9.756 137.268L6.264 135.036C4.86 139.248 2.988 143.82 1.62 146.664ZM15.696 122.4L15.696 136.188C15.696 140.22 15.12 144.072 9.468 146.628C10.008 147.168 11.016 148.536 11.304 149.256C14.58 147.78 16.452 145.692 17.532 143.352C19.116 145.116 20.988 147.492 21.852 148.968L24.588 147.24C23.652 145.692 21.636 143.352 19.98 141.66L17.676 143.028C18.612 140.832 18.828 138.456 18.828 136.224L18.828 122.4L15.696 122.4ZM3.492 170.64C5.436 172.368 7.92 174.78 9.036 176.4L12.024 173.448C10.8 171.9 8.208 169.596 6.3 168.048L3.492 170.64ZM13.716 182.736L13.716 186.696L16.632 186.696L16.632 194.436L14.364 195.012L14.4 194.976C14.004 194.148 13.536 192.456 13.32 191.304L10.116 193.32L10.116 178.668L1.764 178.668L1.764 182.808L6.012 182.808L6.012 193.716C6.012 195.3 4.896 196.488 4.068 196.992C4.788 197.856 5.796 199.728 6.084 200.772C6.732 200.052 7.812 199.332 13.212 195.768L14.184 199.296C17.28 198.396 21.168 197.28 24.804 196.2L24.192 192.456L20.592 193.428L20.592 186.696L23.292 186.696L23.292 182.736L13.716 182.736ZM23.688 167.832L23.832 174.492L12.636 174.492L12.636 178.596L23.976 178.596C24.588 192.636 26.244 201.06 30.78 201.132C32.256 201.132 34.308 199.764 35.208 192.78C34.524 192.384 32.544 191.196 31.824 190.296C31.68 193.536 31.392 195.336 30.924 195.3C29.664 195.264 28.692 188.136 28.26 178.596L34.776 178.596L34.776 174.492L32.076 174.492L34.74 172.764C34.092 171.432 32.544 169.416 31.212 167.94L28.332 169.704C29.52 171.144 30.852 173.088 31.5 174.492L28.152 174.492C28.08 172.332 28.08 170.1 28.08 167.832L23.688 167.832Z"></path><path  id="文本 1" style="fill:#FFFFFF; opacity:1;" d="M-1.408,8.564h38.888v40.436h-12.356v-1.296h-14.392v1.296h-12.14zM29.124,45h4.356v-32.436h-30.888v32.436h4.14v-1.296h22.392v0.22zM14.544,16.416c-0.0324,0.0493 -0.0654,0.0987 -0.0987,0.148c-0.0879,0.13 -0.179,0.2599 -0.2729,0.3895c-0.3426,0.4726 -0.7243,0.9419 -1.1368,1.4025c-0.2414,0.2695 -0.4933,0.536 -0.7542,0.7984c-0.4308,0.4334 -0.8858,0.8556 -1.3578,1.2616c-0.0417,0.0359 -0.0835,0.0717 -0.1255,0.1073c-0.022,0.0187 -0.044,0.0373 -0.0661,0.0559c-0.0477,0.0403 -0.0956,0.0803 -0.1436,0.1202c-0.0809,0.0671 -0.1621,0.1338 -0.2437,0.1999c-0.62136,0.5032 -1.26546,0.9765 -1.9166,1.4094c-0.23678,0.1575 -0.47449,0.3096 -0.71237,0.4558c-0.1492,0.0917 -0.29846,0.1812 -0.4476,0.2682c-0.13084,0.0763 -0.26159,0.1508 -0.39213,0.2233c0.31589,0.2335 0.71037,0.5613 1.11349,0.9174c0.07852,0.0694 0.15736,0.1398 0.23602,0.2109c0.57601,0.5202 1.14186,1.0719 1.49449,1.4637c0.3361,-0.2185 0.6722,-0.4526 1.012,-0.7025c0.1802,-0.1325 0.3614,-0.2694 0.5441,-0.4107c0.2109,-0.163 0.424,-0.332 0.6399,-0.5068c0.1123,0.1021 0.2261,0.2035 0.3412,0.3041c0.5821,0.5091 1.1986,0.9995 1.8362,1.4715c0.0116,0.0086 0.0232,0.0172 0.0348,0.0258c0.114,0.0841 0.2286,0.1677 0.3438,0.2506c-0.2251,0.0894 -0.4524,0.1773 -0.6815,0.2635c-0.0545,0.0205 -0.109,0.0409 -0.1636,0.0612c-0.9415,0.35 -1.9128,0.6727 -2.8949,0.9625c-0.0768,0.0226 -0.1537,0.0451 -0.2307,0.0673c-0.0096,0.0028 -0.0193,0.0056 -0.0289,0.0084c-0.0643,0.0186 -0.1287,0.037 -0.1931,0.0552c-0.1196,0.034 -0.2394,0.0674 -0.35925,0.1004c-0.83828,0.2304 -1.68048,0.4358 -2.5148,0.6126c-0.21464,0.0456 -0.42876,0.0892 -0.64215,0.1308c-0.01037,0.0021 -0.02074,0.0041 -0.0311,0.0061v-12.132zM15.3649,16.564l-0.4249,-0.148h14.184v11.952c-0.3803,-0.0716 -0.7614,-0.1484 -1.1423,-0.23c-0.4819,-0.1033 -0.9634,-0.2144 -1.4425,-0.3332c-0.4602,-0.1141 -0.9181,-0.2352 -1.372,-0.3632c-0.0144,-0.004 -0.0288,-0.0081 -0.0432,-0.0122c-0.8746,-0.2474 -1.7339,-0.5202 -2.5646,-0.8166c-0.2197,-0.0784 -0.4374,-0.1584 -0.6528,-0.2401c-0.0182,-0.0069 -0.0364,-0.0138 -0.0546,-0.0207c0.0378,-0.0261 0.0755,-0.0523 0.1132,-0.0786c0.008,-0.0056 0.016,-0.0112 0.024,-0.0168c0.1302,-0.0911 0.2594,-0.183 0.3876,-0.2758c0.9857,-0.7135 1.9073,-1.4753 2.7472,-2.283c0.0486,-0.0467 0.0968,-0.0935 0.1448,-0.1405c0.0658,-0.0644 0.1311,-0.1291 0.1959,-0.1941c0.0878,-0.0882 0.1747,-0.1769 0.2606,-0.2662c0.2426,-0.2519 0.4772,-0.508 0.7034,-0.7683c0.526,-0.605 1.0065,-1.2322 1.4353,-1.8807l-0.0536,-0.032l-2.3584,-1.408l-0.328,0.0965l-0.284,0.0835h-7.92c0.217,-0.2713 0.4341,-0.5517 0.642,-0.832c0.2059,-0.2777 0.4029,-0.5553 0.582,-0.824l-1.224,-0.4263zM18.698,24.2846c-0.0106,0.0059 -0.0212,0.0118 -0.0318,0.0176c-0.0179,0.01 -0.0359,0.02 -0.0538,0.0299c-0.1785,0.0987 -0.3587,0.196 -0.5404,0.2919c-0.0338,-0.0178 -0.0675,-0.0357 -0.1011,-0.0537c-0.003,-0.0016 -0.006,-0.0031 -0.0089,-0.0047c-0.1055,-0.0564 -0.2101,-0.1133 -0.3136,-0.1706c-0.0066,-0.0037 -0.0132,-0.0073 -0.0197,-0.0109c-0.0411,-0.0228 -0.0821,-0.0457 -0.1229,-0.0687c-0.6345,-0.3573 -1.2307,-0.7331 -1.784,-1.1274c-0.3481,-0.2481 -0.6791,-0.5035 -0.992,-0.7662c-0.0138,-0.0116 -0.0276,-0.0232 -0.0413,-0.0348c-0.0122,-0.0103 -0.0244,-0.0207 -0.0365,-0.031h6.948c-0.3481,0.2859 -0.7219,0.5633 -1.1156,0.832c-0.5473,0.3737 -1.133,0.7308 -1.7411,1.0713c-0.0151,0.0084 -0.0302,0.0168 -0.0453,0.0253zM6.732,39.924v-10.728c0.01403,0.0198 0.02808,0.0398 0.04215,0.06c0.52207,0.749 1.06364,1.7462 1.38061,2.5256c0.01042,0.0256 0.0206,0.051 0.03052,0.0762c0.03479,0.088 0.06648,0.173 0.09472,0.2542c0.81733,-0.1932 1.63467,-0.4109 2.452,-0.6532c0.8193,-0.2428 1.6386,-0.5103 2.4579,-0.8025c0.3434,-0.1224 0.6867,-0.2492 1.0301,-0.3803l-0.3496,0.4913l-0.9824,1.3807c0.7172,0.1451 1.479,0.3288 2.2521,0.5379c0.5427,0.1468 1.091,0.3061 1.6334,0.4736c0.069,0.0213 0.1379,0.0427 0.2067,0.0642c0.0141,0.0044 0.0281,0.0089 0.0422,0.0133c0.0132,0.0041 0.0265,0.0083 0.0397,0.0125c0.0829,0.0261 0.1657,0.0524 0.2482,0.0789c1.747,0.5601 3.3922,1.1901 4.5417,1.7356l0.4082,-0.6165l1.3558,-2.0475c-0.1332,-0.0584 -0.2719,-0.1174 -0.4158,-0.1769c-0.6135,-0.2535 -1.3199,-0.5152 -2.0803,-0.7729c-0.4436,-0.1503 -0.9055,-0.2993 -1.3781,-0.4444c-0.0651,-0.02 -0.1303,-0.0399 -0.1958,-0.0597c-0.2439,-0.074 -0.4904,-0.1468 -0.7383,-0.2182c-0.5041,-0.1452 -1.0143,-0.2846 -1.5219,-0.4153c-0.4442,-0.1145 -0.8864,-0.2223 -1.3206,-0.3217c-0.2241,-0.0513 -0.4461,-0.1003 -0.6652,-0.1469c0.5883,-0.2615 1.1899,-0.523 1.7807,-0.8004c0.0893,-0.042 0.1784,-0.0843 0.2671,-0.1271c0.027,-0.0129 0.0539,-0.0259 0.0808,-0.039c0.023,-0.0112 0.0461,-0.0224 0.0691,-0.0337c0.2428,-0.1188 0.4829,-0.241 0.7183,-0.3678c0.1925,0.0975 0.3865,0.1934 0.582,0.2877c0.0388,0.0188 0.0777,0.0375 0.1167,0.0561c0.3106,0.1484 0.6249,0.2929 0.9424,0.4333c1.6834,0.7442 3.4581,1.3735 5.2669,1.8736c0.6934,0.1917 1.3918,0.3644 2.092,0.5173c0.2314,-0.4629 0.5982,-1.0365 1.0067,-1.5913c0.2905,-0.3945 0.6021,-0.7796 0.9013,-1.1087v10.98h-4.716l0.1385,-0.22l0.1516,-0.2407l0.4259,-0.6765l1.12,-1.7788c-0.2335,-0.0771 -0.4765,-0.1546 -0.728,-0.2323c-0.1128,-0.0349 -0.2273,-0.0697 -0.3434,-0.1047c-0.0162,-0.0048 -0.0324,-0.0097 -0.0486,-0.0145c-0.2324,-0.0696 -0.4713,-0.1393 -0.716,-0.2088c-0.1537,-0.0437 -0.3098,-0.0874 -0.468,-0.1309c-0.4796,-0.1321 -0.979,-0.2634 -1.4938,-0.3928c-0.0707,-0.0178 -0.1417,-0.0355 -0.213,-0.0532c-0.0418,-0.0104 -0.0838,-0.0208 -0.1258,-0.0311c-0.5092,-0.1256 -1.0322,-0.249 -1.5649,-0.3693c-1.8824,-0.4251 -3.8863,-0.8108 -5.8327,-1.1097c-1.0919,-0.1677 -2.1657,-0.308 -3.1898,-0.4127l-0.788,1.1382l-0.429,0.6197l-0.0207,0.0299l-0.1303,0.1882l-0.576,0.832c0.379,0.0424 0.7649,0.09 1.156,0.1422c0.1591,0.0212 0.3191,0.0432 0.4798,0.0659c0.9073,0.1284 1.8385,0.2804 2.7733,0.4505c2.1939,0.3991 4.4076,0.8979 6.3787,1.4253c0.0893,0.0239 0.1781,0.0479 0.2664,0.0719c0.9591,0.2607 1.8565,0.5276 2.6609,0.7922c0.0262,0.0086 0.0523,0.0172 0.0783,0.0258c0.0524,0.0174 0.1044,0.0347 0.156,0.0521c0.1414,0.0475 0.2796,0.0949 0.4146,0.1421zM0.176,60.404h34.82v19.1954l2.5046,1.445l-1.9941,3.4635c-0.8842,1.53573 -1.72903,2.93497 -2.5345,4.1977c0.79453,0.16053 1.63653,0.28527 2.526,0.3742l7.9827,0.7983l-5.4415,5.895c-0.69627,0.75433 -1.27657,1.6787 -1.7409,2.7731l-1.2208,2.8778l-3.0874,-0.489c-5.73627,-0.90887 -10.26297,-2.9537 -13.5801,-6.1345c-3.27507,3.08533 -8.06822,5.26417 -14.37945,6.5365l-3.43438,0.693l-1.13891,-3.3137c-0.30212,-0.87887 -0.75905,-1.63693 -1.3708,-2.2742l-5.21111,-5.4282l6.85148,-1.1859l-3.10748,-1.8645l3.78105,-3.6235c0.55405,-0.53093 1.05224,-1.17493 1.49457,-1.932h-1.71895zM30.996,78.408v-14.004h-26.82v3.816h22.68v1.728h-21.096v2.988h21.096v1.656h-22.68v3.816h26.68zM5.32435,92.7074c-0.17973,0.0507 -0.36269,0.1007 -0.54894,0.1498c-1.13994,0.3009 -2.40301,0.5724 -3.80341,0.8148c0.84039,0.8754 1.81702,2.5001 2.23418,3.6484c0.01026,0.0282 0.02017,0.0561 0.02974,0.0838c0.00137,0.0039 0.00273,0.0079 0.00408,0.0118c6.23336,-1.2567 10.1328,-3.1452 12.6172,-5.6287c0.9907,-0.9903 1.7564,-2.0753 2.3553,-3.2526c0.0503,-0.0989 0.0995,-0.1985 0.1475,-0.2987c0.6634,1.1942 1.4225,2.2601 2.298,3.2058c0.0994,0.1073 0.2002,0.2131 0.3026,0.3173c2.6672,2.7154 6.373,4.3881 11.6554,5.2249c0.0246,-0.0581 0.0507,-0.1176 0.0782,-0.1784c0.0028,-0.0063 0.0057,-0.0126 0.0085,-0.0189c0.5369,-1.1823 1.5799,-2.8412 2.3973,-3.7267c-1.6427,-0.1643 -3.1344,-0.4144 -4.4876,-0.7529c-0.02407,-0.00607 -0.04863,-0.01227 -0.0737,-0.0186c-0.0016,-0.0004 -0.0032,-0.0008 -0.0048,-0.0012c-2.0029,-0.5082 -3.7003,-1.2116 -5.1328,-2.1184c-1.9222,-1.2167 -3.3674,-2.7997 -4.4336,-4.7684c-0.3831,-0.7074 -0.7173,-1.4646 -1.0071,-2.2725c-0.00053,-0.0014 -0.00103,-0.0028 -0.0015,-0.0042c-0.01713,-0.0478 -0.0341,-0.09573 -0.0509,-0.1438c0.0087,-0.0492 0.0172,-0.0985 0.0257,-0.1479c0.024,-0.1404 0.0471,-0.2818 0.0695,-0.4241c0.1653,-1.0531 0.287,-2.1537 0.4088,-3.28h-4.572c-0.1062,1.1565 -0.2219,2.2498 -0.3906,3.28c-0.4953,3.0252 -1.4478,5.5068 -3.9579,7.4518c-1.4581,1.1299 -3.44193,2.0786 -6.16715,2.8476zM28.296,80.352c-0.249,0.6432 -0.5607,1.3432 -0.9085,2.056c-0.1138,0.2332 -0.2314,0.4677 -0.352,0.7021c-0.1279,0.2487 -0.2592,0.4973 -0.3926,0.7439c-0.0223,0.0412 -0.0447,0.0824 -0.0671,0.1235c-0.2322,0.4255 -0.4703,0.8441 -0.7086,1.2461c-0.3945,0.6656 -0.7895,1.2861 -1.1586,1.818c-0.0528,0.076 -0.105,0.1501 -0.1566,0.2224l3.24,1.98c0.383,-0.5362 0.7992,-1.1489 1.2316,-1.8088c0.3125,-0.4769 0.6334,-0.9786 0.9562,-1.4938c0.2572,-0.4105 0.5156,-0.8295 0.7719,-1.2516c0.4093,-0.6741 0.8133,-1.3558 1.1987,-2.0224l0.0896,-0.1554l-0.1803,-0.104l-0.0623,-0.036zM6.97629,80.6716c-0.1489,0.4687 -0.31996,0.942 -0.51145,1.4123c-0.03252,0.0798 -0.06562,0.1596 -0.09931,0.2393c-0.01079,0.0255 -0.02164,0.051 -0.03255,0.0765c-0.00119,0.0028 -0.00238,0.0055 -0.00357,0.0083c-0.23142,0.5399 -0.48942,1.0736 -0.77131,1.5893c-0.67281,1.231 -1.48171,2.3602 -2.3901,3.2307l2.15384,1.2923l1.36808,0.8208l0.07808,0.0469c0.66563,-0.6656 1.25389,-1.4678 1.77448,-2.345c0.27042,-0.4557 0.52257,-0.9316 0.75783,-1.4192c0.20146,-0.4174 0.39053,-0.8435 0.56806,-1.2726c0.02124,-0.0514 0.04232,-0.1028 0.06324,-0.1542c0.24249,-0.5964 0.46309,-1.1975 0.66389,-1.789c0.0578,-0.1703 0.1139,-0.3397 0.1685,-0.508l-3.744,-1.368c-0.01435,0.0465 -0.02892,0.093 -0.04371,0.1396zM-3.72692,120.024l7.56852,-9.274l2.85211,1.399c0.81885,0.40133 1.58235,0.793 2.2905,1.175h17.47179v-1.296h11.384v32.872c0,3.496 -1.2258,5.85667 -3.6774,7.082c-1.45893,0.75333 -3.90647,1.13 -7.3426,1.13h-3.4317l-0.0537,-0.349l-2.8446,1.796l-2.0901,-3.57c-0.20767,-0.35533 -0.4533,-0.73567 -0.7369,-1.141c-1.32267,1.216 -2.89463,2.23433 -4.7159,3.055l-3.80645,1.715l-0.83368,-2.084l-0.84637,2.023l-7.80777,-4.41l-3.26089,-1.842l1.62339,-3.375c1.57187,-3.268 3.03707,-6.92933 4.39562,-10.984c-0.92023,-0.58267 -2.01872,-1.21667 -3.29546,-1.902l-4.18292,-2.246l5.7128,-7.309c-0.07755,-0.044 -0.15535,-0.088 -0.2334,-0.132zM5.13221,115.839c-0.0477,-0.024 -0.09496,-0.047 -0.14175,-0.07c-0.01957,-0.01 -0.03906,-0.019 -0.05846,-0.029l-2.556,3.132c0.25494,0.144 0.52182,0.296 0.79602,0.456l0.04831,0.028c0.85,0.494 1.76738,1.051 2.61606,1.602c0.24831,0.161 0.49074,0.322 0.72388,0.481c0.14371,0.097 0.28388,0.194 0.41973,0.29c0.5255,0.37 0.98623,0.721 1.336,1.031l1.904,-2.53l0.5066,-0.673l0.2174,-0.289c-0.1193,-0.094 -0.249,-0.192 -0.3877,-0.292c-0.107,-0.077 -0.2193,-0.156 -0.3363,-0.236c-0.75424,-0.516 -1.70214,-1.084 -2.66432,-1.622c-0.1918,-0.107 -0.38417,-0.213 -0.57568,-0.317c-0.64353,-0.35 -1.27743,-0.679 -1.84779,-0.962zM33.84,116.028h-3.384v28.872c0,0.014 -0.0001,0.027 -0.0003,0.04c-0.007,0.398 -0.1215,0.59 -0.4236,0.654c-0.0592,0.013 -0.1255,0.02 -0.1996,0.024h-0.0077h-0.0063c-0.0265,0.002 -0.054,0.002 -0.0825,0.002c-0.1029,0 -0.2477,0.001 -0.4269,0.003c-0.2705,0.002 -0.6194,0.006 -1.0209,0.006c-0.4379,0 -0.9385,-0.002 -1.4682,-0.013c-0.3504,-0.007 -0.7137,-0.017 -1.08,-0.032c0.432,1.008 0.936,2.592 1.08,3.528c0.8827,0 1.6735,-0.013 2.3767,-0.052c1.3619,-0.076 2.3953,-0.252 3.1313,-0.632c1.152,-0.576 1.512,-1.584 1.512,-3.528zM10.98,141.012h3.24v-20.592h6.228v20.376h3.384v-23.472h-12.852v7.622zM25.524,140.94h3.276v-22.212h-3.276zM19.98,141.66l-0.2181,0.129l-1.0677,0.634l-0.4742,0.282l-0.544,0.323c0.2184,-0.512 0.3976,-1.035 0.544,-1.562c0.2541,-0.917 0.4094,-1.85 0.4994,-2.779c0.0315,-0.325 0.055,-0.65 0.0719,-0.973c0.0263,-0.501 0.0367,-0.999 0.0367,-1.49v-13.824h-3.132v13.788c0,0.571 -0.0116,1.139 -0.0475,1.7c-0.1526,2.383 -0.7451,4.644 -2.7593,6.538c-0.083,0.078 -0.1684,0.156 -0.2564,0.233c-0.1366,0.119 -0.2792,0.237 -0.4281,0.353c-0.3563,0.278 -0.7484,0.547 -1.1799,0.806c-0.318,0.191 -0.6573,0.376 -1.0195,0.556c-0.17377,0.086 -0.35283,0.171 -0.5373,0.254c0.22908,0.229 0.5424,0.607 0.8492,1.022c0.2292,0.309 0.4548,0.639 0.639,0.942c0.0992,0.163 0.1863,0.319 0.2556,0.459c0.0358,0.073 0.0668,0.142 0.0922,0.205c1.3708,-0.618 2.4958,-1.342 3.4198,-2.148c0.1509,-0.131 0.2964,-0.265 0.4367,-0.401c0.5539,-0.536 1.0274,-1.103 1.4324,-1.695c0.049,-0.072 0.097,-0.144 0.144,-0.216c0.3041,-0.468 0.5672,-0.95 0.7951,-1.444c0.1102,0.123 0.2218,0.248 0.3344,0.377c0.0164,0.018 0.0328,0.037 0.0493,0.056c0.042,0.048 0.0841,0.096 0.1263,0.145c0.0592,0.068 0.1185,0.136 0.178,0.206c0.1855,0.215 0.3723,0.436 0.5586,0.66c0.4137,0.497 0.8246,1.008 1.2124,1.509c0.0973,0.126 0.1932,0.252 0.2873,0.376c0.4009,0.53 0.7694,1.041 1.0801,1.506c0.1732,0.258 0.3285,0.502 0.4616,0.727c0.0108,0.018 0.0215,0.036 0.032,0.054l0.7212,-0.456l2.0148,-1.272c-0.0688,-0.114 -0.1435,-0.232 -0.2235,-0.354c-0.3834,-0.584 -0.8881,-1.254 -1.4508,-1.946c-0.039,-0.048 -0.0782,-0.096 -0.1177,-0.144c-0.2054,-0.25 -0.4178,-0.503 -0.6342,-0.755c-0.1359,-0.158 -0.2734,-0.316 -0.4117,-0.473c-0.0751,-0.085 -0.1505,-0.17 -0.2261,-0.254c-0.5212,-0.584 -1.0487,-1.148 -1.544,-1.654zM9.504,128.772c-0.14404,-0.101 -0.30105,-0.206 -0.46887,-0.315c-0.31929,-0.208 -0.67769,-0.429 -1.06032,-0.656c-0.31774,-0.188 -0.65219,-0.381 -0.99481,-0.573c-0.30644,-0.172 -0.61942,-0.344 -0.93285,-0.514c-0.38225,-0.206 -0.76517,-0.408 -1.13767,-0.6c-0.514,-0.265 -1.00818,-0.512 -1.45348,-0.726l-2.448,3.132c0.23896,0.128 0.4888,0.265 0.74563,0.409c0.31371,0.175 0.63787,0.361 0.9654,0.552c0.32727,0.191 0.65792,0.387 0.98489,0.586c0.26694,0.162 0.53143,0.326 0.78963,0.489c0.60227,0.38 1.17034,0.755 1.6555,1.1c0.28659,0.203 0.54425,0.396 0.76295,0.572l0.068,-0.091l0.12242,-0.163l0.58275,-0.777l1.62798,-2.171zM6.98,135.494l-0.716,-0.458c-0.15618,0.469 -0.31814,0.942 -0.48456,1.416c-0.28658,0.817 -0.58637,1.639 -0.89252,2.451c-1.11435,2.955 -2.31313,5.778 -3.26692,7.761l0.38008,0.215l3.50792,1.981c0.00091,-0.002 0.00182,-0.004 0.00272,-0.007c0.05145,-0.123 0.10299,-0.246 0.15459,-0.371c0.44582,-1.076 0.8969,-2.207 1.34242,-3.369l0.03874,-0.101c0.25469,-0.666 0.50746,-1.341 0.75628,-2.021c0.69685,-1.905 1.36275,-3.847 1.95325,-5.723l-0.01961,-0.013l-1.07814,-0.689zM-2.46587,170.696l8.59709,-7.936l2.68893,2.182c2.6555,2.154 4.63942,4.004 5.95175,5.55h4.9727l-0.0557,-2.574l-0.0883,-4.086h10.6601l1.6951,-1.038l2.2258,2.466c1.75933,1.94933 3.05497,3.69333 3.8869,5.232h0.7075v1.425l1.1083,2.278l-1.1083,0.719v7.682h-6.2868c0.05573,0.82133 0.1156,1.60567 0.1796,2.353l2.2787,2.848c0.20853,0.26067 0.9634,0.76767 2.2646,1.521l2.3032,1.334l-0.3401,2.639c-1.01727,7.894 -3.83683,11.841 -8.4587,11.841c-2.92473,-0.04667 -5.22107,-1.538 -6.889,-4.474l-0.498,0.147l-8.0289,2.332l-3.8954,1.132l-0.0003,-0.001l-0.5779,-2.097c-1.07207,0.73133 -1.66201,1.157 -1.76982,1.277l-4.88661,5.429l-1.8432,-6.681l-1.07961,0.274l0.89967,-0.9c-0.23389,-0.70333 -0.61799,-1.37567 -1.15231,-2.017l-2.97064,-3.565l3.96369,-2.413l0.02383,0.141v-6.908h-4.248v-12.14h4.21821c-0.36014,-0.332 -0.74269,-0.678 -1.14766,-1.038zM12.636,178.596h11.34l0.0061,0.14c0.1284,2.903 0.3019,5.565 0.5369,7.96c0.0237,0.242 0.048,0.481 0.073,0.717c0.0274,0.26 0.0557,0.516 0.0847,0.769c0.1008,0.879 0.2113,1.717 0.3324,2.514c0.6204,4.084 1.5187,7.074 2.8208,8.782c0.8149,1.069 1.788,1.636 2.9501,1.654c0.9693,0 2.187,-0.59 3.1638,-2.973c0.5105,-1.246 0.9552,-2.982 1.2642,-5.379c-0.3356,-0.194 -0.9831,-0.579 -1.6408,-1.027c-0.6828,-0.465 -1.3764,-0.999 -1.7432,-1.457c-0.017,0.382 -0.036,0.745 -0.0571,1.087c-0.0207,0.335 -0.0433,0.65 -0.068,0.945c-0.1115,1.33 -0.2647,2.241 -0.4646,2.678c-0.0931,0.203 -0.1964,0.303 -0.3103,0.294c-0.0721,-0.002 -0.1432,-0.027 -0.2133,-0.075c-0.2199,-0.149 -0.4301,-0.518 -0.6291,-1.079c-0.1846,-0.52 -0.3596,-1.207 -0.5238,-2.037c-0.0376,-0.19 -0.0745,-0.387 -0.1109,-0.592c-0.3957,-2.224 -0.7232,-5.308 -0.9646,-8.921c-0.0666,-0.997 -0.1267,-2.034 -0.1798,-3.105c-0.0147,-0.296 -0.0289,-0.594 -0.0425,-0.895h6.516v-4.104h-2.7l2.664,-1.728c-0.3131,-0.644 -0.8364,-1.447 -1.4439,-2.272c-0.0747,-0.101 -0.1507,-0.203 -0.2277,-0.305c-0.1859,-0.246 -0.3779,-0.492 -0.5726,-0.735c-0.1372,-0.171 -0.2758,-0.341 -0.4146,-0.508c-0.2924,-0.351 -0.5857,-0.69 -0.8692,-1.004l-2.88,1.764c0.1285,0.156 0.2586,0.317 0.3894,0.484c0.0787,0.099 0.1576,0.201 0.2364,0.304c0.2105,0.275 0.421,0.559 0.6273,0.848c0.3846,0.539 0.7543,1.092 1.0809,1.625c0.3033,0.495 0.5694,0.972 0.7759,1.403l0.0065,0.014c0.0117,0.025 0.0232,0.049 0.0344,0.073c0.0058,0.012 0.0115,0.025 0.0172,0.037h-3.348c-0.0241,-0.722 -0.0401,-1.453 -0.0508,-2.19c-0.0212,-1.467 -0.0212,-2.96 -0.0212,-4.47h-4.392l0.0005,0.025l0.0556,2.571l0.0014,0.064l0.029,1.34l0.0575,2.66h-11.196zM6.3,168.048l-2.808,2.592c0.13374,0.119 0.27003,0.241 0.40825,0.366c0.80608,0.728 1.67794,1.55 2.4924,2.37l0.00614,0.007l0.00926,0.009c0.42708,0.43 0.83813,0.86 1.21534,1.276c0.37734,0.416 0.72083,0.817 1.01261,1.19c0.14727,0.189 0.28136,0.37 0.4,0.542l1.7531,-1.732l1.1249,-1.111l0.11,-0.109c-0.5791,-0.732 -1.4645,-1.634 -2.43885,-2.545c-0.14655,-0.137 -0.29512,-0.274 -0.44496,-0.411c-0.95932,-0.876 -1.97077,-1.739 -2.84019,-2.444zM16.1836,194.55l-0.8574,0.218l-0.9622,0.244l0.036,-0.036c-0.034,-0.071 -0.0686,-0.149 -0.1035,-0.232c-0.0004,-0.001 -0.0008,-0.002 -0.0013,-0.003c-0.0376,-0.089 -0.0756,-0.186 -0.1138,-0.287c-0.0022,-0.006 -0.0045,-0.012 -0.0068,-0.018c-0.1167,-0.312 -0.2343,-0.672 -0.3456,-1.049c-0.0065,-0.022 -0.013,-0.045 -0.0195,-0.067c-0.2005,-0.687 -0.3784,-1.423 -0.4895,-2.016l-0.688,0.433l-0.9027,0.568l-0.8499,0.535l-0.7634,0.48v-14.652h-8.352v4.14h4.248v10.908c0,0.99 -0.43594,1.825 -0.96504,2.436c-0.02825,0.032 -0.05676,0.064 -0.08549,0.095c-0.29412,0.321 -0.6106,0.573 -0.89347,0.745c0.04205,0.05 0.08507,0.104 0.12891,0.161c0.2844,0.37 0.60172,0.869 0.89706,1.398c0.00875,0.016 0.01748,0.031 0.02619,0.047c0.14881,0.269 0.29157,0.544 0.42116,0.813c0.0012,0.002 0.00239,0.005 0.00358,0.007c0.24105,0.501 0.43611,0.981 0.5391,1.354c0.15188,-0.169 0.32748,-0.337 0.57687,-0.543c0.016,-0.013 0.0323,-0.026 0.04896,-0.04c0.48424,-0.393 1.23749,-0.922 2.58664,-1.826c0.05063,-0.034 0.1021,-0.069 0.15443,-0.104c0.04916,-0.032 0.09908,-0.066 0.14977,-0.1c0.03377,-0.022 0.06787,-0.045 0.10232,-0.068c0.80051,-0.534 1.78791,-1.187 3.01531,-1.997c0.1464,-0.097 0.2962,-0.196 0.4495,-0.297l0.0442,-0.029l0.0775,0.281l0.8658,3.143l0.0287,0.104c0.189,-0.055 0.3809,-0.111 0.5755,-0.167c0.367,-0.107 0.7437,-0.216 1.1284,-0.327c0.2319,-0.067 0.4667,-0.135 0.7041,-0.204l0.6927,-0.201l0.7415,-0.215c0.8051,-0.233 1.6304,-0.472 2.4637,-0.715c0.0474,-0.014 0.0948,-0.028 0.1422,-0.041c0.4697,-0.137 0.9418,-0.275 1.414,-0.413c0.0767,-0.023 0.1535,-0.045 0.2303,-0.068c0.8474,-0.248 1.6941,-0.497 2.5276,-0.745l-0.4531,-2.772l-0.1589,-0.972l-0.4556,0.123l-2.3504,0.635l-0.754,0.203l-0.04,0.011v-6.732h2.7v-3.96h-9.576v3.96h2.916v7.74l-0.04,0.01z"></path></g></g><path id="路径 1" fill-rule="evenodd" style="fill:#FFF5DB" opacity="1" d="M391.592 284.813L391.593 300.624L391.588 327.276L430.962 328.792C430.962 328.792 379.286 366.265 373.876 366.196C368.456 366.128 326.463 328.796 326.463 328.796L361.865 327.282L361.861 300.62L361.86 284.809L391.592 284.813Z"></path><path  id="路径 1" style="fill:#000000; opacity:1;" d="M391.592,284.813v0.5l-29.732,-0.004v-0.5h0.5l0.001,15.811l0.004,27.141l-35.88,1.535l-0.022,-0.5l0.332,-0.373h0.001c27.90467,24.80533 43.6,37.22967 47.086,37.273c3.49667,0.04467 22.42533,-12.39167 56.786,-37.309l0.294,0.405l-0.294,-0.405l0.294,0.405l-0.02,0.5l-39.855,-1.535l0.006,-27.133l-0.001,-15.811zM392.092,284.813l0.001,15.811l-0.005,26.652h-0.5l0.019,-0.499l40.819,1.571l-1.171,0.849l1.171,-0.849l-1.171,0.849c-34.54,25.04667 -53.66833,37.54633 -57.385,37.499c-3.73467,-0.04667 -19.64767,-12.55533 -47.739,-37.526v0l-0.923,-0.82l36.636,-1.567l0.021,0.499h-0.5l-0.004,-26.662l-0.001,-16.311l30.732,0.004z"></path><g opacity="1" transform="translate(150 367)  rotate(0)"><a xlink:href="https://" xlink:title="跳转" target="_blank"><text><tspan x="0" y="27.84" font-size="24" line-height="0" fill="#000000" opacity="1" font-family="SourceHanSansCN-Regular" font-weight="Regular" letter-spacing="0"  >在智能客服开发过程中，图灵测试被广泛应用于测</tspan><tspan x="0" y="62.592" font-size="24" line-height="0" fill="#000000" opacity="1" font-family="SourceHanSansCN-Regular" font-weight="Regular" letter-spacing="0"  >试机器的能力。智能客服需要具备自然语言处理、</tspan><tspan x="0" y="97.34400000000001" font-size="24" line-height="0" fill="#000000" opacity="1" font-family="SourceHanSansCN-Regular" font-weight="Regular" letter-spacing="0"  >信息获取、问题解答等能力，其中最重要的是对用</tspan><tspan x="0" y="132.096" font-size="24" line-height="0" fill="#000000" opacity="1" font-family="SourceHanSansCN-Regular" font-weight="Regular" letter-spacing="0"  >户问题的准确理解和解答。通过图灵测试，可以评</tspan><tspan x="0" y="166.848" font-size="24" line-height="0" fill="#000000" opacity="1" font-family="SourceHanSansCN-Regular" font-weight="Regular" letter-spacing="0"  >估机器的自然语言交互能力以及解决问题的能力，</tspan><tspan x="0" y="201.60000000000002" font-size="24" line-height="0" fill="#000000" opacity="1" font-family="SourceHanSansCN-Regular" font-weight="Regular" letter-spacing="0"  >确保其能够真正达到人类智能的水平，提高智能客</tspan><tspan x="0" y="236.35200000000003" font-size="24" line-height="0" fill="#000000" opacity="1" font-family="SourceHanSansCN-Regular" font-weight="Regular" letter-spacing="0" >服的服务质量和用户满意度。</tspan></text></a></g><g opacity="1" transform="translate(150 0)  rotate(0)"><a xlink:href="https://" xlink:title="跳转" target="_blank"><text><tspan x="0" y="27.84" font-size="24" line-height="0" fill="#000000" opacity="1" font-family="SourceHanSansCN-Regular" font-weight="Regular" letter-spacing="0"  >具体而言，在智能客服开发阶段，首先需要设计一系</tspan><tspan x="0" y="62.592" font-size="24" line-height="0" fill="#000000" opacity="1" font-family="SourceHanSansCN-Regular" font-weight="Regular" letter-spacing="0"  >列对话场景，然后由测试者对话机器，通过测试对话</tspan><tspan x="0" y="97.34400000000001" font-size="24" line-height="0" fill="#000000" opacity="1" font-family="SourceHanSansCN-Regular" font-weight="Regular" letter-spacing="0"  >栏，来评估机器的自然语言交互能力和解决问题的能</tspan><tspan x="0" y="132.096" font-size="24" line-height="0" fill="#000000" opacity="1" font-family="SourceHanSansCN-Regular" font-weight="Regular" letter-spacing="0"  >力。测试分为单向测试和双向测试。单向测试中，机</tspan><tspan x="0" y="166.848" font-size="24" line-height="0" fill="#000000" opacity="1" font-family="SourceHanSansCN-Regular" font-weight="Regular" letter-spacing="0"  >器向测试者提问，测试者进行回答，测试机器的提问</tspan><tspan x="0" y="201.60000000000002" font-size="24" line-height="0" fill="#000000" opacity="1" font-family="SourceHanSansCN-Regular" font-weight="Regular" letter-spacing="0"  >和回答的能力。双向测试中，机器和测试者进行自由</tspan><tspan x="0" y="236.35200000000003" font-size="24" line-height="0" fill="#000000" opacity="1" font-family="SourceHanSansCN-Regular" font-weight="Regular" letter-spacing="0"  >对话，测试机器的交互能力和对于问题的解决能力。</tspan><tspan x="0" y="271.10400000000004" font-size="24" line-height="0" fill="#000000" opacity="1" font-family="SourceHanSansCN-Regular" font-weight="Regular" letter-spacing="0"  >通过图灵测试的反馈与调整，不断提高智能客服的质</tspan><tspan x="0" y="305.856" font-size="24" line-height="0" fill="#000000" opacity="1" font-family="SourceHanSansCN-Regular" font-weight="Regular" letter-spacing="0" >量和能力。</tspan></text></a></g></g></svg>