<svg xmlns="http://www.w3.org/2000/svg" xmlns:xlink="http://www.w3.org/1999/xlink" width="716" height="687" viewBox="0 0 716 687" fill="none"><g opacity="1"  transform="translate(0 0)  rotate(0)"><path id="路径 1" fill-rule="evenodd" style="fill:#FFF5DB" opacity="1" d="M349.592 252.813L349.593 268.624L349.588 295.276L388.962 296.792C388.962 296.792 337.286 334.265 331.876 334.196C326.456 334.128 284.463 296.796 284.463 296.796L319.865 295.282L319.861 268.62L319.86 252.809L349.592 252.813Z"></path><path  id="路径 1" style="fill:#000000; opacity:1;" d="M349.592,252.813v0.5l-29.732,-0.004v-0.5h0.5l0.001,15.811l0.004,27.141l-35.88,1.535l-0.022,-0.5l0.332,-0.373h0.001c27.90467,24.80533 43.6,37.22967 47.086,37.273c3.49667,0.04467 22.42533,-12.39167 56.786,-37.309l0.294,0.405l-0.294,-0.405l0.294,0.405l-0.02,0.5l-39.855,-1.535l0.006,-27.133l-0.001,-15.811zM350.092,252.813l0.001,15.811l-0.005,26.652h-0.5l0.019,-0.499l40.819,1.571l-1.171,0.849l1.171,-0.849l-1.171,0.849c-34.54,25.04667 -53.66833,37.54633 -57.385,37.499c-3.73467,-0.04667 -19.64767,-12.55533 -47.739,-37.526v0l-0.923,-0.82l36.636,-1.567l0.021,0.499h-0.5l-0.004,-26.662l-0.001,-16.311l30.732,0.004z"></path><g opacity="1" transform="translate(0 0)  rotate(0)"><a xlink:href="https://" xlink:title="跳转" target="_blank"><text><tspan x="0" y="27.84" font-size="24" line-height="0" fill="#000000" opacity="1" font-family="SourceHanSansCN-Regular" font-weight="Regular" letter-spacing="0"  >虽然图灵测试在智能客服的开发过程中具有重要意义，但也存在一</tspan><tspan x="0" y="62.592" font-size="24" line-height="0" fill="#000000" opacity="1" font-family="SourceHanSansCN-Regular" font-weight="Regular" letter-spacing="0"  >些挑战和问题。首先，图灵测试的标准难以制定，对于认知能力复</tspan><tspan x="0" y="97.34400000000001" font-size="24" line-height="0" fill="#000000" opacity="1" font-family="SourceHanSansCN-Regular" font-weight="Regular" letter-spacing="0"  >杂的机器，测试结果可能并不能完全说明其“智能”。其次，图灵</tspan><tspan x="0" y="132.096" font-size="24" line-height="0" fill="#000000" opacity="1" font-family="SourceHanSansCN-Regular" font-weight="Regular" letter-spacing="0"  >测试只能评估机器的交互和对话能力，对于机器的其他能力，如学</tspan><tspan x="0" y="166.848" font-size="24" line-height="0" fill="#000000" opacity="1" font-family="SourceHanSansCN-Regular" font-weight="Regular" letter-spacing="0"  >习能力、创造能力等，无法测试。此外，图灵测试需要一定的测试</tspan><tspan x="0" y="201.60000000000002" font-size="24" line-height="0" fill="#000000" opacity="1" font-family="SourceHanSansCN-Regular" font-weight="Regular" letter-spacing="0" >时间和成本，如果机器无法通过测试，会增加开发成本和时间。</tspan></text></a></g><g opacity="1" transform="translate(77 352)  rotate(0)"><a xlink:href="https://" xlink:title="跳转" target="_blank"><text><tspan x="0" y="27.84" font-size="24" line-height="0" fill="#000000" opacity="1" font-family="SourceHanSansCN-Regular" font-weight="Regular" letter-spacing="0"  >总的来说，图灵测试是智能客服等人工智能技术中的</tspan><tspan x="0" y="62.592" font-size="24" line-height="0" fill="#000000" opacity="1" font-family="SourceHanSansCN-Regular" font-weight="Regular" letter-spacing="0"  >重要测试方法，其应用可以评估机器的自然语言交互</tspan><tspan x="0" y="97.34400000000001" font-size="24" line-height="0" fill="#000000" opacity="1" font-family="SourceHanSansCN-Regular" font-weight="Regular" letter-spacing="0"  >能力以及解决问题的能力，确保其能够真正达到人类</tspan><tspan x="0" y="132.096" font-size="24" line-height="0" fill="#000000" opacity="1" font-family="SourceHanSansCN-Regular" font-weight="Regular" letter-spacing="0"  >智能的水平，提高智能客服的服务质量和用户满意</tspan><tspan x="0" y="166.848" font-size="24" line-height="0" fill="#000000" opacity="1" font-family="SourceHanSansCN-Regular" font-weight="Regular" letter-spacing="0"  >度。但是，图灵测试仍存在标准难以制定、测试时间</tspan><tspan x="0" y="201.60000000000002" font-size="24" line-height="0" fill="#000000" opacity="1" font-family="SourceHanSansCN-Regular" font-weight="Regular" letter-spacing="0"  >和成本高等问题。未来，随着科技的不断发展，对于</tspan><tspan x="0" y="236.35200000000003" font-size="24" line-height="0" fill="#000000" opacity="1" font-family="SourceHanSansCN-Regular" font-weight="Regular" letter-spacing="0"  >人工智能的测试方法也需要不断创新与升级，以提高</tspan><tspan x="0" y="271.10400000000004" font-size="24" line-height="0" fill="#000000" opacity="1" font-family="SourceHanSansCN-Regular" font-weight="Regular" letter-spacing="0" >测试效率和精度。</tspan></text></a></g></g></svg>