<?xml version="1.0" standalone="no"?><!DOCTYPE svg PUBLIC "-//W3C//DTD SVG 1.1//EN" "http://www.w3.org/Graphics/SVG/1.1/DTD/svg11.dtd"><svg t="1693833663642" class="icon" viewBox="0 0 1024 1024" version="1.1" xmlns="http://www.w3.org/2000/svg" p-id="4903" xmlns:xlink="http://www.w3.org/1999/xlink" width="200" height="200"><path d="M848.9 890H171.1c-16.5 0-30-13.5-30-30s13.5-30 30-30h677.7c16.5 0 30 13.5 30 30 0.1 16.5-13.4 30-29.9 30zM744 398.5L566.1 220.6c-7.5-7.5-17.4-11.6-27.9-11.6-10.6 0-20.5 4.1-27.9 11.6l-97.5 97.5-223.7 223.8c-9.9 9.9-15.4 23-15.5 37l-1.1 159.9c-0.2 27.9 22.4 50.9 50.3 51.1l162.8 1.2h0.4c13.6 0 27-5.5 36.6-15.2L744 454.4c15.3-15.5 15.3-40.5 0-55.9z m-288.8-38z m-74.5 370.4l-143.5-1c-2.6 0-4.6-2.1-4.6-4.7l1-141.1c0-1.2 0.5-2.4 1.4-3.2l200.9-201c1.8-1.8 4.7-1.8 6.5 0l142.3 142.4c1.8 1.8 1.8 4.7 0 6.6L384 729.6c-0.9 0.9-2.1 1.3-3.3 1.3zM604 509.4z m23.1-29.6L484.8 337.4c-1.8-1.8-1.8-4.7 0-6.6l50.1-50.1c1.8-1.8 4.7-1.8 6.5 0l142.3 142.4c1.8 1.8 1.8 4.7 0 6.6l-50.1 50.1c-1.7 1.8-4.7 1.8-6.5 0z" fill="#75A8C9" p-id="4904"></path></svg>